<?xml version="1.0" encoding="utf-8" standalone="no"?>
<!DOCTYPE svg PUBLIC "-//W3C//DTD SVG 1.1//EN"
  "http://www.w3.org/Graphics/SVG/1.1/DTD/svg11.dtd">
<svg height="345.6pt" version="1.1" viewBox="0 0 460.8 345.6" width="460.8pt" xmlns="http://www.w3.org/2000/svg" xmlns:xlink="http://www.w3.org/1999/xlink">
 <metadata>
  <rdf:RDF xmlns:cc="http://creativecommons.org/ns#" xmlns:dc="http://purl.org/dc/elements/1.1/" xmlns:rdf="http://www.w3.org/1999/02/22-rdf-syntax-ns#">
   <cc:Work>
    <dc:type rdf:resource="http://purl.org/dc/dcmitype/StillImage"/>
    <dc:date>2021-03-30T12:58:39.013396</dc:date>
    <dc:format>image/svg+xml</dc:format>
    <dc:creator>
     <cc:Agent>
      <dc:title>Matplotlib v3.4.0, https://matplotlib.org/</dc:title>
     </cc:Agent>
    </dc:creator>
   </cc:Work>
  </rdf:RDF>
 </metadata>
 <defs>
  <style type="text/css">*{stroke-linecap:butt;stroke-linejoin:round;}</style>
 </defs>
 <g id="figure_1">
  <g id="patch_1">
   <path d="M 0 345.6 
L 460.8 345.6 
L 460.8 0 
L 0 0 
z
" style="fill:#ffffff;"/>
  </g>
  <g id="axes_1">
   <g id="matplotlib.axis_1"/>
   <g id="matplotlib.axis_2"/>
   <g id="patch_2">
    <path d="M 339.960472 109.356842 
C 331.908436 95.410306 321.293779 83.109574 308.675968 73.102977 
C 296.058157 63.096381 281.662838 55.562872 266.248745 50.899518 
C 250.834653 46.236164 234.67744 44.52636 218.628704 45.860227 
C 202.579968 47.194093 186.926712 51.547775 172.493972 58.691803 
C 158.061232 65.835831 145.107111 75.642447 134.314383 87.594775 
C 123.521654 99.547102 115.083326 113.431395 109.444157 128.515854 
C 103.804987 143.600312 101.065824 159.615179 101.371039 175.716358 
C 101.676254 191.817537 105.02039 207.717088 111.227187 222.576994 
C 117.433984 237.436899 126.392444 250.991417 137.630395 262.526129 
C 148.868346 274.060841 162.184817 283.36947 176.877936 289.961386 
C 191.571056 296.553302 207.378065 300.310621 223.465823 301.035305 
C 239.55358 301.759989 255.634387 299.43908 270.860672 294.194904 
C 286.086957 288.950729 300.186425 280.87707 312.415936 270.399466 
C 324.645447 259.921862 334.786298 247.227686 342.303996 232.98601 
C 349.821694 218.744334 354.581798 203.209844 356.333417 187.201316 
C 358.085036 171.192789 356.796847 154.996507 352.536744 139.466129 
L 229.220071 173.292842 
L 339.960472 109.356842 
z
" style="fill:#4c72b0;stroke:#ffffff;stroke-linejoin:miter;"/>
   </g>
   <g id="patch_3">
    <path d="M 354.928623 138.565485 
C 354.287435 136.228008 353.579916 133.909234 352.806924 131.611974 
C 352.033931 129.314713 351.195778 127.039895 350.29348 124.790278 
L 231.61195 172.392198 
L 354.928623 138.565485 
z
" style="fill:#dd8452;stroke:#ffffff;stroke-linejoin:miter;"/>
   </g>
   <g id="patch_4">
    <path d="M 350.261459 124.705238 
C 350.035899 124.142869 349.806344 123.582111 349.572812 123.023005 
C 349.339281 122.463899 349.101778 121.90646 348.860323 121.35073 
L 231.579929 172.307158 
L 350.261459 124.705238 
z
" style="fill:#55a868;stroke:#ffffff;stroke-linejoin:miter;"/>
   </g>
   <g id="patch_5">
    <path d="M 348.845836 121.317388 
C 348.604381 120.761658 348.358978 120.207652 348.109647 119.65541 
C 347.860317 119.103169 347.607064 118.552707 347.349908 118.004066 
L 231.565442 172.273816 
L 348.845836 121.317388 
z
" style="fill:#c44e52;stroke:#ffffff;stroke-linejoin:miter;"/>
   </g>
   <g id="patch_6">
    <path d="M 347.334479 117.971149 
C 347.077324 117.422507 346.816272 116.875701 346.551343 116.33077 
C 346.286415 115.78584 346.017617 115.242799 345.744969 114.70169 
L 231.550013 172.240899 
L 347.334479 117.971149 
z
" style="fill:#8172b3;stroke:#ffffff;stroke-linejoin:miter;"/>
   </g>
   <g id="patch_7">
    <path d="M 345.72861 114.669225 
C 345.455963 114.128115 345.179472 113.58895 344.89916 113.051771 
C 344.618848 112.514592 344.334721 111.979412 344.046802 111.446272 
L 231.533655 172.208433 
L 345.72861 114.669225 
z
" style="fill:#937860;stroke:#ffffff;stroke-linejoin:miter;"/>
   </g>
   <g id="patch_8">
    <path d="M 344.029527 111.414285 
C 343.741607 110.881145 343.449902 110.350057 343.154433 109.821064 
C 342.858963 109.29207 342.559738 108.765183 342.256779 108.240443 
L 231.516381 172.176446 
L 344.029527 111.414285 
z
" style="fill:#da8bc3;stroke:#ffffff;stroke-linejoin:miter;"/>
   </g>
   <g id="text_1">
    <!-- 96% -->
    <g style="fill:#262626;" transform="translate(145.088403 206.174583)scale(0.12 -0.12)">
     <defs>
      <path d="M 703 97 
L 703 672 
Q 941 559 1184 500 
Q 1428 441 1663 441 
Q 2288 441 2617 861 
Q 2947 1281 2994 2138 
Q 2813 1869 2534 1725 
Q 2256 1581 1919 1581 
Q 1219 1581 811 2004 
Q 403 2428 403 3163 
Q 403 3881 828 4315 
Q 1253 4750 1959 4750 
Q 2769 4750 3195 4129 
Q 3622 3509 3622 2328 
Q 3622 1225 3098 567 
Q 2575 -91 1691 -91 
Q 1453 -91 1209 -44 
Q 966 3 703 97 
z
M 1959 2075 
Q 2384 2075 2632 2365 
Q 2881 2656 2881 3163 
Q 2881 3666 2632 3958 
Q 2384 4250 1959 4250 
Q 1534 4250 1286 3958 
Q 1038 3666 1038 3163 
Q 1038 2656 1286 2365 
Q 1534 2075 1959 2075 
z
" id="DejaVuSans-39" transform="scale(0.015625)"/>
      <path d="M 2113 2584 
Q 1688 2584 1439 2293 
Q 1191 2003 1191 1497 
Q 1191 994 1439 701 
Q 1688 409 2113 409 
Q 2538 409 2786 701 
Q 3034 994 3034 1497 
Q 3034 2003 2786 2293 
Q 2538 2584 2113 2584 
z
M 3366 4563 
L 3366 3988 
Q 3128 4100 2886 4159 
Q 2644 4219 2406 4219 
Q 1781 4219 1451 3797 
Q 1122 3375 1075 2522 
Q 1259 2794 1537 2939 
Q 1816 3084 2150 3084 
Q 2853 3084 3261 2657 
Q 3669 2231 3669 1497 
Q 3669 778 3244 343 
Q 2819 -91 2113 -91 
Q 1303 -91 875 529 
Q 447 1150 447 2328 
Q 447 3434 972 4092 
Q 1497 4750 2381 4750 
Q 2619 4750 2861 4703 
Q 3103 4656 3366 4563 
z
" id="DejaVuSans-36" transform="scale(0.015625)"/>
      <path d="M 4653 2053 
Q 4381 2053 4226 1822 
Q 4072 1591 4072 1178 
Q 4072 772 4226 539 
Q 4381 306 4653 306 
Q 4919 306 5073 539 
Q 5228 772 5228 1178 
Q 5228 1588 5073 1820 
Q 4919 2053 4653 2053 
z
M 4653 2450 
Q 5147 2450 5437 2106 
Q 5728 1763 5728 1178 
Q 5728 594 5436 251 
Q 5144 -91 4653 -91 
Q 4153 -91 3862 251 
Q 3572 594 3572 1178 
Q 3572 1766 3864 2108 
Q 4156 2450 4653 2450 
z
M 1428 4353 
Q 1159 4353 1004 4120 
Q 850 3888 850 3481 
Q 850 3069 1003 2837 
Q 1156 2606 1428 2606 
Q 1700 2606 1854 2837 
Q 2009 3069 2009 3481 
Q 2009 3884 1853 4118 
Q 1697 4353 1428 4353 
z
M 4250 4750 
L 4750 4750 
L 1831 -91 
L 1331 -91 
L 4250 4750 
z
M 1428 4750 
Q 1922 4750 2215 4408 
Q 2509 4066 2509 3481 
Q 2509 2891 2217 2550 
Q 1925 2209 1428 2209 
Q 931 2209 642 2551 
Q 353 2894 353 3481 
Q 353 4063 643 4406 
Q 934 4750 1428 4750 
z
" id="DejaVuSans-25" transform="scale(0.015625)"/>
     </defs>
     <use xlink:href="#DejaVuSans-39"/>
     <use x="63.623047" xlink:href="#DejaVuSans-36"/>
     <use x="127.246094" xlink:href="#DejaVuSans-25"/>
    </g>
   </g>
   <g id="text_2">
    <!-- %Y-%m-%d -->
    <g style="fill:#262626;" transform="translate(364.926421 130.569264)scale(0.11 -0.11)">
     <defs>
      <path d="M -13 4666 
L 666 4666 
L 1959 2747 
L 3244 4666 
L 3922 4666 
L 2272 2222 
L 2272 0 
L 1638 0 
L 1638 2222 
L -13 4666 
z
" id="DejaVuSans-59" transform="scale(0.015625)"/>
      <path d="M 313 2009 
L 1997 2009 
L 1997 1497 
L 313 1497 
L 313 2009 
z
" id="DejaVuSans-2d" transform="scale(0.015625)"/>
      <path d="M 3328 2828 
Q 3544 3216 3844 3400 
Q 4144 3584 4550 3584 
Q 5097 3584 5394 3201 
Q 5691 2819 5691 2113 
L 5691 0 
L 5113 0 
L 5113 2094 
Q 5113 2597 4934 2840 
Q 4756 3084 4391 3084 
Q 3944 3084 3684 2787 
Q 3425 2491 3425 1978 
L 3425 0 
L 2847 0 
L 2847 2094 
Q 2847 2600 2669 2842 
Q 2491 3084 2119 3084 
Q 1678 3084 1418 2786 
Q 1159 2488 1159 1978 
L 1159 0 
L 581 0 
L 581 3500 
L 1159 3500 
L 1159 2956 
Q 1356 3278 1631 3431 
Q 1906 3584 2284 3584 
Q 2666 3584 2933 3390 
Q 3200 3197 3328 2828 
z
" id="DejaVuSans-6d" transform="scale(0.015625)"/>
      <path d="M 2906 2969 
L 2906 4863 
L 3481 4863 
L 3481 0 
L 2906 0 
L 2906 525 
Q 2725 213 2448 61 
Q 2172 -91 1784 -91 
Q 1150 -91 751 415 
Q 353 922 353 1747 
Q 353 2572 751 3078 
Q 1150 3584 1784 3584 
Q 2172 3584 2448 3432 
Q 2725 3281 2906 2969 
z
M 947 1747 
Q 947 1113 1208 752 
Q 1469 391 1925 391 
Q 2381 391 2643 752 
Q 2906 1113 2906 1747 
Q 2906 2381 2643 2742 
Q 2381 3103 1925 3103 
Q 1469 3103 1208 2742 
Q 947 2381 947 1747 
z
" id="DejaVuSans-64" transform="scale(0.015625)"/>
     </defs>
     <use xlink:href="#DejaVuSans-25"/>
     <use x="95.019531" xlink:href="#DejaVuSans-59"/>
     <use x="144.228516" xlink:href="#DejaVuSans-2d"/>
     <use x="180.3125" xlink:href="#DejaVuSans-25"/>
     <use x="275.332031" xlink:href="#DejaVuSans-6d"/>
     <use x="372.744141" xlink:href="#DejaVuSans-2d"/>
     <use x="408.828125" xlink:href="#DejaVuSans-25"/>
     <use x="503.847656" xlink:href="#DejaVuSans-64"/>
    </g>
   </g>
   <g id="text_3">
    <!-- 2% -->
    <g style="fill:#262626;" transform="translate(294.810497 151.235313)scale(0.12 -0.12)">
     <defs>
      <path d="M 1228 531 
L 3431 531 
L 3431 0 
L 469 0 
L 469 531 
Q 828 903 1448 1529 
Q 2069 2156 2228 2338 
Q 2531 2678 2651 2914 
Q 2772 3150 2772 3378 
Q 2772 3750 2511 3984 
Q 2250 4219 1831 4219 
Q 1534 4219 1204 4116 
Q 875 4013 500 3803 
L 500 4441 
Q 881 4594 1212 4672 
Q 1544 4750 1819 4750 
Q 2544 4750 2975 4387 
Q 3406 4025 3406 3419 
Q 3406 3131 3298 2873 
Q 3191 2616 2906 2266 
Q 2828 2175 2409 1742 
Q 1991 1309 1228 531 
z
" id="DejaVuSans-32" transform="scale(0.015625)"/>
     </defs>
     <use xlink:href="#DejaVuSans-32"/>
     <use x="63.623047" xlink:href="#DejaVuSans-25"/>
    </g>
   </g>
   <g id="text_4">
    <!-- %Y-%b -->
    <g style="fill:#262626;" transform="translate(361.372101 121.129902)scale(0.11 -0.11)">
     <defs>
      <path d="M 3116 1747 
Q 3116 2381 2855 2742 
Q 2594 3103 2138 3103 
Q 1681 3103 1420 2742 
Q 1159 2381 1159 1747 
Q 1159 1113 1420 752 
Q 1681 391 2138 391 
Q 2594 391 2855 752 
Q 3116 1113 3116 1747 
z
M 1159 2969 
Q 1341 3281 1617 3432 
Q 1894 3584 2278 3584 
Q 2916 3584 3314 3078 
Q 3713 2572 3713 1747 
Q 3713 922 3314 415 
Q 2916 -91 2278 -91 
Q 1894 -91 1617 61 
Q 1341 213 1159 525 
L 1159 0 
L 581 0 
L 581 4863 
L 1159 4863 
L 1159 2969 
z
" id="DejaVuSans-62" transform="scale(0.015625)"/>
     </defs>
     <use xlink:href="#DejaVuSans-25"/>
     <use x="95.019531" xlink:href="#DejaVuSans-59"/>
     <use x="144.228516" xlink:href="#DejaVuSans-2d"/>
     <use x="180.3125" xlink:href="#DejaVuSans-25"/>
     <use x="275.332031" xlink:href="#DejaVuSans-62"/>
    </g>
   </g>
   <g id="text_5">
    <!-- 0% -->
    <g style="fill:#262626;" transform="translate(292.857222 146.047916)scale(0.12 -0.12)">
     <defs>
      <path d="M 2034 4250 
Q 1547 4250 1301 3770 
Q 1056 3291 1056 2328 
Q 1056 1369 1301 889 
Q 1547 409 2034 409 
Q 2525 409 2770 889 
Q 3016 1369 3016 2328 
Q 3016 3291 2770 3770 
Q 2525 4250 2034 4250 
z
M 2034 4750 
Q 2819 4750 3233 4129 
Q 3647 3509 3647 2328 
Q 3647 1150 3233 529 
Q 2819 -91 2034 -91 
Q 1250 -91 836 529 
Q 422 1150 422 2328 
Q 422 3509 836 4129 
Q 1250 4750 2034 4750 
z
" id="DejaVuSans-30" transform="scale(0.015625)"/>
     </defs>
     <use xlink:href="#DejaVuSans-30"/>
     <use x="63.623047" xlink:href="#DejaVuSans-25"/>
    </g>
   </g>
   <g id="text_6">
    <!-- %m/%d/%Y -->
    <g style="fill:#262626;" transform="translate(359.764068 117.428882)scale(0.11 -0.11)">
     <defs>
      <path d="M 1625 4666 
L 2156 4666 
L 531 -594 
L 0 -594 
L 1625 4666 
z
" id="DejaVuSans-2f" transform="scale(0.015625)"/>
     </defs>
     <use xlink:href="#DejaVuSans-25"/>
     <use x="95.019531" xlink:href="#DejaVuSans-6d"/>
     <use x="192.431641" xlink:href="#DejaVuSans-2f"/>
     <use x="226.123047" xlink:href="#DejaVuSans-25"/>
     <use x="321.142578" xlink:href="#DejaVuSans-64"/>
     <use x="384.619141" xlink:href="#DejaVuSans-2f"/>
     <use x="418.310547" xlink:href="#DejaVuSans-25"/>
     <use x="513.330078" xlink:href="#DejaVuSans-59"/>
    </g>
   </g>
   <g id="text_7">
    <!-- 0% -->
    <g style="fill:#262626;" transform="translate(291.973528 144.014023)scale(0.12 -0.12)">
     <use xlink:href="#DejaVuSans-30"/>
     <use x="63.623047" xlink:href="#DejaVuSans-25"/>
    </g>
   </g>
   <g id="text_8">
    <!-- %d-%b-%Y -->
    <g style="fill:#262626;" transform="translate(358.051476 113.77507)scale(0.11 -0.11)">
     <use xlink:href="#DejaVuSans-25"/>
     <use x="95.019531" xlink:href="#DejaVuSans-64"/>
     <use x="158.496094" xlink:href="#DejaVuSans-2d"/>
     <use x="194.580078" xlink:href="#DejaVuSans-25"/>
     <use x="289.599609" xlink:href="#DejaVuSans-62"/>
     <use x="353.076172" xlink:href="#DejaVuSans-2d"/>
     <use x="389.160156" xlink:href="#DejaVuSans-25"/>
     <use x="484.179688" xlink:href="#DejaVuSans-59"/>
    </g>
   </g>
   <g id="text_9">
    <!-- 0% -->
    <g style="fill:#262626;" transform="translate(291.032374 142.006072)scale(0.12 -0.12)">
     <use xlink:href="#DejaVuSans-30"/>
     <use x="63.623047" xlink:href="#DejaVuSans-25"/>
    </g>
   </g>
   <g id="text_10">
    <!-- %Y_%m -->
    <g style="fill:#262626;" transform="translate(356.235711 109.921339)scale(0.11 -0.11)">
     <defs>
      <path d="M 3263 -1063 
L 3263 -1509 
L -63 -1509 
L -63 -1063 
L 3263 -1063 
z
" id="DejaVuSans-5f" transform="scale(0.015625)"/>
     </defs>
     <use xlink:href="#DejaVuSans-25"/>
     <use x="95.019531" xlink:href="#DejaVuSans-59"/>
     <use x="156.103516" xlink:href="#DejaVuSans-5f"/>
     <use x="206.103516" xlink:href="#DejaVuSans-25"/>
     <use x="301.123047" xlink:href="#DejaVuSans-6d"/>
    </g>
   </g>
   <g id="text_11">
    <!-- 0% -->
    <g style="fill:#262626;" transform="translate(290.034521 140.025686)scale(0.12 -0.12)">
     <use xlink:href="#DejaVuSans-30"/>
     <use x="63.623047" xlink:href="#DejaVuSans-25"/>
    </g>
   </g>
   <g id="text_12">
    <!-- %Y%m%d -->
    <g style="fill:#262626;" transform="translate(354.318238 106.620838)scale(0.11 -0.11)">
     <use xlink:href="#DejaVuSans-25"/>
     <use x="95.019531" xlink:href="#DejaVuSans-59"/>
     <use x="156.103516" xlink:href="#DejaVuSans-25"/>
     <use x="251.123047" xlink:href="#DejaVuSans-6d"/>
     <use x="348.535156" xlink:href="#DejaVuSans-25"/>
     <use x="443.554688" xlink:href="#DejaVuSans-64"/>
    </g>
   </g>
   <g id="text_13">
    <!-- 0% -->
    <g style="fill:#262626;" transform="translate(288.980774 138.074467)scale(0.12 -0.12)">
     <use xlink:href="#DejaVuSans-30"/>
     <use x="63.623047" xlink:href="#DejaVuSans-25"/>
    </g>
   </g>
  </g>
 </g>
</svg>
