<?xml version="1.0" encoding="utf-8" standalone="no"?>
<!DOCTYPE svg PUBLIC "-//W3C//DTD SVG 1.1//EN"
  "http://www.w3.org/Graphics/SVG/1.1/DTD/svg11.dtd">
<svg xmlns:xlink="http://www.w3.org/1999/xlink" width="460.8pt" height="345.6pt" viewBox="0 0 460.8 345.6" xmlns="http://www.w3.org/2000/svg" version="1.1">
 <metadata>
  <rdf:RDF xmlns:dc="http://purl.org/dc/elements/1.1/" xmlns:cc="http://creativecommons.org/ns#" xmlns:rdf="http://www.w3.org/1999/02/22-rdf-syntax-ns#">
   <cc:Work>
    <dc:type rdf:resource="http://purl.org/dc/dcmitype/StillImage"/>
    <dc:date>2026-07-12T02:10:12.381504</dc:date>
    <dc:format>image/svg+xml</dc:format>
    <dc:creator>
     <cc:Agent>
      <dc:title>Matplotlib v3.11.0, https://matplotlib.org/</dc:title>
     </cc:Agent>
    </dc:creator>
   </cc:Work>
  </rdf:RDF>
 </metadata>
 <defs>
  <style type="text/css">*{stroke-linejoin: round; stroke-linecap: butt}</style>
 </defs>
 <g id="figure_1">
  <g id="patch_1">
   <path d="M 0 345.6 
L 460.8 345.6 
L 460.8 0 
L 0 0 
z
" style="fill: #ffffff"/>
  </g>
  <g id="axes_1">
   <g id="matplotlib.axis_1"/>
   <g id="matplotlib.axis_2"/>
   <g id="patch_2">
    <path d="M 339.922669 109.254197 
C 332.100541 95.705875 321.858095 83.707337 309.705232 73.85591 
C 297.552369 64.004482 283.694161 56.466401 268.820513 51.616936 
C 253.946865 46.76747 238.308761 44.688453 222.684716 45.483384 
C 207.06067 46.278314 191.714329 49.933779 177.409682 56.267797 
C 163.105035 62.601815 150.083464 71.507503 138.993224 82.541509 
C 127.902984 93.575515 118.931216 106.551646 112.524562 120.82391 
C 106.117909 135.096173 102.384479 150.423733 101.510135 166.043536 
C 100.63579 181.663339 102.635285 197.311809 107.409078 212.209917 
C 112.182871 227.108025 119.650407 241.004373 129.439929 253.207159 
C 139.229451 265.409944 151.175766 275.713252 164.68415 283.604151 
C 178.192533 291.495049 193.035039 296.840385 208.472761 299.37405 
C 223.910483 301.907715 239.682918 301.586955 255.004865 298.427739 
C 270.326813 295.268523 284.939723 289.32416 298.11612 280.89058 
C 311.292517 272.457 322.810057 261.676514 332.09536 249.085809 
C 341.380664 236.495103 348.277046 222.30664 352.441185 207.226763 
C 356.605323 192.146887 357.96695 176.430063 356.45828 160.858723 
L 229.182268 173.190197 
z
" style="fill: #4c72b0; stroke: #ffffff; stroke-linejoin: miter"/>
   </g>
   <g id="patch_3">
    <path d="M 358.924303 160.191231 
C 358.422653 155.013583 357.605526 149.871367 356.477479 144.793256 
C 355.349432 139.715146 353.912565 134.710598 352.174891 129.807519 
L 231.648292 172.522706 
z
" style="fill: #dd8452; stroke: #ffffff; stroke-linejoin: miter"/>
   </g>
   <g id="patch_4">
    <path d="M 352.118278 129.621104 
C 351.683986 128.39569 351.231031 127.176971 350.75957 125.965372 
C 350.288109 124.753772 349.798198 123.549433 349.290008 122.352775 
L 231.591679 172.336291 
z
" style="fill: #55a868; stroke: #ffffff; stroke-linejoin: miter"/>
   </g>
   <g id="patch_5">
    <path d="M 349.267553 122.298759 
C 349.013461 121.700438 348.754811 121.104064 348.491624 120.509688 
C 348.228438 119.915312 347.960723 119.322952 347.688503 118.732658 
L 231.569224 172.282274 
z
" style="fill: #c44e52; stroke: #ffffff; stroke-linejoin: miter"/>
   </g>
   <g id="patch_6">
    <path d="M 347.672171 118.697242 
C 347.399951 118.106949 347.123234 117.51874 346.842044 116.932667 
C 346.560854 116.346594 346.275199 115.762673 345.985104 115.180956 
L 231.552892 172.246858 
z
" style="fill: #8172b3; stroke: #ffffff; stroke-linejoin: miter"/>
   </g>
   <g id="patch_7">
    <path d="M 345.967699 115.146054 
C 345.677604 114.564337 345.383077 113.984841 345.084145 113.407615 
C 344.785213 112.83039 344.481883 112.255452 344.174183 111.682852 
L 231.535487 172.211957 
z
" style="fill: #937860; stroke: #ffffff; stroke-linejoin: miter"/>
   </g>
   <g id="patch_8">
    <path d="M 344.155722 111.648498 
C 343.848022 111.075898 343.53596 110.505653 343.219563 109.937812 
C 342.903167 109.369972 342.582445 108.804552 342.257426 108.241602 
L 231.517025 172.177602 
z
" style="fill: #da8bc3; stroke: #ffffff; stroke-linejoin: miter"/>
   </g>
   <g id="text_1">
    <!-- %Y-%m-%d -->
    <g style="fill: #262626" transform="translate(368.960398 144.878163) scale(0.11 -0.11)">
     <defs>
      <path id="DejaVuSans-8" d="M 4653 2053 
Q 4381 2053 4226 1822 
Q 4072 1591 4072 1178 
Q 4072 772 4226 539 
Q 4381 306 4653 306 
Q 4919 306 5073 539 
Q 5228 772 5228 1178 
Q 5228 1588 5073 1820 
Q 4919 2053 4653 2053 
z
M 4653 2450 
Q 5147 2450 5437 2106 
Q 5728 1763 5728 1178 
Q 5728 594 5436 251 
Q 5144 -91 4653 -91 
Q 4153 -91 3862 251 
Q 3572 594 3572 1178 
Q 3572 1766 3864 2108 
Q 4156 2450 4653 2450 
z
M 1428 4353 
Q 1159 4353 1004 4120 
Q 850 3888 850 3481 
Q 850 3069 1003 2837 
Q 1156 2606 1428 2606 
Q 1700 2606 1854 2837 
Q 2009 3069 2009 3481 
Q 2009 3884 1853 4118 
Q 1697 4353 1428 4353 
z
M 4250 4750 
L 4750 4750 
L 1831 -91 
L 1331 -91 
L 4250 4750 
z
M 1428 4750 
Q 1922 4750 2215 4408 
Q 2509 4066 2509 3481 
Q 2509 2891 2217 2550 
Q 1925 2209 1428 2209 
Q 931 2209 642 2551 
Q 353 2894 353 3481 
Q 353 4063 643 4406 
Q 934 4750 1428 4750 
z
" transform="scale(0.015625)"/>
      <path id="DejaVuSans-3c" d="M -13 4666 
L 666 4666 
L 1959 2747 
L 3244 4666 
L 3922 4666 
L 2272 2222 
L 2272 0 
L 1638 0 
L 1638 2222 
L -13 4666 
z
" transform="scale(0.015625)"/>
      <path id="DejaVuSans-10" d="M 313 2009 
L 1997 2009 
L 1997 1497 
L 313 1497 
L 313 2009 
z
" transform="scale(0.015625)"/>
      <path id="DejaVuSans-50" d="M 3328 2828 
Q 3544 3216 3844 3400 
Q 4144 3584 4550 3584 
Q 5097 3584 5394 3201 
Q 5691 2819 5691 2113 
L 5691 0 
L 5113 0 
L 5113 2094 
Q 5113 2597 4934 2840 
Q 4756 3084 4391 3084 
Q 3944 3084 3684 2787 
Q 3425 2491 3425 1978 
L 3425 0 
L 2847 0 
L 2847 2094 
Q 2847 2600 2669 2842 
Q 2491 3084 2119 3084 
Q 1678 3084 1418 2786 
Q 1159 2488 1159 1978 
L 1159 0 
L 581 0 
L 581 3500 
L 1159 3500 
L 1159 2956 
Q 1356 3278 1631 3431 
Q 1906 3584 2284 3584 
Q 2666 3584 2933 3390 
Q 3200 3197 3328 2828 
z
" transform="scale(0.015625)"/>
      <path id="DejaVuSans-47" d="M 2906 2969 
L 2906 4863 
L 3481 4863 
L 3481 0 
L 2906 0 
L 2906 525 
Q 2725 213 2448 61 
Q 2172 -91 1784 -91 
Q 1150 -91 751 415 
Q 353 922 353 1747 
Q 353 2572 751 3078 
Q 1150 3584 1784 3584 
Q 2172 3584 2448 3432 
Q 2725 3281 2906 2969 
z
M 947 1747 
Q 947 1113 1208 752 
Q 1469 391 1925 391 
Q 2381 391 2643 752 
Q 2906 1113 2906 1747 
Q 2906 2381 2643 2742 
Q 2381 3103 1925 3103 
Q 1469 3103 1208 2742 
Q 947 2381 947 1747 
z
" transform="scale(0.015625)"/>
     </defs>
     <use xlink:href="#DejaVuSans-8"/>
     <use xlink:href="#DejaVuSans-3c" transform="translate(95.015625 0)"/>
     <use xlink:href="#DejaVuSans-10" transform="translate(144.234375 0)"/>
     <use xlink:href="#DejaVuSans-8" transform="translate(180.3125 0)"/>
     <use xlink:href="#DejaVuSans-50" transform="translate(275.328125 0)"/>
     <use xlink:href="#DejaVuSans-10" transform="translate(372.734375 0)"/>
     <use xlink:href="#DejaVuSans-8" transform="translate(408.8125 0)"/>
     <use xlink:href="#DejaVuSans-47" transform="translate(503.828125 0)"/>
    </g>
   </g>
   <g id="text_2">
    <!-- %Y-%m -->
    <g style="fill: #262626" transform="translate(362.676359 124.185702) scale(0.11 -0.11)">
     <use xlink:href="#DejaVuSans-8"/>
     <use xlink:href="#DejaVuSans-3c" transform="translate(95.015625 0)"/>
     <use xlink:href="#DejaVuSans-10" transform="translate(144.234375 0)"/>
     <use xlink:href="#DejaVuSans-8" transform="translate(180.3125 0)"/>
     <use xlink:href="#DejaVuSans-50" transform="translate(275.328125 0)"/>
    </g>
   </g>
   <g id="text_3">
    <!-- %Y-%b -->
    <g style="fill: #262626" transform="translate(360.183864 118.190281) scale(0.11 -0.11)">
     <defs>
      <path id="DejaVuSans-45" d="M 3116 1747 
Q 3116 2381 2855 2742 
Q 2594 3103 2138 3103 
Q 1681 3103 1420 2742 
Q 1159 2381 1159 1747 
Q 1159 1113 1420 752 
Q 1681 391 2138 391 
Q 2594 391 2855 752 
Q 3116 1113 3116 1747 
z
M 1159 2969 
Q 1341 3281 1617 3432 
Q 1894 3584 2278 3584 
Q 2916 3584 3314 3078 
Q 3713 2572 3713 1747 
Q 3713 922 3314 415 
Q 2916 -91 2278 -91 
Q 1894 -91 1617 61 
Q 1341 213 1159 525 
L 1159 0 
L 581 0 
L 581 4863 
L 1159 4863 
L 1159 2969 
z
" transform="scale(0.015625)"/>
     </defs>
     <use xlink:href="#DejaVuSans-8"/>
     <use xlink:href="#DejaVuSans-3c" transform="translate(95.015625 0)"/>
     <use xlink:href="#DejaVuSans-10" transform="translate(144.234375 0)"/>
     <use xlink:href="#DejaVuSans-8" transform="translate(180.3125 0)"/>
     <use xlink:href="#DejaVuSans-45" transform="translate(275.328125 0)"/>
    </g>
   </g>
   <g id="text_4">
    <!-- %Y -->
    <g style="fill: #262626" transform="translate(358.370959 114.25867) scale(0.11 -0.11)">
     <use xlink:href="#DejaVuSans-8"/>
     <use xlink:href="#DejaVuSans-3c" transform="translate(95.015625 0)"/>
    </g>
   </g>
   <g id="text_5">
    <!-- %Y%m%d -->
    <g style="fill: #262626" transform="translate(356.439011 110.385033) scale(0.11 -0.11)">
     <use xlink:href="#DejaVuSans-8"/>
     <use xlink:href="#DejaVuSans-3c" transform="translate(95.015625 0)"/>
     <use xlink:href="#DejaVuSans-8" transform="translate(156.09375 0)"/>
     <use xlink:href="#DejaVuSans-50" transform="translate(251.109375 0)"/>
     <use xlink:href="#DejaVuSans-8" transform="translate(348.515625 0)"/>
     <use xlink:href="#DejaVuSans-47" transform="translate(443.53125 0)"/>
    </g>
   </g>
   <g id="text_6">
    <!-- %Y_%m -->
    <g style="fill: #262626" transform="translate(354.389817 106.571255) scale(0.11 -0.11)">
     <defs>
      <path id="DejaVuSans-42" d="M 3263 -1063 
L 3263 -1509 
L -63 -1509 
L -63 -1063 
L 3263 -1063 
z
" transform="scale(0.015625)"/>
     </defs>
     <use xlink:href="#DejaVuSans-8"/>
     <use xlink:href="#DejaVuSans-3c" transform="translate(95.015625 0)"/>
     <use xlink:href="#DejaVuSans-42" transform="translate(156.09375 0)"/>
     <use xlink:href="#DejaVuSans-8" transform="translate(206.09375 0)"/>
     <use xlink:href="#DejaVuSans-50" transform="translate(301.109375 0)"/>
    </g>
   </g>
   <g id="text_7">
    <!-- 93% -->
    <g style="fill: #262626" transform="translate(142.782416 199.719216) scale(0.12 -0.12)">
     <defs>
      <path id="DejaVuSans-1c" d="M 703 97 
L 703 672 
Q 941 559 1184 500 
Q 1428 441 1663 441 
Q 2288 441 2617 861 
Q 2947 1281 2994 2138 
Q 2813 1869 2534 1725 
Q 2256 1581 1919 1581 
Q 1219 1581 811 2004 
Q 403 2428 403 3163 
Q 403 3881 828 4315 
Q 1253 4750 1959 4750 
Q 2769 4750 3195 4129 
Q 3622 3509 3622 2328 
Q 3622 1225 3098 567 
Q 2575 -91 1691 -91 
Q 1453 -91 1209 -44 
Q 966 3 703 97 
z
M 1959 2075 
Q 2384 2075 2632 2365 
Q 2881 2656 2881 3163 
Q 2881 3666 2632 3958 
Q 2384 4250 1959 4250 
Q 1534 4250 1286 3958 
Q 1038 3666 1038 3163 
Q 1038 2656 1286 2365 
Q 1534 2075 1959 2075 
z
" transform="scale(0.015625)"/>
      <path id="DejaVuSans-16" d="M 2597 2516 
Q 3050 2419 3304 2112 
Q 3559 1806 3559 1356 
Q 3559 666 3084 287 
Q 2609 -91 1734 -91 
Q 1441 -91 1130 -33 
Q 819 25 488 141 
L 488 750 
Q 750 597 1062 519 
Q 1375 441 1716 441 
Q 2309 441 2620 675 
Q 2931 909 2931 1356 
Q 2931 1769 2642 2001 
Q 2353 2234 1838 2234 
L 1294 2234 
L 1294 2753 
L 1863 2753 
Q 2328 2753 2575 2939 
Q 2822 3125 2822 3475 
Q 2822 3834 2567 4026 
Q 2313 4219 1838 4219 
Q 1578 4219 1281 4162 
Q 984 4106 628 3988 
L 628 4550 
Q 988 4650 1302 4700 
Q 1616 4750 1894 4750 
Q 2613 4750 3031 4423 
Q 3450 4097 3450 3541 
Q 3450 3153 3228 2886 
Q 3006 2619 2597 2516 
z
" transform="scale(0.015625)"/>
     </defs>
     <use xlink:href="#DejaVuSans-1c"/>
     <use xlink:href="#DejaVuSans-16" transform="translate(63.625 0)"/>
     <use xlink:href="#DejaVuSans-8" transform="translate(127.25 0)"/>
    </g>
   </g>
   <g id="text_8">
    <!-- 4% -->
    <g style="fill: #262626" transform="translate(297.027367 159.002223) scale(0.12 -0.12)">
     <defs>
      <path id="DejaVuSans-17" d="M 2419 4116 
L 825 1625 
L 2419 1625 
L 2419 4116 
z
M 2253 4666 
L 3047 4666 
L 3047 1625 
L 3713 1625 
L 3713 1100 
L 3047 1100 
L 3047 0 
L 2419 0 
L 2419 1100 
L 313 1100 
L 313 1709 
L 2253 4666 
z
" transform="scale(0.015625)"/>
     </defs>
     <use xlink:href="#DejaVuSans-17"/>
     <use xlink:href="#DejaVuSans-8" transform="translate(63.625 0)"/>
    </g>
   </g>
   <g id="text_9">
    <!-- 1% -->
    <g style="fill: #262626" transform="translate(293.573976 147.630927) scale(0.12 -0.12)">
     <defs>
      <path id="DejaVuSans-14" d="M 794 531 
L 1825 531 
L 1825 4091 
L 703 3866 
L 703 4441 
L 1819 4666 
L 2450 4666 
L 2450 531 
L 3481 531 
L 3481 0 
L 794 0 
L 794 531 
z
" transform="scale(0.015625)"/>
     </defs>
     <use xlink:href="#DejaVuSans-14"/>
     <use xlink:href="#DejaVuSans-8" transform="translate(63.625 0)"/>
    </g>
   </g>
   <g id="text_10">
    <!-- 0% -->
    <g style="fill: #262626" transform="translate(292.204227 144.33591) scale(0.12 -0.12)">
     <defs>
      <path id="DejaVuSans-13" d="M 2034 4250 
Q 1547 4250 1301 3770 
Q 1056 3291 1056 2328 
Q 1056 1369 1301 889 
Q 1547 409 2034 409 
Q 2525 409 2770 889 
Q 3016 1369 3016 2328 
Q 3016 3291 2770 3770 
Q 2525 4250 2034 4250 
z
M 2034 4750 
Q 2819 4750 3233 4129 
Q 3647 3509 3647 2328 
Q 3647 1150 3233 529 
Q 2819 -91 2034 -91 
Q 1250 -91 836 529 
Q 422 1150 422 2328 
Q 422 3509 836 4129 
Q 1250 4750 2034 4750 
z
" transform="scale(0.015625)"/>
     </defs>
     <use xlink:href="#DejaVuSans-13"/>
     <use xlink:href="#DejaVuSans-8" transform="translate(63.625 0)"/>
    </g>
   </g>
   <g id="text_11">
    <!-- 0% -->
    <g style="fill: #262626" transform="translate(291.207945 142.175531) scale(0.12 -0.12)">
     <use xlink:href="#DejaVuSans-13"/>
     <use xlink:href="#DejaVuSans-8" transform="translate(63.625 0)"/>
    </g>
   </g>
   <g id="text_12">
    <!-- 0% -->
    <g style="fill: #262626" transform="translate(290.146244 140.046539) scale(0.12 -0.12)">
     <use xlink:href="#DejaVuSans-13"/>
     <use xlink:href="#DejaVuSans-8" transform="translate(63.625 0)"/>
    </g>
   </g>
   <g id="text_13">
    <!-- 0% -->
    <g style="fill: #262626" transform="translate(289.020111 137.950916) scale(0.12 -0.12)">
     <use xlink:href="#DejaVuSans-13"/>
     <use xlink:href="#DejaVuSans-8" transform="translate(63.625 0)"/>
    </g>
   </g>
  </g>
 </g>
</svg>
