<?xml version="1.0" encoding="utf-8" standalone="no"?>
<!DOCTYPE svg PUBLIC "-//W3C//DTD SVG 1.1//EN"
  "http://www.w3.org/Graphics/SVG/1.1/DTD/svg11.dtd">
<svg xmlns:xlink="http://www.w3.org/1999/xlink" width="460.8pt" height="345.6pt" viewBox="0 0 460.8 345.6" xmlns="http://www.w3.org/2000/svg" version="1.1">
 <metadata>
  <rdf:RDF xmlns:dc="http://purl.org/dc/elements/1.1/" xmlns:cc="http://creativecommons.org/ns#" xmlns:rdf="http://www.w3.org/1999/02/22-rdf-syntax-ns#">
   <cc:Work>
    <dc:type rdf:resource="http://purl.org/dc/dcmitype/StillImage"/>
    <dc:date>2022-03-03T21:53:41.503167</dc:date>
    <dc:format>image/svg+xml</dc:format>
    <dc:creator>
     <cc:Agent>
      <dc:title>Matplotlib v3.5.1, https://matplotlib.org/</dc:title>
     </cc:Agent>
    </dc:creator>
   </cc:Work>
  </rdf:RDF>
 </metadata>
 <defs>
  <style type="text/css">*{stroke-linejoin: round; stroke-linecap: butt}</style>
 </defs>
 <g id="figure_1">
  <g id="patch_1">
   <path d="M 0 345.6 
L 460.8 345.6 
L 460.8 0 
L 0 0 
z
" style="fill: #ffffff"/>
  </g>
  <g id="axes_1">
   <g id="matplotlib.axis_1"/>
   <g id="matplotlib.axis_2"/>
   <g id="patch_2">
    <path d="M 339.928817 109.272888 
C 332.065353 95.65297 321.756277 83.599872 309.520165 73.719901 
C 297.284053 63.839931 283.329575 56.301577 268.358683 51.484041 
C 253.387792 46.666505 237.655793 44.651943 221.954055 45.541695 
C 206.252316 46.431446 190.848609 50.210336 176.517784 56.688277 
C 162.186959 63.166218 149.17341 72.232736 138.131755 83.431759 
C 127.090101 94.630783 118.208642 107.771327 111.934142 122.192385 
C 105.659642 136.613443 102.099104 152.069082 101.431634 167.781839 
C 100.764163 183.494596 103.001142 199.196512 108.030046 214.097733 
C 113.058949 228.998954 120.794014 242.845361 130.846146 254.940438 
C 140.898277 267.035516 153.09605 277.172999 166.825879 284.842944 
C 180.555708 292.512888 195.583451 297.584493 211.153167 299.802641 
C 226.722883 302.020789 242.569054 301.347654 257.894569 297.817095 
C 273.220084 294.286537 287.763588 287.958764 300.7935 279.152082 
C 313.823412 270.345401 325.117526 259.209997 334.107713 246.306013 
C 343.0979 233.40203 349.630845 218.949526 353.377923 203.675507 
C 357.125 188.401488 358.022309 172.56643 356.024711 156.966883 
L 229.188416 173.208888 
L 339.928817 109.272888 
z
" style="fill: #4c72b0; stroke: #ffffff; stroke-linejoin: miter"/>
   </g>
   <g id="patch_3">
    <path d="M 358.47819 156.253329 
C 357.865104 151.465649 356.98143 146.71652 355.83141 142.028748 
C 354.68139 137.340976 353.266868 132.722077 351.594638 128.19423 
L 231.641895 172.495334 
L 358.47819 156.253329 
z
" style="fill: #dd8452; stroke: #ffffff; stroke-linejoin: miter"/>
   </g>
   <g id="patch_4">
    <path d="M 351.545881 128.038955 
C 351.336907 127.473122 351.123932 126.908776 350.906972 126.345958 
C 350.690013 125.783139 350.469073 125.221863 350.24417 124.662171 
L 231.593138 172.340059 
L 351.545881 128.038955 
z
" style="fill: #55a868; stroke: #ffffff; stroke-linejoin: miter"/>
   </g>
   <g id="patch_5">
    <path d="M 350.230677 124.628591 
C 350.005774 124.068899 349.776914 123.510806 349.544114 122.954352 
C 349.311314 122.397899 349.074579 121.8431 348.833928 121.289997 
L 231.579645 172.306479 
L 350.230677 124.628591 
z
" style="fill: #c44e52; stroke: #ffffff; stroke-linejoin: miter"/>
   </g>
   <g id="patch_6">
    <path d="M 348.819489 121.256812 
C 348.578838 120.703709 348.334277 120.152315 348.085823 119.602673 
C 347.837369 119.05303 347.585029 118.505153 347.328822 117.959081 
L 231.565206 172.273294 
L 348.819489 121.256812 
z
" style="fill: #8172b3; stroke: #ffffff; stroke-linejoin: miter"/>
   </g>
   <g id="patch_7">
    <path d="M 347.31345 117.926318 
C 347.057243 117.380247 346.797175 116.835995 346.533267 116.293603 
C 346.269358 115.751212 346.001615 115.210695 345.730057 114.672092 
L 231.549834 172.240531 
L 347.31345 117.926318 
z
" style="fill: #937860; stroke: #ffffff; stroke-linejoin: miter"/>
   </g>
   <g id="patch_8">
    <path d="M 345.713764 114.639777 
C 345.442207 114.101175 345.166842 113.564501 344.88769 113.029795 
C 344.608537 112.495089 344.325605 111.962365 344.038915 111.431663 
L 231.533541 172.208216 
L 345.713764 114.639777 
z
" style="fill: #da8bc3; stroke: #ffffff; stroke-linejoin: miter"/>
   </g>
   <g id="patch_9">
    <path d="M 344.021714 111.399822 
C 343.735023 110.86912 343.444581 110.340453 343.150409 109.813861 
C 342.856238 109.287269 342.558343 108.762766 342.256749 108.240389 
L 231.516341 172.176375 
L 344.021714 111.399822 
z
" style="fill: #8c8c8c; stroke: #ffffff; stroke-linejoin: miter"/>
   </g>
   <g id="text_1">
    <!-- 94% -->
    <g style="fill: #262626" transform="translate(144.484956 200.844382)scale(0.12 -0.12)">
     <defs>
      <path id="ArialMT-39" d="M 350 1059 
L 891 1109 
Q 959 728 1153 556 
Q 1347 384 1650 384 
Q 1909 384 2104 503 
Q 2300 622 2425 820 
Q 2550 1019 2634 1356 
Q 2719 1694 2719 2044 
Q 2719 2081 2716 2156 
Q 2547 1888 2255 1720 
Q 1963 1553 1622 1553 
Q 1053 1553 659 1965 
Q 266 2378 266 3053 
Q 266 3750 677 4175 
Q 1088 4600 1706 4600 
Q 2153 4600 2523 4359 
Q 2894 4119 3086 3673 
Q 3278 3228 3278 2384 
Q 3278 1506 3087 986 
Q 2897 466 2520 194 
Q 2144 -78 1638 -78 
Q 1100 -78 759 220 
Q 419 519 350 1059 
z
M 2653 3081 
Q 2653 3566 2395 3850 
Q 2138 4134 1775 4134 
Q 1400 4134 1122 3828 
Q 844 3522 844 3034 
Q 844 2597 1108 2323 
Q 1372 2050 1759 2050 
Q 2150 2050 2401 2323 
Q 2653 2597 2653 3081 
z
" transform="scale(0.015625)"/>
      <path id="ArialMT-34" d="M 2069 0 
L 2069 1097 
L 81 1097 
L 81 1613 
L 2172 4581 
L 2631 4581 
L 2631 1613 
L 3250 1613 
L 3250 1097 
L 2631 1097 
L 2631 0 
L 2069 0 
z
M 2069 1613 
L 2069 3678 
L 634 1613 
L 2069 1613 
z
" transform="scale(0.015625)"/>
      <path id="ArialMT-25" d="M 372 3481 
Q 372 3972 619 4315 
Q 866 4659 1334 4659 
Q 1766 4659 2048 4351 
Q 2331 4044 2331 3447 
Q 2331 2866 2045 2552 
Q 1759 2238 1341 2238 
Q 925 2238 648 2547 
Q 372 2856 372 3481 
z
M 1350 4272 
Q 1141 4272 1002 4090 
Q 863 3909 863 3425 
Q 863 2984 1003 2804 
Q 1144 2625 1350 2625 
Q 1563 2625 1702 2806 
Q 1841 2988 1841 3469 
Q 1841 3913 1700 4092 
Q 1559 4272 1350 4272 
z
M 1353 -169 
L 3859 4659 
L 4316 4659 
L 1819 -169 
L 1353 -169 
z
M 3334 1075 
Q 3334 1569 3581 1911 
Q 3828 2253 4300 2253 
Q 4731 2253 5014 1945 
Q 5297 1638 5297 1041 
Q 5297 459 5011 145 
Q 4725 -169 4303 -169 
Q 3888 -169 3611 142 
Q 3334 453 3334 1075 
z
M 4316 1866 
Q 4103 1866 3964 1684 
Q 3825 1503 3825 1019 
Q 3825 581 3965 400 
Q 4106 219 4313 219 
Q 4528 219 4667 400 
Q 4806 581 4806 1063 
Q 4806 1506 4665 1686 
Q 4525 1866 4316 1866 
z
" transform="scale(0.015625)"/>
     </defs>
     <use xlink:href="#ArialMT-39"/>
     <use xlink:href="#ArialMT-34" x="55.615234"/>
     <use xlink:href="#ArialMT-25" x="111.230469"/>
    </g>
   </g>
   <g id="text_2">
    <!-- %Y-%m-%d -->
    <g style="fill: #262626" transform="translate(368.250361 141.825762)scale(0.11 -0.11)">
     <defs>
      <path id="ArialMT-59" d="M 1784 0 
L 1784 1941 
L 19 4581 
L 756 4581 
L 1659 3200 
Q 1909 2813 2125 2425 
Q 2331 2784 2625 3234 
L 3513 4581 
L 4219 4581 
L 2391 1941 
L 2391 0 
L 1784 0 
z
" transform="scale(0.015625)"/>
      <path id="ArialMT-2d" d="M 203 1375 
L 203 1941 
L 1931 1941 
L 1931 1375 
L 203 1375 
z
" transform="scale(0.015625)"/>
      <path id="ArialMT-6d" d="M 422 0 
L 422 3319 
L 925 3319 
L 925 2853 
Q 1081 3097 1340 3245 
Q 1600 3394 1931 3394 
Q 2300 3394 2536 3241 
Q 2772 3088 2869 2813 
Q 3263 3394 3894 3394 
Q 4388 3394 4653 3120 
Q 4919 2847 4919 2278 
L 4919 0 
L 4359 0 
L 4359 2091 
Q 4359 2428 4304 2576 
Q 4250 2725 4106 2815 
Q 3963 2906 3769 2906 
Q 3419 2906 3187 2673 
Q 2956 2441 2956 1928 
L 2956 0 
L 2394 0 
L 2394 2156 
Q 2394 2531 2256 2718 
Q 2119 2906 1806 2906 
Q 1569 2906 1367 2781 
Q 1166 2656 1075 2415 
Q 984 2175 984 1722 
L 984 0 
L 422 0 
z
" transform="scale(0.015625)"/>
      <path id="ArialMT-64" d="M 2575 0 
L 2575 419 
Q 2259 -75 1647 -75 
Q 1250 -75 917 144 
Q 584 363 401 755 
Q 219 1147 219 1656 
Q 219 2153 384 2558 
Q 550 2963 881 3178 
Q 1213 3394 1622 3394 
Q 1922 3394 2156 3267 
Q 2391 3141 2538 2938 
L 2538 4581 
L 3097 4581 
L 3097 0 
L 2575 0 
z
M 797 1656 
Q 797 1019 1065 703 
Q 1334 388 1700 388 
Q 2069 388 2326 689 
Q 2584 991 2584 1609 
Q 2584 2291 2321 2609 
Q 2059 2928 1675 2928 
Q 1300 2928 1048 2622 
Q 797 2316 797 1656 
z
" transform="scale(0.015625)"/>
     </defs>
     <use xlink:href="#ArialMT-25"/>
     <use xlink:href="#ArialMT-59" x="88.916016"/>
     <use xlink:href="#ArialMT-2d" x="146.490234"/>
     <use xlink:href="#ArialMT-25" x="179.791016"/>
     <use xlink:href="#ArialMT-6d" x="268.707031"/>
     <use xlink:href="#ArialMT-2d" x="352.007812"/>
     <use xlink:href="#ArialMT-25" x="385.308594"/>
     <use xlink:href="#ArialMT-64" x="474.224609"/>
    </g>
   </g>
   <g id="text_3">
    <!-- 4% -->
    <g style="fill: #262626" transform="translate(297.483729 157.31757)scale(0.12 -0.12)">
     <use xlink:href="#ArialMT-34"/>
     <use xlink:href="#ArialMT-25" x="55.615234"/>
    </g>
   </g>
   <g id="text_4">
    <!-- %Y-%b -->
    <g style="fill: #262626" transform="translate(362.838356 124.590219)scale(0.11 -0.11)">
     <defs>
      <path id="ArialMT-62" d="M 941 0 
L 419 0 
L 419 4581 
L 981 4581 
L 981 2947 
Q 1338 3394 1891 3394 
Q 2197 3394 2470 3270 
Q 2744 3147 2920 2923 
Q 3097 2700 3197 2384 
Q 3297 2069 3297 1709 
Q 3297 856 2875 390 
Q 2453 -75 1863 -75 
Q 1275 -75 941 416 
L 941 0 
z
M 934 1684 
Q 934 1088 1097 822 
Q 1363 388 1816 388 
Q 2184 388 2453 708 
Q 2722 1028 2722 1663 
Q 2722 2313 2464 2622 
Q 2206 2931 1841 2931 
Q 1472 2931 1203 2611 
Q 934 2291 934 1684 
z
" transform="scale(0.015625)"/>
     </defs>
     <use xlink:href="#ArialMT-25"/>
     <use xlink:href="#ArialMT-59" x="88.916016"/>
     <use xlink:href="#ArialMT-2d" x="146.490234"/>
     <use xlink:href="#ArialMT-25" x="179.791016"/>
     <use xlink:href="#ArialMT-62" x="268.707031"/>
    </g>
   </g>
   <g id="text_5">
    <!-- 0% -->
    <g style="fill: #262626" transform="translate(294.509564 147.845786)scale(0.12 -0.12)">
     <defs>
      <path id="ArialMT-30" d="M 266 2259 
Q 266 3072 433 3567 
Q 600 4063 929 4331 
Q 1259 4600 1759 4600 
Q 2128 4600 2406 4451 
Q 2684 4303 2865 4023 
Q 3047 3744 3150 3342 
Q 3253 2941 3253 2259 
Q 3253 1453 3087 958 
Q 2922 463 2592 192 
Q 2263 -78 1759 -78 
Q 1097 -78 719 397 
Q 266 969 266 2259 
z
M 844 2259 
Q 844 1131 1108 757 
Q 1372 384 1759 384 
Q 2147 384 2411 759 
Q 2675 1134 2675 2259 
Q 2675 3391 2411 3762 
Q 2147 4134 1753 4134 
Q 1366 4134 1134 3806 
Q 844 3388 844 2259 
z
" transform="scale(0.015625)"/>
     </defs>
     <use xlink:href="#ArialMT-30"/>
     <use xlink:href="#ArialMT-25" x="55.615234"/>
    </g>
   </g>
   <g id="text_6">
    <!-- %Y_%m_%d -->
    <g style="fill: #262626" transform="translate(361.340561 120.929843)scale(0.11 -0.11)">
     <defs>
      <path id="ArialMT-5f" d="M -97 -1272 
L -97 -866 
L 3631 -866 
L 3631 -1272 
L -97 -1272 
z
" transform="scale(0.015625)"/>
     </defs>
     <use xlink:href="#ArialMT-25"/>
     <use xlink:href="#ArialMT-59" x="88.916016"/>
     <use xlink:href="#ArialMT-5f" x="155.615234"/>
     <use xlink:href="#ArialMT-25" x="211.230469"/>
     <use xlink:href="#ArialMT-6d" x="300.146484"/>
     <use xlink:href="#ArialMT-5f" x="383.447266"/>
     <use xlink:href="#ArialMT-25" x="439.0625"/>
     <use xlink:href="#ArialMT-64" x="527.978516"/>
    </g>
   </g>
   <g id="text_7">
    <!-- 0% -->
    <g style="fill: #262626" transform="translate(293.686451 145.79739)scale(0.12 -0.12)">
     <use xlink:href="#ArialMT-30"/>
     <use xlink:href="#ArialMT-25" x="55.615234"/>
    </g>
   </g>
   <g id="text_8">
    <!-- %d-%b-%Y -->
    <g style="fill: #262626" transform="translate(359.737884 117.179282)scale(0.11 -0.11)">
     <use xlink:href="#ArialMT-25"/>
     <use xlink:href="#ArialMT-64" x="88.916016"/>
     <use xlink:href="#ArialMT-2d" x="144.53125"/>
     <use xlink:href="#ArialMT-25" x="177.832031"/>
     <use xlink:href="#ArialMT-62" x="266.748047"/>
     <use xlink:href="#ArialMT-2d" x="322.363281"/>
     <use xlink:href="#ArialMT-25" x="355.664062"/>
     <use xlink:href="#ArialMT-59" x="444.580078"/>
    </g>
   </g>
   <g id="text_9">
    <!-- 0% -->
    <g style="fill: #262626" transform="translate(292.805701 143.773109)scale(0.12 -0.12)">
     <use xlink:href="#ArialMT-30"/>
     <use xlink:href="#ArialMT-25" x="55.615234"/>
    </g>
   </g>
   <g id="text_10">
    <!-- %Y_%m -->
    <g style="fill: #262626" transform="translate(358.03161 113.609614)scale(0.11 -0.11)">
     <use xlink:href="#ArialMT-25"/>
     <use xlink:href="#ArialMT-59" x="88.916016"/>
     <use xlink:href="#ArialMT-5f" x="155.615234"/>
     <use xlink:href="#ArialMT-25" x="211.230469"/>
     <use xlink:href="#ArialMT-6d" x="300.146484"/>
    </g>
   </g>
   <g id="text_11">
    <!-- 0% -->
    <g style="fill: #262626" transform="translate(291.868019 141.774562)scale(0.12 -0.12)">
     <use xlink:href="#ArialMT-30"/>
     <use xlink:href="#ArialMT-25" x="55.615234"/>
    </g>
   </g>
   <g id="text_12">
    <!-- %Y%m%d -->
    <g style="fill: #262626" transform="translate(356.223104 109.955625)scale(0.11 -0.11)">
     <use xlink:href="#ArialMT-25"/>
     <use xlink:href="#ArialMT-59" x="88.916016"/>
     <use xlink:href="#ArialMT-25" x="155.615234"/>
     <use xlink:href="#ArialMT-6d" x="244.53125"/>
     <use xlink:href="#ArialMT-25" x="327.832031"/>
     <use xlink:href="#ArialMT-64" x="416.748047"/>
    </g>
   </g>
   <g id="text_13">
    <!-- 0% -->
    <g style="fill: #262626" transform="translate(290.874155 139.803351)scale(0.12 -0.12)">
     <use xlink:href="#ArialMT-30"/>
     <use xlink:href="#ArialMT-25" x="55.615234"/>
    </g>
   </g>
   <g id="text_14">
    <!-- %d %b %Y -->
    <g style="fill: #262626" transform="translate(354.313816 106.421282)scale(0.11 -0.11)">
     <defs>
      <path id="ArialMT-20" transform="scale(0.015625)"/>
     </defs>
     <use xlink:href="#ArialMT-25"/>
     <use xlink:href="#ArialMT-64" x="88.916016"/>
     <use xlink:href="#ArialMT-20" x="144.53125"/>
     <use xlink:href="#ArialMT-25" x="172.314453"/>
     <use xlink:href="#ArialMT-62" x="261.230469"/>
     <use xlink:href="#ArialMT-20" x="316.845703"/>
     <use xlink:href="#ArialMT-25" x="344.628906"/>
     <use xlink:href="#ArialMT-59" x="433.544922"/>
    </g>
   </g>
   <g id="text_15">
    <!-- 0% -->
    <g style="fill: #262626" transform="translate(289.824907 137.861054)scale(0.12 -0.12)">
     <use xlink:href="#ArialMT-30"/>
     <use xlink:href="#ArialMT-25" x="55.615234"/>
    </g>
   </g>
  </g>
 </g>
</svg>
