<?xml version="1.0" encoding="utf-8" standalone="no"?>
<!DOCTYPE svg PUBLIC "-//W3C//DTD SVG 1.1//EN"
  "http://www.w3.org/Graphics/SVG/1.1/DTD/svg11.dtd">
<svg xmlns:xlink="http://www.w3.org/1999/xlink" width="460.8pt" height="345.6pt" viewBox="0 0 460.8 345.6" xmlns="http://www.w3.org/2000/svg" version="1.1">
 <metadata>
  <rdf:RDF xmlns:dc="http://purl.org/dc/elements/1.1/" xmlns:cc="http://creativecommons.org/ns#" xmlns:rdf="http://www.w3.org/1999/02/22-rdf-syntax-ns#">
   <cc:Work>
    <dc:type rdf:resource="http://purl.org/dc/dcmitype/StillImage"/>
    <dc:date>2026-03-25T01:48:25.260994</dc:date>
    <dc:format>image/svg+xml</dc:format>
    <dc:creator>
     <cc:Agent>
      <dc:title>Matplotlib v3.10.8, https://matplotlib.org/</dc:title>
     </cc:Agent>
    </dc:creator>
   </cc:Work>
  </rdf:RDF>
 </metadata>
 <defs>
  <style type="text/css">*{stroke-linejoin: round; stroke-linecap: butt}</style>
 </defs>
 <g id="figure_1">
  <g id="patch_1">
   <path d="M 0 345.6 
L 460.8 345.6 
L 460.8 0 
L 0 0 
z
" style="fill: #ffffff"/>
  </g>
  <g id="axes_1">
   <g id="matplotlib.axis_1"/>
   <g id="matplotlib.axis_2"/>
   <g id="patch_2">
    <path d="M 339.922263 109.252929 
C 332.102933 95.709452 321.864992 83.714611 309.717757 73.865125 
C 297.570522 64.015639 283.718824 56.477593 268.851758 51.625991 
C 253.984692 46.77439 238.352951 44.691041 222.734184 45.479588 
C 207.115417 46.268134 191.772993 49.91528 177.470166 56.239586 
C 163.16734 62.563892 150.14529 71.458715 139.051839 82.481557 
C 127.958389 93.504398 118.980597 106.469387 112.565094 120.73154 
C 106.14959 134.993693 102.404554 150.312517 101.516294 165.92593 
C 100.628035 181.539344 102.611529 197.184069 107.368102 212.08181 
C 112.124676 226.979551 119.574121 240.879099 129.345844 253.088977 
C 139.117566 265.298856 151.046792 275.613178 164.540064 283.518826 
C 178.033337 291.424475 192.863129 296.788143 208.291687 299.342997 
C 223.720245 301.897852 239.487408 301.600812 254.808791 298.466656 
C 270.130173 295.3325 284.74742 289.414076 297.933353 281.005815 
C 311.119286 272.597553 322.65156 261.841237 331.956465 249.271972 
C 341.26137 236.702707 348.182005 222.53244 352.374082 207.466114 
C 356.566159 192.399788 357.958989 176.691456 356.483282 161.122577 
L 229.181862 173.188929 
z
" style="fill: #4c72b0; stroke: #ffffff; stroke-linejoin: miter"/>
   </g>
   <g id="patch_3">
    <path d="M 358.950123 160.458242 
C 358.456865 155.254286 357.644971 150.085467 356.519016 144.980893 
C 355.39306 139.876317 353.955153 134.845586 352.213397 129.917021 
L 231.648703 172.524563 
z
" style="fill: #dd8452; stroke: #ffffff; stroke-linejoin: miter"/>
   </g>
   <g id="patch_4">
    <path d="M 352.156717 129.729636 
C 351.721408 128.497856 351.26725 127.272821 350.794395 126.054958 
C 350.321541 124.837095 349.830044 123.626553 349.320095 122.423755 
L 231.592024 172.337178 
z
" style="fill: #55a868; stroke: #ffffff; stroke-linejoin: miter"/>
   </g>
   <g id="patch_5">
    <path d="M 349.297564 122.36946 
C 349.042593 121.768068 348.783019 121.16867 348.518864 120.571257 
C 348.254709 119.973844 347.985965 119.378435 347.712679 118.785142 
L 231.569493 172.282883 
z
" style="fill: #c44e52; stroke: #ffffff; stroke-linejoin: miter"/>
   </g>
   <g id="patch_6">
    <path d="M 347.696283 118.749546 
C 347.422997 118.156253 347.145161 117.565032 346.86282 116.975996 
C 346.580479 116.386959 346.293642 115.800121 346.002308 115.215478 
L 231.553097 172.247287 
z
" style="fill: #8172b3; stroke: #ffffff; stroke-linejoin: miter"/>
   </g>
   <g id="patch_7">
    <path d="M 345.984828 115.180401 
C 345.693494 114.59577 345.397693 114.01338 345.097434 113.433279 
C 344.797174 112.853179 344.492479 112.275388 344.183371 111.69996 
L 231.535618 172.21221 
z
" style="fill: #937860; stroke: #ffffff; stroke-linejoin: miter"/>
   </g>
   <g id="patch_8">
    <path d="M 344.164825 111.665436 
C 343.855709 111.089989 343.54218 110.516919 343.224276 109.946278 
C 342.906372 109.375636 342.584109 108.807434 342.257501 108.241731 
L 231.517072 172.177685 
z
" style="fill: #da8bc3; stroke: #ffffff; stroke-linejoin: miter"/>
   </g>
   <g id="text_1">
    <!-- 93% -->
    <g style="fill: #262626" transform="translate(142.75767 199.835913) scale(0.12 -0.12)">
     <defs>
      <path id="DejaVuSans-39" d="M 703 97 
L 703 672 
Q 941 559 1184 500 
Q 1428 441 1663 441 
Q 2288 441 2617 861 
Q 2947 1281 2994 2138 
Q 2813 1869 2534 1725 
Q 2256 1581 1919 1581 
Q 1219 1581 811 2004 
Q 403 2428 403 3163 
Q 403 3881 828 4315 
Q 1253 4750 1959 4750 
Q 2769 4750 3195 4129 
Q 3622 3509 3622 2328 
Q 3622 1225 3098 567 
Q 2575 -91 1691 -91 
Q 1453 -91 1209 -44 
Q 966 3 703 97 
z
M 1959 2075 
Q 2384 2075 2632 2365 
Q 2881 2656 2881 3163 
Q 2881 3666 2632 3958 
Q 2384 4250 1959 4250 
Q 1534 4250 1286 3958 
Q 1038 3666 1038 3163 
Q 1038 2656 1286 2365 
Q 1534 2075 1959 2075 
z
" transform="scale(0.015625)"/>
      <path id="DejaVuSans-33" d="M 2597 2516 
Q 3050 2419 3304 2112 
Q 3559 1806 3559 1356 
Q 3559 666 3084 287 
Q 2609 -91 1734 -91 
Q 1441 -91 1130 -33 
Q 819 25 488 141 
L 488 750 
Q 750 597 1062 519 
Q 1375 441 1716 441 
Q 2309 441 2620 675 
Q 2931 909 2931 1356 
Q 2931 1769 2642 2001 
Q 2353 2234 1838 2234 
L 1294 2234 
L 1294 2753 
L 1863 2753 
Q 2328 2753 2575 2939 
Q 2822 3125 2822 3475 
Q 2822 3834 2567 4026 
Q 2313 4219 1838 4219 
Q 1578 4219 1281 4162 
Q 984 4106 628 3988 
L 628 4550 
Q 988 4650 1302 4700 
Q 1616 4750 1894 4750 
Q 2613 4750 3031 4423 
Q 3450 4097 3450 3541 
Q 3450 3153 3228 2886 
Q 3006 2619 2597 2516 
z
" transform="scale(0.015625)"/>
      <path id="DejaVuSans-25" d="M 4653 2053 
Q 4381 2053 4226 1822 
Q 4072 1591 4072 1178 
Q 4072 772 4226 539 
Q 4381 306 4653 306 
Q 4919 306 5073 539 
Q 5228 772 5228 1178 
Q 5228 1588 5073 1820 
Q 4919 2053 4653 2053 
z
M 4653 2450 
Q 5147 2450 5437 2106 
Q 5728 1763 5728 1178 
Q 5728 594 5436 251 
Q 5144 -91 4653 -91 
Q 4153 -91 3862 251 
Q 3572 594 3572 1178 
Q 3572 1766 3864 2108 
Q 4156 2450 4653 2450 
z
M 1428 4353 
Q 1159 4353 1004 4120 
Q 850 3888 850 3481 
Q 850 3069 1003 2837 
Q 1156 2606 1428 2606 
Q 1700 2606 1854 2837 
Q 2009 3069 2009 3481 
Q 2009 3884 1853 4118 
Q 1697 4353 1428 4353 
z
M 4250 4750 
L 4750 4750 
L 1831 -91 
L 1331 -91 
L 4250 4750 
z
M 1428 4750 
Q 1922 4750 2215 4408 
Q 2509 4066 2509 3481 
Q 2509 2891 2217 2550 
Q 1925 2209 1428 2209 
Q 931 2209 642 2551 
Q 353 2894 353 3481 
Q 353 4063 643 4406 
Q 934 4750 1428 4750 
z
" transform="scale(0.015625)"/>
     </defs>
     <use xlink:href="#DejaVuSans-39"/>
     <use xlink:href="#DejaVuSans-33" transform="translate(63.623047 0)"/>
     <use xlink:href="#DejaVuSans-25" transform="translate(127.246094 0)"/>
    </g>
   </g>
   <g id="text_2">
    <!-- %Y-%m-%d -->
    <g style="fill: #262626" transform="translate(369.006046 145.26184) scale(0.11 -0.11)">
     <defs>
      <path id="DejaVuSans-59" d="M -13 4666 
L 666 4666 
L 1959 2747 
L 3244 4666 
L 3922 4666 
L 2272 2222 
L 2272 0 
L 1638 0 
L 1638 2222 
L -13 4666 
z
" transform="scale(0.015625)"/>
      <path id="DejaVuSans-2d" d="M 313 2009 
L 1997 2009 
L 1997 1497 
L 313 1497 
L 313 2009 
z
" transform="scale(0.015625)"/>
      <path id="DejaVuSans-6d" d="M 3328 2828 
Q 3544 3216 3844 3400 
Q 4144 3584 4550 3584 
Q 5097 3584 5394 3201 
Q 5691 2819 5691 2113 
L 5691 0 
L 5113 0 
L 5113 2094 
Q 5113 2597 4934 2840 
Q 4756 3084 4391 3084 
Q 3944 3084 3684 2787 
Q 3425 2491 3425 1978 
L 3425 0 
L 2847 0 
L 2847 2094 
Q 2847 2600 2669 2842 
Q 2491 3084 2119 3084 
Q 1678 3084 1418 2786 
Q 1159 2488 1159 1978 
L 1159 0 
L 581 0 
L 581 3500 
L 1159 3500 
L 1159 2956 
Q 1356 3278 1631 3431 
Q 1906 3584 2284 3584 
Q 2666 3584 2933 3390 
Q 3200 3197 3328 2828 
z
" transform="scale(0.015625)"/>
      <path id="DejaVuSans-64" d="M 2906 2969 
L 2906 4863 
L 3481 4863 
L 3481 0 
L 2906 0 
L 2906 525 
Q 2725 213 2448 61 
Q 2172 -91 1784 -91 
Q 1150 -91 751 415 
Q 353 922 353 1747 
Q 353 2572 751 3078 
Q 1150 3584 1784 3584 
Q 2172 3584 2448 3432 
Q 2725 3281 2906 2969 
z
M 947 1747 
Q 947 1113 1208 752 
Q 1469 391 1925 391 
Q 2381 391 2643 752 
Q 2906 1113 2906 1747 
Q 2906 2381 2643 2742 
Q 2381 3103 1925 3103 
Q 1469 3103 1208 2742 
Q 947 2381 947 1747 
z
" transform="scale(0.015625)"/>
     </defs>
     <use xlink:href="#DejaVuSans-25"/>
     <use xlink:href="#DejaVuSans-59" transform="translate(95.019531 0)"/>
     <use xlink:href="#DejaVuSans-2d" transform="translate(144.228516 0)"/>
     <use xlink:href="#DejaVuSans-25" transform="translate(180.3125 0)"/>
     <use xlink:href="#DejaVuSans-6d" transform="translate(275.332031 0)"/>
     <use xlink:href="#DejaVuSans-2d" transform="translate(372.744141 0)"/>
     <use xlink:href="#DejaVuSans-25" transform="translate(408.828125 0)"/>
     <use xlink:href="#DejaVuSans-64" transform="translate(503.847656 0)"/>
    </g>
   </g>
   <g id="text_3">
    <!-- 4% -->
    <g style="fill: #262626" transform="translate(297.052452 159.309612) scale(0.12 -0.12)">
     <defs>
      <path id="DejaVuSans-34" d="M 2419 4116 
L 825 1625 
L 2419 1625 
L 2419 4116 
z
M 2253 4666 
L 3047 4666 
L 3047 1625 
L 3713 1625 
L 3713 1100 
L 3047 1100 
L 3047 0 
L 2419 0 
L 2419 1100 
L 313 1100 
L 313 1709 
L 2253 4666 
z
" transform="scale(0.015625)"/>
     </defs>
     <use xlink:href="#DejaVuSans-34"/>
     <use xlink:href="#DejaVuSans-25" transform="translate(63.623047 0)"/>
    </g>
   </g>
   <g id="text_4">
    <!-- %Y-%m -->
    <g style="fill: #262626" transform="translate(362.714629 124.462049) scale(0.11 -0.11)">
     <use xlink:href="#DejaVuSans-25"/>
     <use xlink:href="#DejaVuSans-59" transform="translate(95.019531 0)"/>
     <use xlink:href="#DejaVuSans-2d" transform="translate(144.228516 0)"/>
     <use xlink:href="#DejaVuSans-25" transform="translate(180.3125 0)"/>
     <use xlink:href="#DejaVuSans-6d" transform="translate(275.332031 0)"/>
    </g>
   </g>
   <g id="text_5">
    <!-- 1% -->
    <g style="fill: #262626" transform="translate(293.595007 147.879096) scale(0.12 -0.12)">
     <defs>
      <path id="DejaVuSans-31" d="M 794 531 
L 1825 531 
L 1825 4091 
L 703 3866 
L 703 4441 
L 1819 4666 
L 2450 4666 
L 2450 531 
L 3481 531 
L 3481 0 
L 794 0 
L 794 531 
z
" transform="scale(0.015625)"/>
     </defs>
     <use xlink:href="#DejaVuSans-31"/>
     <use xlink:href="#DejaVuSans-25" transform="translate(63.623047 0)"/>
    </g>
   </g>
   <g id="text_6">
    <!-- %Y_%m -->
    <g style="fill: #262626" transform="translate(360.213778 118.185268) scale(0.11 -0.11)">
     <defs>
      <path id="DejaVuSans-5f" d="M 3263 -1063 
L 3263 -1509 
L -63 -1509 
L -63 -1063 
L 3263 -1063 
z
" transform="scale(0.015625)"/>
     </defs>
     <use xlink:href="#DejaVuSans-25"/>
     <use xlink:href="#DejaVuSans-59" transform="translate(95.019531 0)"/>
     <use xlink:href="#DejaVuSans-5f" transform="translate(156.103516 0)"/>
     <use xlink:href="#DejaVuSans-25" transform="translate(206.103516 0)"/>
     <use xlink:href="#DejaVuSans-6d" transform="translate(301.123047 0)"/>
    </g>
   </g>
   <g id="text_7">
    <!-- 0% -->
    <g style="fill: #262626" transform="translate(292.220666 144.567124) scale(0.12 -0.12)">
     <defs>
      <path id="DejaVuSans-30" d="M 2034 4250 
Q 1547 4250 1301 3770 
Q 1056 3291 1056 2328 
Q 1056 1369 1301 889 
Q 1547 409 2034 409 
Q 2525 409 2770 889 
Q 3016 1369 3016 2328 
Q 3016 3291 2770 3770 
Q 2525 4250 2034 4250 
z
M 2034 4750 
Q 2819 4750 3233 4129 
Q 3647 3509 3647 2328 
Q 3647 1150 3233 529 
Q 2819 -91 2034 -91 
Q 1250 -91 836 529 
Q 422 1150 422 2328 
Q 422 3509 836 4129 
Q 1250 4750 2034 4750 
z
" transform="scale(0.015625)"/>
     </defs>
     <use xlink:href="#DejaVuSans-30"/>
     <use xlink:href="#DejaVuSans-25" transform="translate(63.623047 0)"/>
    </g>
   </g>
   <g id="text_8">
    <!-- %Y -->
    <g style="fill: #262626" transform="translate(358.393795 114.484179) scale(0.11 -0.11)">
     <use xlink:href="#DejaVuSans-25"/>
     <use xlink:href="#DejaVuSans-59" transform="translate(95.019531 0)"/>
    </g>
   </g>
   <g id="text_9">
    <!-- 0% -->
    <g style="fill: #262626" transform="translate(291.220495 142.395762) scale(0.12 -0.12)">
     <use xlink:href="#DejaVuSans-30"/>
     <use xlink:href="#DejaVuSans-25" transform="translate(63.623047 0)"/>
    </g>
   </g>
   <g id="text_10">
    <!-- %Y-%b -->
    <g style="fill: #262626" transform="translate(356.453584 110.590641) scale(0.11 -0.11)">
     <defs>
      <path id="DejaVuSans-62" d="M 3116 1747 
Q 3116 2381 2855 2742 
Q 2594 3103 2138 3103 
Q 1681 3103 1420 2742 
Q 1159 2381 1159 1747 
Q 1159 1113 1420 752 
Q 1681 391 2138 391 
Q 2594 391 2855 752 
Q 3116 1113 3116 1747 
z
M 1159 2969 
Q 1341 3281 1617 3432 
Q 1894 3584 2278 3584 
Q 2916 3584 3314 3078 
Q 3713 2572 3713 1747 
Q 3713 922 3314 415 
Q 2916 -91 2278 -91 
Q 1894 -91 1617 61 
Q 1341 213 1159 525 
L 1159 0 
L 581 0 
L 581 4863 
L 1159 4863 
L 1159 2969 
z
" transform="scale(0.015625)"/>
     </defs>
     <use xlink:href="#DejaVuSans-25"/>
     <use xlink:href="#DejaVuSans-59" transform="translate(95.019531 0)"/>
     <use xlink:href="#DejaVuSans-2d" transform="translate(144.228516 0)"/>
     <use xlink:href="#DejaVuSans-25" transform="translate(180.3125 0)"/>
     <use xlink:href="#DejaVuSans-62" transform="translate(275.332031 0)"/>
    </g>
   </g>
   <g id="text_11">
    <!-- 0% -->
    <g style="fill: #262626" transform="translate(290.154253 140.25607) scale(0.12 -0.12)">
     <use xlink:href="#DejaVuSans-30"/>
     <use xlink:href="#DejaVuSans-25" transform="translate(63.623047 0)"/>
    </g>
   </g>
   <g id="text_12">
    <!-- %Y%m%d -->
    <g style="fill: #262626" transform="translate(354.394967 106.75839) scale(0.11 -0.11)">
     <use xlink:href="#DejaVuSans-25"/>
     <use xlink:href="#DejaVuSans-59" transform="translate(95.019531 0)"/>
     <use xlink:href="#DejaVuSans-25" transform="translate(156.103516 0)"/>
     <use xlink:href="#DejaVuSans-6d" transform="translate(251.123047 0)"/>
     <use xlink:href="#DejaVuSans-25" transform="translate(348.535156 0)"/>
     <use xlink:href="#DejaVuSans-64" transform="translate(443.554688 0)"/>
    </g>
   </g>
   <g id="text_13">
    <!-- 0% -->
    <g style="fill: #262626" transform="translate(289.022941 138.150058) scale(0.12 -0.12)">
     <use xlink:href="#DejaVuSans-30"/>
     <use xlink:href="#DejaVuSans-25" transform="translate(63.623047 0)"/>
    </g>
   </g>
  </g>
 </g>
</svg>
