<?xml version="1.0" encoding="utf-8" standalone="no"?>
<!DOCTYPE svg PUBLIC "-//W3C//DTD SVG 1.1//EN"
  "http://www.w3.org/Graphics/SVG/1.1/DTD/svg11.dtd">
<svg xmlns:xlink="http://www.w3.org/1999/xlink" width="460.8pt" height="345.6pt" viewBox="0 0 460.8 345.6" xmlns="http://www.w3.org/2000/svg" version="1.1">
 <metadata>
  <rdf:RDF xmlns:dc="http://purl.org/dc/elements/1.1/" xmlns:cc="http://creativecommons.org/ns#" xmlns:rdf="http://www.w3.org/1999/02/22-rdf-syntax-ns#">
   <cc:Work>
    <dc:type rdf:resource="http://purl.org/dc/dcmitype/StillImage"/>
    <dc:date>2022-05-25T01:14:56.722395</dc:date>
    <dc:format>image/svg+xml</dc:format>
    <dc:creator>
     <cc:Agent>
      <dc:title>Matplotlib v3.5.2, https://matplotlib.org/</dc:title>
     </cc:Agent>
    </dc:creator>
   </cc:Work>
  </rdf:RDF>
 </metadata>
 <defs>
  <style type="text/css">*{stroke-linejoin: round; stroke-linecap: butt}</style>
 </defs>
 <g id="figure_1">
  <g id="patch_1">
   <path d="M 0 345.6 
L 460.8 345.6 
L 460.8 0 
L 0 0 
z
" style="fill: #ffffff"/>
  </g>
  <g id="axes_1">
   <g id="matplotlib.axis_1"/>
   <g id="matplotlib.axis_2"/>
   <g id="patch_2">
    <path d="M 339.928817 109.272888 
C 332.065353 95.65297 321.756277 83.599872 309.520165 73.719901 
C 297.284053 63.839931 283.329575 56.301577 268.358683 51.484041 
C 253.387792 46.666505 237.655793 44.651943 221.954055 45.541695 
C 206.252316 46.431446 190.848609 50.210336 176.517784 56.688277 
C 162.186959 63.166218 149.17341 72.232736 138.131755 83.431759 
C 127.090101 94.630783 118.208642 107.771327 111.934142 122.192385 
C 105.659642 136.613443 102.099104 152.069082 101.431634 167.781839 
C 100.764163 183.494596 103.001142 199.196512 108.030046 214.097733 
C 113.058949 228.998954 120.794014 242.845361 130.846146 254.940438 
C 140.898277 267.035516 153.09605 277.172999 166.825879 284.842944 
C 180.555708 292.512888 195.583451 297.584493 211.153167 299.802641 
C 226.722883 302.020789 242.569054 301.347654 257.894569 297.817095 
C 273.220084 294.286537 287.763588 287.958764 300.7935 279.152082 
C 313.823412 270.345401 325.117526 259.209997 334.107713 246.306013 
C 343.0979 233.40203 349.630845 218.949526 353.377923 203.675507 
C 357.125 188.401488 358.022309 172.56643 356.024711 156.966883 
L 229.188416 173.208888 
L 339.928817 109.272888 
z
" style="fill: #4c72b0; stroke: #ffffff; stroke-linejoin: miter"/>
   </g>
   <g id="patch_3">
    <path d="M 358.47819 156.253329 
C 357.865104 151.465649 356.98143 146.71652 355.83141 142.028748 
C 354.68139 137.340976 353.266868 132.722077 351.594638 128.19423 
L 231.641895 172.495334 
L 358.47819 156.253329 
z
" style="fill: #dd8452; stroke: #ffffff; stroke-linejoin: miter"/>
   </g>
   <g id="patch_4">
    <path d="M 351.545881 128.038955 
C 351.336907 127.473122 351.123932 126.908776 350.906972 126.345958 
C 350.690013 125.783139 350.469073 125.221863 350.24417 124.662171 
L 231.593138 172.340059 
L 351.545881 128.038955 
z
" style="fill: #55a868; stroke: #ffffff; stroke-linejoin: miter"/>
   </g>
   <g id="patch_5">
    <path d="M 350.230677 124.628591 
C 350.005774 124.068899 349.776914 123.510806 349.544114 122.954352 
C 349.311314 122.397899 349.074579 121.8431 348.833928 121.289997 
L 231.579645 172.306479 
L 350.230677 124.628591 
z
" style="fill: #c44e52; stroke: #ffffff; stroke-linejoin: miter"/>
   </g>
   <g id="patch_6">
    <path d="M 348.819489 121.256812 
C 348.578838 120.703709 348.334277 120.152315 348.085823 119.602673 
C 347.837369 119.05303 347.585029 118.505153 347.328822 117.959081 
L 231.565206 172.273294 
L 348.819489 121.256812 
z
" style="fill: #8172b3; stroke: #ffffff; stroke-linejoin: miter"/>
   </g>
   <g id="patch_7">
    <path d="M 347.31345 117.926318 
C 347.057243 117.380247 346.797175 116.835995 346.533267 116.293603 
C 346.269358 115.751212 346.001615 115.210695 345.730057 114.672092 
L 231.549834 172.240531 
L 347.31345 117.926318 
z
" style="fill: #937860; stroke: #ffffff; stroke-linejoin: miter"/>
   </g>
   <g id="patch_8">
    <path d="M 345.713764 114.639777 
C 345.442207 114.101175 345.166842 113.564501 344.88769 113.029795 
C 344.608537 112.495089 344.325605 111.962365 344.038915 111.431663 
L 231.533541 172.208216 
L 345.713764 114.639777 
z
" style="fill: #da8bc3; stroke: #ffffff; stroke-linejoin: miter"/>
   </g>
   <g id="patch_9">
    <path d="M 344.021714 111.399822 
C 343.735023 110.86912 343.444581 110.340453 343.150409 109.813861 
C 342.856238 109.287269 342.558343 108.762766 342.256749 108.240389 
L 231.516341 172.176375 
L 344.021714 111.399822 
z
" style="fill: #8c8c8c; stroke: #ffffff; stroke-linejoin: miter"/>
   </g>
   <g id="text_1">
    <!-- 94% -->
    <g style="fill: #262626" transform="translate(143.157456 201.053445)scale(0.12 -0.12)">
     <defs>
      <path id="DejaVuSans-39" d="M 703 97 
L 703 672 
Q 941 559 1184 500 
Q 1428 441 1663 441 
Q 2288 441 2617 861 
Q 2947 1281 2994 2138 
Q 2813 1869 2534 1725 
Q 2256 1581 1919 1581 
Q 1219 1581 811 2004 
Q 403 2428 403 3163 
Q 403 3881 828 4315 
Q 1253 4750 1959 4750 
Q 2769 4750 3195 4129 
Q 3622 3509 3622 2328 
Q 3622 1225 3098 567 
Q 2575 -91 1691 -91 
Q 1453 -91 1209 -44 
Q 966 3 703 97 
z
M 1959 2075 
Q 2384 2075 2632 2365 
Q 2881 2656 2881 3163 
Q 2881 3666 2632 3958 
Q 2384 4250 1959 4250 
Q 1534 4250 1286 3958 
Q 1038 3666 1038 3163 
Q 1038 2656 1286 2365 
Q 1534 2075 1959 2075 
z
" transform="scale(0.015625)"/>
      <path id="DejaVuSans-34" d="M 2419 4116 
L 825 1625 
L 2419 1625 
L 2419 4116 
z
M 2253 4666 
L 3047 4666 
L 3047 1625 
L 3713 1625 
L 3713 1100 
L 3047 1100 
L 3047 0 
L 2419 0 
L 2419 1100 
L 313 1100 
L 313 1709 
L 2253 4666 
z
" transform="scale(0.015625)"/>
      <path id="DejaVuSans-25" d="M 4653 2053 
Q 4381 2053 4226 1822 
Q 4072 1591 4072 1178 
Q 4072 772 4226 539 
Q 4381 306 4653 306 
Q 4919 306 5073 539 
Q 5228 772 5228 1178 
Q 5228 1588 5073 1820 
Q 4919 2053 4653 2053 
z
M 4653 2450 
Q 5147 2450 5437 2106 
Q 5728 1763 5728 1178 
Q 5728 594 5436 251 
Q 5144 -91 4653 -91 
Q 4153 -91 3862 251 
Q 3572 594 3572 1178 
Q 3572 1766 3864 2108 
Q 4156 2450 4653 2450 
z
M 1428 4353 
Q 1159 4353 1004 4120 
Q 850 3888 850 3481 
Q 850 3069 1003 2837 
Q 1156 2606 1428 2606 
Q 1700 2606 1854 2837 
Q 2009 3069 2009 3481 
Q 2009 3884 1853 4118 
Q 1697 4353 1428 4353 
z
M 4250 4750 
L 4750 4750 
L 1831 -91 
L 1331 -91 
L 4250 4750 
z
M 1428 4750 
Q 1922 4750 2215 4408 
Q 2509 4066 2509 3481 
Q 2509 2891 2217 2550 
Q 1925 2209 1428 2209 
Q 931 2209 642 2551 
Q 353 2894 353 3481 
Q 353 4063 643 4406 
Q 934 4750 1428 4750 
z
" transform="scale(0.015625)"/>
     </defs>
     <use xlink:href="#DejaVuSans-39"/>
     <use xlink:href="#DejaVuSans-34" x="63.623047"/>
     <use xlink:href="#DejaVuSans-25" x="127.246094"/>
    </g>
   </g>
   <g id="text_2">
    <!-- %Y-%m-%d -->
    <g style="fill: #262626" transform="translate(368.250361 142.017402)scale(0.11 -0.11)">
     <defs>
      <path id="DejaVuSans-59" d="M -13 4666 
L 666 4666 
L 1959 2747 
L 3244 4666 
L 3922 4666 
L 2272 2222 
L 2272 0 
L 1638 0 
L 1638 2222 
L -13 4666 
z
" transform="scale(0.015625)"/>
      <path id="DejaVuSans-2d" d="M 313 2009 
L 1997 2009 
L 1997 1497 
L 313 1497 
L 313 2009 
z
" transform="scale(0.015625)"/>
      <path id="DejaVuSans-6d" d="M 3328 2828 
Q 3544 3216 3844 3400 
Q 4144 3584 4550 3584 
Q 5097 3584 5394 3201 
Q 5691 2819 5691 2113 
L 5691 0 
L 5113 0 
L 5113 2094 
Q 5113 2597 4934 2840 
Q 4756 3084 4391 3084 
Q 3944 3084 3684 2787 
Q 3425 2491 3425 1978 
L 3425 0 
L 2847 0 
L 2847 2094 
Q 2847 2600 2669 2842 
Q 2491 3084 2119 3084 
Q 1678 3084 1418 2786 
Q 1159 2488 1159 1978 
L 1159 0 
L 581 0 
L 581 3500 
L 1159 3500 
L 1159 2956 
Q 1356 3278 1631 3431 
Q 1906 3584 2284 3584 
Q 2666 3584 2933 3390 
Q 3200 3197 3328 2828 
z
" transform="scale(0.015625)"/>
      <path id="DejaVuSans-64" d="M 2906 2969 
L 2906 4863 
L 3481 4863 
L 3481 0 
L 2906 0 
L 2906 525 
Q 2725 213 2448 61 
Q 2172 -91 1784 -91 
Q 1150 -91 751 415 
Q 353 922 353 1747 
Q 353 2572 751 3078 
Q 1150 3584 1784 3584 
Q 2172 3584 2448 3432 
Q 2725 3281 2906 2969 
z
M 947 1747 
Q 947 1113 1208 752 
Q 1469 391 1925 391 
Q 2381 391 2643 752 
Q 2906 1113 2906 1747 
Q 2906 2381 2643 2742 
Q 2381 3103 1925 3103 
Q 1469 3103 1208 2742 
Q 947 2381 947 1747 
z
" transform="scale(0.015625)"/>
     </defs>
     <use xlink:href="#DejaVuSans-25"/>
     <use xlink:href="#DejaVuSans-59" x="95.019531"/>
     <use xlink:href="#DejaVuSans-2d" x="144.228516"/>
     <use xlink:href="#DejaVuSans-25" x="180.3125"/>
     <use xlink:href="#DejaVuSans-6d" x="275.332031"/>
     <use xlink:href="#DejaVuSans-2d" x="372.744141"/>
     <use xlink:href="#DejaVuSans-25" x="408.828125"/>
     <use xlink:href="#DejaVuSans-64" x="503.847656"/>
    </g>
   </g>
   <g id="text_3">
    <!-- 4% -->
    <g style="fill: #262626" transform="translate(296.637166 157.526633)scale(0.12 -0.12)">
     <use xlink:href="#DejaVuSans-34"/>
     <use xlink:href="#DejaVuSans-25" x="63.623047"/>
    </g>
   </g>
   <g id="text_4">
    <!-- %Y-%b -->
    <g style="fill: #262626" transform="translate(362.838356 124.78186)scale(0.11 -0.11)">
     <defs>
      <path id="DejaVuSans-62" d="M 3116 1747 
Q 3116 2381 2855 2742 
Q 2594 3103 2138 3103 
Q 1681 3103 1420 2742 
Q 1159 2381 1159 1747 
Q 1159 1113 1420 752 
Q 1681 391 2138 391 
Q 2594 391 2855 752 
Q 3116 1113 3116 1747 
z
M 1159 2969 
Q 1341 3281 1617 3432 
Q 1894 3584 2278 3584 
Q 2916 3584 3314 3078 
Q 3713 2572 3713 1747 
Q 3713 922 3314 415 
Q 2916 -91 2278 -91 
Q 1894 -91 1617 61 
Q 1341 213 1159 525 
L 1159 0 
L 581 0 
L 581 4863 
L 1159 4863 
L 1159 2969 
z
" transform="scale(0.015625)"/>
     </defs>
     <use xlink:href="#DejaVuSans-25"/>
     <use xlink:href="#DejaVuSans-59" x="95.019531"/>
     <use xlink:href="#DejaVuSans-2d" x="144.228516"/>
     <use xlink:href="#DejaVuSans-25" x="180.3125"/>
     <use xlink:href="#DejaVuSans-62" x="275.332031"/>
    </g>
   </g>
   <g id="text_5">
    <!-- 0% -->
    <g style="fill: #262626" transform="translate(293.663001 148.054848)scale(0.12 -0.12)">
     <defs>
      <path id="DejaVuSans-30" d="M 2034 4250 
Q 1547 4250 1301 3770 
Q 1056 3291 1056 2328 
Q 1056 1369 1301 889 
Q 1547 409 2034 409 
Q 2525 409 2770 889 
Q 3016 1369 3016 2328 
Q 3016 3291 2770 3770 
Q 2525 4250 2034 4250 
z
M 2034 4750 
Q 2819 4750 3233 4129 
Q 3647 3509 3647 2328 
Q 3647 1150 3233 529 
Q 2819 -91 2034 -91 
Q 1250 -91 836 529 
Q 422 1150 422 2328 
Q 422 3509 836 4129 
Q 1250 4750 2034 4750 
z
" transform="scale(0.015625)"/>
     </defs>
     <use xlink:href="#DejaVuSans-30"/>
     <use xlink:href="#DejaVuSans-25" x="63.623047"/>
    </g>
   </g>
   <g id="text_6">
    <!-- %Y_%m_%d -->
    <g style="fill: #262626" transform="translate(361.340561 120.901483)scale(0.11 -0.11)">
     <defs>
      <path id="DejaVuSans-5f" d="M 3263 -1063 
L 3263 -1509 
L -63 -1509 
L -63 -1063 
L 3263 -1063 
z
" transform="scale(0.015625)"/>
     </defs>
     <use xlink:href="#DejaVuSans-25"/>
     <use xlink:href="#DejaVuSans-59" x="95.019531"/>
     <use xlink:href="#DejaVuSans-5f" x="156.103516"/>
     <use xlink:href="#DejaVuSans-25" x="206.103516"/>
     <use xlink:href="#DejaVuSans-6d" x="301.123047"/>
     <use xlink:href="#DejaVuSans-5f" x="398.535156"/>
     <use xlink:href="#DejaVuSans-25" x="448.535156"/>
     <use xlink:href="#DejaVuSans-64" x="543.554688"/>
    </g>
   </g>
   <g id="text_7">
    <!-- 0% -->
    <g style="fill: #262626" transform="translate(292.839889 146.006453)scale(0.12 -0.12)">
     <use xlink:href="#DejaVuSans-30"/>
     <use xlink:href="#DejaVuSans-25" x="63.623047"/>
    </g>
   </g>
   <g id="text_8">
    <!-- %d-%b-%Y -->
    <g style="fill: #262626" transform="translate(359.737884 117.370923)scale(0.11 -0.11)">
     <use xlink:href="#DejaVuSans-25"/>
     <use xlink:href="#DejaVuSans-64" x="95.019531"/>
     <use xlink:href="#DejaVuSans-2d" x="158.496094"/>
     <use xlink:href="#DejaVuSans-25" x="194.580078"/>
     <use xlink:href="#DejaVuSans-62" x="289.599609"/>
     <use xlink:href="#DejaVuSans-2d" x="353.076172"/>
     <use xlink:href="#DejaVuSans-25" x="389.160156"/>
     <use xlink:href="#DejaVuSans-59" x="484.179688"/>
    </g>
   </g>
   <g id="text_9">
    <!-- 0% -->
    <g style="fill: #262626" transform="translate(291.959139 143.982171)scale(0.12 -0.12)">
     <use xlink:href="#DejaVuSans-30"/>
     <use xlink:href="#DejaVuSans-25" x="63.623047"/>
    </g>
   </g>
   <g id="text_10">
    <!-- %Y_%m -->
    <g style="fill: #262626" transform="translate(358.03161 113.484145)scale(0.11 -0.11)">
     <use xlink:href="#DejaVuSans-25"/>
     <use xlink:href="#DejaVuSans-59" x="95.019531"/>
     <use xlink:href="#DejaVuSans-5f" x="156.103516"/>
     <use xlink:href="#DejaVuSans-25" x="206.103516"/>
     <use xlink:href="#DejaVuSans-6d" x="301.123047"/>
    </g>
   </g>
   <g id="text_11">
    <!-- 0% -->
    <g style="fill: #262626" transform="translate(291.021456 141.983624)scale(0.12 -0.12)">
     <use xlink:href="#DejaVuSans-30"/>
     <use xlink:href="#DejaVuSans-25" x="63.623047"/>
    </g>
   </g>
   <g id="text_12">
    <!-- %Y%m%d -->
    <g style="fill: #262626" transform="translate(356.223104 110.147265)scale(0.11 -0.11)">
     <use xlink:href="#DejaVuSans-25"/>
     <use xlink:href="#DejaVuSans-59" x="95.019531"/>
     <use xlink:href="#DejaVuSans-25" x="156.103516"/>
     <use xlink:href="#DejaVuSans-6d" x="251.123047"/>
     <use xlink:href="#DejaVuSans-25" x="348.535156"/>
     <use xlink:href="#DejaVuSans-64" x="443.554688"/>
    </g>
   </g>
   <g id="text_13">
    <!-- 0% -->
    <g style="fill: #262626" transform="translate(290.027593 140.012413)scale(0.12 -0.12)">
     <use xlink:href="#DejaVuSans-30"/>
     <use xlink:href="#DejaVuSans-25" x="63.623047"/>
    </g>
   </g>
   <g id="text_14">
    <!-- %d %b %Y -->
    <g style="fill: #262626" transform="translate(354.313816 106.612923)scale(0.11 -0.11)">
     <defs>
      <path id="DejaVuSans-20" transform="scale(0.015625)"/>
     </defs>
     <use xlink:href="#DejaVuSans-25"/>
     <use xlink:href="#DejaVuSans-64" x="95.019531"/>
     <use xlink:href="#DejaVuSans-20" x="158.496094"/>
     <use xlink:href="#DejaVuSans-25" x="190.283203"/>
     <use xlink:href="#DejaVuSans-62" x="285.302734"/>
     <use xlink:href="#DejaVuSans-20" x="348.779297"/>
     <use xlink:href="#DejaVuSans-25" x="380.566406"/>
     <use xlink:href="#DejaVuSans-59" x="475.585938"/>
    </g>
   </g>
   <g id="text_15">
    <!-- 0% -->
    <g style="fill: #262626" transform="translate(288.978344 138.070117)scale(0.12 -0.12)">
     <use xlink:href="#DejaVuSans-30"/>
     <use xlink:href="#DejaVuSans-25" x="63.623047"/>
    </g>
   </g>
  </g>
 </g>
</svg>
