<?xml version="1.0" encoding="utf-8" standalone="no"?>
<!DOCTYPE svg PUBLIC "-//W3C//DTD SVG 1.1//EN"
  "http://www.w3.org/Graphics/SVG/1.1/DTD/svg11.dtd">
<svg xmlns:xlink="http://www.w3.org/1999/xlink" width="460.8pt" height="345.6pt" viewBox="0 0 460.8 345.6" xmlns="http://www.w3.org/2000/svg" version="1.1">
 <metadata>
  <rdf:RDF xmlns:dc="http://purl.org/dc/elements/1.1/" xmlns:cc="http://creativecommons.org/ns#" xmlns:rdf="http://www.w3.org/1999/02/22-rdf-syntax-ns#">
   <cc:Work>
    <dc:type rdf:resource="http://purl.org/dc/dcmitype/StillImage"/>
    <dc:date>2026-06-29T02:54:48.680567</dc:date>
    <dc:format>image/svg+xml</dc:format>
    <dc:creator>
     <cc:Agent>
      <dc:title>Matplotlib v3.11.0, https://matplotlib.org/</dc:title>
     </cc:Agent>
    </dc:creator>
   </cc:Work>
  </rdf:RDF>
 </metadata>
 <defs>
  <style type="text/css">*{stroke-linejoin: round; stroke-linecap: butt}</style>
 </defs>
 <g id="figure_1">
  <g id="patch_1">
   <path d="M 0 345.6 
L 460.8 345.6 
L 460.8 0 
L 0 0 
z
" style="fill: #ffffff"/>
  </g>
  <g id="axes_1">
   <g id="matplotlib.axis_1"/>
   <g id="matplotlib.axis_2"/>
   <g id="patch_2">
    <path d="M 339.922263 109.252929 
C 332.102933 95.709452 321.864992 83.714611 309.717758 73.865125 
C 297.570523 64.015639 283.718826 56.477594 268.85176 51.625992 
C 253.984695 46.77439 238.352954 44.691041 222.734188 45.479587 
C 207.115421 46.268134 191.772997 49.915279 177.47017 56.239584 
C 163.167344 62.563889 150.145295 71.458712 139.051843 82.481553 
C 127.958392 93.504393 118.980601 106.469381 112.565097 120.731533 
C 106.149592 134.993686 102.404556 150.312509 101.516295 165.925922 
C 100.628034 181.539335 102.611527 197.18406 107.368099 212.081801 
C 112.124671 226.979542 119.574116 240.87909 129.345837 253.088969 
C 139.117558 265.298848 151.046783 275.613171 164.540054 283.518821 
C 178.033326 291.42447 192.863117 296.788139 208.291675 299.342995 
C 223.720232 301.897851 239.487395 301.600813 254.808777 298.466659 
C 270.130159 295.332504 284.747407 289.414082 297.933341 281.005823 
C 311.119274 272.597563 322.651549 261.841249 331.956455 249.271985 
C 341.261362 236.702721 348.181999 222.532455 352.374077 207.46613 
C 356.566156 192.399805 357.958989 176.691474 356.483284 161.122596 
L 229.181862 173.188929 
z
" style="fill: #4c72b0; stroke: #ffffff; stroke-linejoin: miter"/>
   </g>
   <g id="patch_3">
    <path d="M 358.950125 160.45823 
C 358.456865 155.25427 357.644969 150.085449 356.519009 144.980871 
C 355.39305 139.876293 353.955143 134.845557 352.213387 129.916988 
L 231.648703 172.524563 
z
" style="fill: #dd8452; stroke: #ffffff; stroke-linejoin: miter"/>
   </g>
   <g id="patch_4">
    <path d="M 352.156707 129.729603 
C 351.721396 128.497822 351.267233 127.272785 350.794378 126.054923 
C 350.321523 124.837061 349.830032 123.626517 349.320078 122.423718 
L 231.592024 172.337177 
z
" style="fill: #55a868; stroke: #ffffff; stroke-linejoin: miter"/>
   </g>
   <g id="patch_5">
    <path d="M 349.297548 122.369423 
C 349.042575 121.768032 348.782998 121.168604 348.518838 120.571191 
C 348.254679 119.973778 347.985946 119.378398 347.712663 118.785103 
L 231.569493 172.282883 
z
" style="fill: #c44e52; stroke: #ffffff; stroke-linejoin: miter"/>
   </g>
   <g id="patch_6">
    <path d="M 347.696267 118.749507 
C 347.422984 118.156212 347.145159 117.56502 346.862816 116.975983 
C 346.580474 116.386946 346.293622 115.80008 346.002285 115.215439 
L 231.553097 172.247287 
z
" style="fill: #8172b3; stroke: #ffffff; stroke-linejoin: miter"/>
   </g>
   <g id="patch_7">
    <path d="M 345.984806 115.180362 
C 345.69347 114.59572 345.397658 114.01332 345.097397 113.433212 
C 344.797136 112.853103 344.492434 112.275304 344.183319 111.699865 
L 231.535618 172.21221 
z
" style="fill: #937860; stroke: #ffffff; stroke-linejoin: miter"/>
   </g>
   <g id="patch_8">
    <path d="M 344.164773 111.665341 
C 343.855657 111.089902 343.542137 110.51684 343.224239 109.946206 
C 342.906342 109.375571 342.584077 108.807381 342.257472 108.241685 
L 231.517072 172.177685 
z
" style="fill: #da8bc3; stroke: #ffffff; stroke-linejoin: miter"/>
   </g>
   <g id="text_1">
    <!-- %Y-%m-%d -->
    <g style="fill: #262626" transform="translate(369.00604 145.084354) scale(0.11 -0.11)">
     <defs>
      <path id="DejaVuSans-8" d="M 4653 2053 
Q 4381 2053 4226 1822 
Q 4072 1591 4072 1178 
Q 4072 772 4226 539 
Q 4381 306 4653 306 
Q 4919 306 5073 539 
Q 5228 772 5228 1178 
Q 5228 1588 5073 1820 
Q 4919 2053 4653 2053 
z
M 4653 2450 
Q 5147 2450 5437 2106 
Q 5728 1763 5728 1178 
Q 5728 594 5436 251 
Q 5144 -91 4653 -91 
Q 4153 -91 3862 251 
Q 3572 594 3572 1178 
Q 3572 1766 3864 2108 
Q 4156 2450 4653 2450 
z
M 1428 4353 
Q 1159 4353 1004 4120 
Q 850 3888 850 3481 
Q 850 3069 1003 2837 
Q 1156 2606 1428 2606 
Q 1700 2606 1854 2837 
Q 2009 3069 2009 3481 
Q 2009 3884 1853 4118 
Q 1697 4353 1428 4353 
z
M 4250 4750 
L 4750 4750 
L 1831 -91 
L 1331 -91 
L 4250 4750 
z
M 1428 4750 
Q 1922 4750 2215 4408 
Q 2509 4066 2509 3481 
Q 2509 2891 2217 2550 
Q 1925 2209 1428 2209 
Q 931 2209 642 2551 
Q 353 2894 353 3481 
Q 353 4063 643 4406 
Q 934 4750 1428 4750 
z
" transform="scale(0.015625)"/>
      <path id="DejaVuSans-3c" d="M -13 4666 
L 666 4666 
L 1959 2747 
L 3244 4666 
L 3922 4666 
L 2272 2222 
L 2272 0 
L 1638 0 
L 1638 2222 
L -13 4666 
z
" transform="scale(0.015625)"/>
      <path id="DejaVuSans-10" d="M 313 2009 
L 1997 2009 
L 1997 1497 
L 313 1497 
L 313 2009 
z
" transform="scale(0.015625)"/>
      <path id="DejaVuSans-50" d="M 3328 2828 
Q 3544 3216 3844 3400 
Q 4144 3584 4550 3584 
Q 5097 3584 5394 3201 
Q 5691 2819 5691 2113 
L 5691 0 
L 5113 0 
L 5113 2094 
Q 5113 2597 4934 2840 
Q 4756 3084 4391 3084 
Q 3944 3084 3684 2787 
Q 3425 2491 3425 1978 
L 3425 0 
L 2847 0 
L 2847 2094 
Q 2847 2600 2669 2842 
Q 2491 3084 2119 3084 
Q 1678 3084 1418 2786 
Q 1159 2488 1159 1978 
L 1159 0 
L 581 0 
L 581 3500 
L 1159 3500 
L 1159 2956 
Q 1356 3278 1631 3431 
Q 1906 3584 2284 3584 
Q 2666 3584 2933 3390 
Q 3200 3197 3328 2828 
z
" transform="scale(0.015625)"/>
      <path id="DejaVuSans-47" d="M 2906 2969 
L 2906 4863 
L 3481 4863 
L 3481 0 
L 2906 0 
L 2906 525 
Q 2725 213 2448 61 
Q 2172 -91 1784 -91 
Q 1150 -91 751 415 
Q 353 922 353 1747 
Q 353 2572 751 3078 
Q 1150 3584 1784 3584 
Q 2172 3584 2448 3432 
Q 2725 3281 2906 2969 
z
M 947 1747 
Q 947 1113 1208 752 
Q 1469 391 1925 391 
Q 2381 391 2643 752 
Q 2906 1113 2906 1747 
Q 2906 2381 2643 2742 
Q 2381 3103 1925 3103 
Q 1469 3103 1208 2742 
Q 947 2381 947 1747 
z
" transform="scale(0.015625)"/>
     </defs>
     <use xlink:href="#DejaVuSans-8"/>
     <use xlink:href="#DejaVuSans-3c" transform="translate(95.015625 0)"/>
     <use xlink:href="#DejaVuSans-10" transform="translate(144.234375 0)"/>
     <use xlink:href="#DejaVuSans-8" transform="translate(180.3125 0)"/>
     <use xlink:href="#DejaVuSans-50" transform="translate(275.328125 0)"/>
     <use xlink:href="#DejaVuSans-10" transform="translate(372.734375 0)"/>
     <use xlink:href="#DejaVuSans-8" transform="translate(408.8125 0)"/>
     <use xlink:href="#DejaVuSans-47" transform="translate(503.828125 0)"/>
    </g>
   </g>
   <g id="text_2">
    <!-- %Y-%m -->
    <g style="fill: #262626" transform="translate(362.714614 124.28412) scale(0.11 -0.11)">
     <use xlink:href="#DejaVuSans-8"/>
     <use xlink:href="#DejaVuSans-3c" transform="translate(95.015625 0)"/>
     <use xlink:href="#DejaVuSans-10" transform="translate(144.234375 0)"/>
     <use xlink:href="#DejaVuSans-8" transform="translate(180.3125 0)"/>
     <use xlink:href="#DejaVuSans-50" transform="translate(275.328125 0)"/>
    </g>
   </g>
   <g id="text_3">
    <!-- %Y-%b -->
    <g style="fill: #262626" transform="translate(360.213773 118.257873) scale(0.11 -0.11)">
     <defs>
      <path id="DejaVuSans-45" d="M 3116 1747 
Q 3116 2381 2855 2742 
Q 2594 3103 2138 3103 
Q 1681 3103 1420 2742 
Q 1159 2381 1159 1747 
Q 1159 1113 1420 752 
Q 1681 391 2138 391 
Q 2594 391 2855 752 
Q 3116 1113 3116 1747 
z
M 1159 2969 
Q 1341 3281 1617 3432 
Q 1894 3584 2278 3584 
Q 2916 3584 3314 3078 
Q 3713 2572 3713 1747 
Q 3713 922 3314 415 
Q 2916 -91 2278 -91 
Q 1894 -91 1617 61 
Q 1341 213 1159 525 
L 1159 0 
L 581 0 
L 581 4863 
L 1159 4863 
L 1159 2969 
z
" transform="scale(0.015625)"/>
     </defs>
     <use xlink:href="#DejaVuSans-8"/>
     <use xlink:href="#DejaVuSans-3c" transform="translate(95.015625 0)"/>
     <use xlink:href="#DejaVuSans-10" transform="translate(144.234375 0)"/>
     <use xlink:href="#DejaVuSans-8" transform="translate(180.3125 0)"/>
     <use xlink:href="#DejaVuSans-45" transform="translate(275.328125 0)"/>
    </g>
   </g>
   <g id="text_4">
    <!-- %Y -->
    <g style="fill: #262626" transform="translate(358.393788 114.306274) scale(0.11 -0.11)">
     <use xlink:href="#DejaVuSans-8"/>
     <use xlink:href="#DejaVuSans-3c" transform="translate(95.015625 0)"/>
    </g>
   </g>
   <g id="text_5">
    <!-- %Y%m%d -->
    <g style="fill: #262626" transform="translate(356.453575 110.413163) scale(0.11 -0.11)">
     <use xlink:href="#DejaVuSans-8"/>
     <use xlink:href="#DejaVuSans-3c" transform="translate(95.015625 0)"/>
     <use xlink:href="#DejaVuSans-8" transform="translate(156.09375 0)"/>
     <use xlink:href="#DejaVuSans-50" transform="translate(251.109375 0)"/>
     <use xlink:href="#DejaVuSans-8" transform="translate(348.515625 0)"/>
     <use xlink:href="#DejaVuSans-47" transform="translate(443.53125 0)"/>
    </g>
   </g>
   <g id="text_6">
    <!-- %Y_%m -->
    <g style="fill: #262626" transform="translate(354.394956 106.580479) scale(0.11 -0.11)">
     <defs>
      <path id="DejaVuSans-42" d="M 3263 -1063 
L 3263 -1509 
L -63 -1509 
L -63 -1063 
L 3263 -1063 
z
" transform="scale(0.015625)"/>
     </defs>
     <use xlink:href="#DejaVuSans-8"/>
     <use xlink:href="#DejaVuSans-3c" transform="translate(95.015625 0)"/>
     <use xlink:href="#DejaVuSans-42" transform="translate(156.09375 0)"/>
     <use xlink:href="#DejaVuSans-8" transform="translate(206.09375 0)"/>
     <use xlink:href="#DejaVuSans-50" transform="translate(301.109375 0)"/>
    </g>
   </g>
   <g id="text_7">
    <!-- 93% -->
    <g style="fill: #262626" transform="translate(142.757667 199.64184) scale(0.12 -0.12)">
     <defs>
      <path id="DejaVuSans-1c" d="M 703 97 
L 703 672 
Q 941 559 1184 500 
Q 1428 441 1663 441 
Q 2288 441 2617 861 
Q 2947 1281 2994 2138 
Q 2813 1869 2534 1725 
Q 2256 1581 1919 1581 
Q 1219 1581 811 2004 
Q 403 2428 403 3163 
Q 403 3881 828 4315 
Q 1253 4750 1959 4750 
Q 2769 4750 3195 4129 
Q 3622 3509 3622 2328 
Q 3622 1225 3098 567 
Q 2575 -91 1691 -91 
Q 1453 -91 1209 -44 
Q 966 3 703 97 
z
M 1959 2075 
Q 2384 2075 2632 2365 
Q 2881 2656 2881 3163 
Q 2881 3666 2632 3958 
Q 2384 4250 1959 4250 
Q 1534 4250 1286 3958 
Q 1038 3666 1038 3163 
Q 1038 2656 1286 2365 
Q 1534 2075 1959 2075 
z
" transform="scale(0.015625)"/>
      <path id="DejaVuSans-16" d="M 2597 2516 
Q 3050 2419 3304 2112 
Q 3559 1806 3559 1356 
Q 3559 666 3084 287 
Q 2609 -91 1734 -91 
Q 1441 -91 1130 -33 
Q 819 25 488 141 
L 488 750 
Q 750 597 1062 519 
Q 1375 441 1716 441 
Q 2309 441 2620 675 
Q 2931 909 2931 1356 
Q 2931 1769 2642 2001 
Q 2353 2234 1838 2234 
L 1294 2234 
L 1294 2753 
L 1863 2753 
Q 2328 2753 2575 2939 
Q 2822 3125 2822 3475 
Q 2822 3834 2567 4026 
Q 2313 4219 1838 4219 
Q 1578 4219 1281 4162 
Q 984 4106 628 3988 
L 628 4550 
Q 988 4650 1302 4700 
Q 1616 4750 1894 4750 
Q 2613 4750 3031 4423 
Q 3450 4097 3450 3541 
Q 3450 3153 3228 2886 
Q 3006 2619 2597 2516 
z
" transform="scale(0.015625)"/>
     </defs>
     <use xlink:href="#DejaVuSans-1c"/>
     <use xlink:href="#DejaVuSans-16" transform="translate(63.625 0)"/>
     <use xlink:href="#DejaVuSans-8" transform="translate(127.25 0)"/>
    </g>
   </g>
   <g id="text_8">
    <!-- 4% -->
    <g style="fill: #262626" transform="translate(297.052449 159.115535) scale(0.12 -0.12)">
     <defs>
      <path id="DejaVuSans-17" d="M 2419 4116 
L 825 1625 
L 2419 1625 
L 2419 4116 
z
M 2253 4666 
L 3047 4666 
L 3047 1625 
L 3713 1625 
L 3713 1100 
L 3047 1100 
L 3047 0 
L 2419 0 
L 2419 1100 
L 313 1100 
L 313 1709 
L 2253 4666 
z
" transform="scale(0.015625)"/>
     </defs>
     <use xlink:href="#DejaVuSans-17"/>
     <use xlink:href="#DejaVuSans-8" transform="translate(63.625 0)"/>
    </g>
   </g>
   <g id="text_9">
    <!-- 1% -->
    <g style="fill: #262626" transform="translate(293.594999 147.685012) scale(0.12 -0.12)">
     <defs>
      <path id="DejaVuSans-14" d="M 794 531 
L 1825 531 
L 1825 4091 
L 703 3866 
L 703 4441 
L 1819 4666 
L 2450 4666 
L 2450 531 
L 3481 531 
L 3481 0 
L 794 0 
L 794 531 
z
" transform="scale(0.015625)"/>
     </defs>
     <use xlink:href="#DejaVuSans-14"/>
     <use xlink:href="#DejaVuSans-8" transform="translate(63.625 0)"/>
    </g>
   </g>
   <g id="text_10">
    <!-- 0% -->
    <g style="fill: #262626" transform="translate(292.220663 144.373055) scale(0.12 -0.12)">
     <defs>
      <path id="DejaVuSans-13" d="M 2034 4250 
Q 1547 4250 1301 3770 
Q 1056 3291 1056 2328 
Q 1056 1369 1301 889 
Q 1547 409 2034 409 
Q 2525 409 2770 889 
Q 3016 1369 3016 2328 
Q 3016 3291 2770 3770 
Q 2525 4250 2034 4250 
z
M 2034 4750 
Q 2819 4750 3233 4129 
Q 3647 3509 3647 2328 
Q 3647 1150 3233 529 
Q 2819 -91 2034 -91 
Q 1250 -91 836 529 
Q 422 1150 422 2328 
Q 422 3509 836 4129 
Q 1250 4750 2034 4750 
z
" transform="scale(0.015625)"/>
     </defs>
     <use xlink:href="#DejaVuSans-13"/>
     <use xlink:href="#DejaVuSans-8" transform="translate(63.625 0)"/>
    </g>
   </g>
   <g id="text_11">
    <!-- 0% -->
    <g style="fill: #262626" transform="translate(291.220491 142.201692) scale(0.12 -0.12)">
     <use xlink:href="#DejaVuSans-13"/>
     <use xlink:href="#DejaVuSans-8" transform="translate(63.625 0)"/>
    </g>
   </g>
   <g id="text_12">
    <!-- 0% -->
    <g style="fill: #262626" transform="translate(290.154248 140.061999) scale(0.12 -0.12)">
     <use xlink:href="#DejaVuSans-13"/>
     <use xlink:href="#DejaVuSans-8" transform="translate(63.625 0)"/>
    </g>
   </g>
   <g id="text_13">
    <!-- 0% -->
    <g style="fill: #262626" transform="translate(289.022935 137.955985) scale(0.12 -0.12)">
     <use xlink:href="#DejaVuSans-13"/>
     <use xlink:href="#DejaVuSans-8" transform="translate(63.625 0)"/>
    </g>
   </g>
  </g>
 </g>
</svg>
