<?xml version="1.0" encoding="utf-8" standalone="no"?>
<!DOCTYPE svg PUBLIC "-//W3C//DTD SVG 1.1//EN"
  "http://www.w3.org/Graphics/SVG/1.1/DTD/svg11.dtd">
<!-- Created with matplotlib (https://matplotlib.org/) -->
<svg height="345.6pt" version="1.1" viewBox="0 0 460.8 345.6" width="460.8pt" xmlns="http://www.w3.org/2000/svg" xmlns:xlink="http://www.w3.org/1999/xlink">
 <metadata>
  <rdf:RDF xmlns:cc="http://creativecommons.org/ns#" xmlns:dc="http://purl.org/dc/elements/1.1/" xmlns:rdf="http://www.w3.org/1999/02/22-rdf-syntax-ns#">
   <cc:Work>
    <dc:type rdf:resource="http://purl.org/dc/dcmitype/StillImage"/>
    <dc:date>2021-10-02T00:42:15.500269</dc:date>
    <dc:format>image/svg+xml</dc:format>
    <dc:creator>
     <cc:Agent>
      <dc:title>Matplotlib v3.3.4, https://matplotlib.org/</dc:title>
     </cc:Agent>
    </dc:creator>
   </cc:Work>
  </rdf:RDF>
 </metadata>
 <defs>
  <style type="text/css">*{stroke-linecap:butt;stroke-linejoin:round;}</style>
 </defs>
 <g id="figure_1">
  <g id="patch_1">
   <path d="M 0 345.6 
L 460.8 345.6 
L 460.8 0 
L 0 0 
z
" style="fill:#ffffff;"/>
  </g>
  <g id="axes_1">
   <g id="matplotlib.axis_1"/>
   <g id="matplotlib.axis_2"/>
   <g id="patch_2">
    <path d="M 339.942865 109.312367 
C 331.991354 95.539947 321.539929 83.370967 309.125988 73.431141 
C 296.712047 63.491314 282.552071 55.953977 267.374148 51.20669 
C 252.196225 46.459403 236.265036 44.584952 220.399741 45.679717 
C 204.534447 46.774483 189.011715 50.819375 174.629704 57.60641 
C 160.247693 64.393445 147.257205 73.804268 136.326193 85.354985 
C 125.395182 96.905702 116.714268 110.394887 110.729813 125.128941 
C 104.745357 139.862996 101.561721 155.584982 101.342603 171.486493 
C 101.123484 187.388005 103.872705 203.191744 109.448902 218.085101 
C 115.025099 232.978459 123.331034 246.701717 133.939624 258.549244 
C 144.548214 270.396771 157.274462 280.161963 171.464001 287.342706 
C 185.653539 294.52345 201.058924 298.994523 216.888029 300.526029 
C 232.717134 302.057535 248.693924 300.622766 263.996891 296.295497 
C 279.299859 291.968229 293.662144 284.823921 306.345256 275.229925 
C 319.028368 265.635929 329.811131 253.75955 338.139111 240.211457 
C 346.467091 226.663364 352.195059 211.679814 355.028491 196.031244 
C 357.861922 180.382675 357.751407 164.341971 354.702626 148.733928 
L 229.202464 173.248367 
L 339.942865 109.312367 
z
" style="fill:#4c72b0;stroke:#ffffff;stroke-linejoin:miter;"/>
   </g>
   <g id="patch_3">
    <path d="M 357.130633 147.937616 
C 356.454972 144.478612 355.636596 141.049019 354.6776 137.657624 
C 353.718605 134.26623 352.61981 130.915932 351.38403 127.615314 
L 231.630471 172.452056 
L 357.130633 147.937616 
z
" style="fill:#dd8452;stroke:#ffffff;stroke-linejoin:miter;"/>
   </g>
   <g id="patch_4">
    <path d="M 351.344803 127.498433 
C 351.138869 126.948406 350.929147 126.399804 350.715653 125.852667 
C 350.50216 125.30553 350.284899 124.75987 350.063887 124.215726 
L 231.591244 172.335175 
L 351.344803 127.498433 
z
" style="fill:#55a868;stroke:#ffffff;stroke-linejoin:miter;"/>
   </g>
   <g id="patch_5">
    <path d="M 350.050626 124.183079 
C 349.829614 123.638935 349.604856 123.096321 349.376367 122.555274 
C 349.147879 122.014227 348.915665 121.474761 348.679743 120.936914 
L 231.577984 172.302527 
L 350.050626 124.183079 
z
" style="fill:#c44e52;stroke:#ffffff;stroke-linejoin:miter;"/>
   </g>
   <g id="patch_6">
    <path d="M 348.665589 120.904644 
C 348.429667 120.366797 348.190043 119.830581 347.946732 119.296036 
C 347.703422 118.76149 347.456432 118.228628 347.20578 117.697485 
L 231.563829 172.270258 
L 348.665589 120.904644 
z
" style="fill:#8172b3;stroke:#ffffff;stroke-linejoin:miter;"/>
   </g>
   <g id="patch_7">
    <path d="M 347.190742 117.665618 
C 346.940089 117.134476 346.685781 116.605066 346.427834 116.077428 
C 346.169887 115.54979 345.908309 115.023935 345.643116 114.499901 
L 231.54879 172.23839 
L 347.190742 117.665618 
z
" style="fill:#937860;stroke:#ffffff;stroke-linejoin:miter;"/>
   </g>
   <g id="patch_8">
    <path d="M 345.627205 114.46846 
C 345.362013 113.944426 345.093214 113.422225 344.820826 112.901895 
C 344.548439 112.381564 344.272469 111.863117 343.992938 111.346589 
L 231.532879 172.206949 
L 345.627205 114.46846 
z
" style="fill:#da8bc3;stroke:#ffffff;stroke-linejoin:miter;"/>
   </g>
   <g id="patch_9">
    <path d="M 343.976167 111.315598 
C 343.696636 110.79907 343.41355 110.284474 343.126928 109.771847 
C 342.840307 109.259219 342.550157 108.748573 342.2565 108.239943 
L 231.516108 172.175959 
L 343.976167 111.315598 
z
" style="fill:#8c8c8c;stroke:#ffffff;stroke-linejoin:miter;"/>
   </g>
   <g id="text_1">
    <!-- 95% -->
    <g style="fill:#262626;" transform="translate(144.014389 203.461658)scale(0.12 -0.12)">
     <defs>
      <path d="M 10.984375 1.515625 
L 10.984375 10.5 
Q 14.703125 8.734375 18.5 7.8125 
Q 22.3125 6.890625 25.984375 6.890625 
Q 35.75 6.890625 40.890625 13.453125 
Q 46.046875 20.015625 46.78125 33.40625 
Q 43.953125 29.203125 39.59375 26.953125 
Q 35.25 24.703125 29.984375 24.703125 
Q 19.046875 24.703125 12.671875 31.3125 
Q 6.296875 37.9375 6.296875 49.421875 
Q 6.296875 60.640625 12.9375 67.421875 
Q 19.578125 74.21875 30.609375 74.21875 
Q 43.265625 74.21875 49.921875 64.515625 
Q 56.59375 54.828125 56.59375 36.375 
Q 56.59375 19.140625 48.40625 8.859375 
Q 40.234375 -1.421875 26.421875 -1.421875 
Q 22.703125 -1.421875 18.890625 -0.6875 
Q 15.09375 0.046875 10.984375 1.515625 
z
M 30.609375 32.421875 
Q 37.25 32.421875 41.125 36.953125 
Q 45.015625 41.5 45.015625 49.421875 
Q 45.015625 57.28125 41.125 61.84375 
Q 37.25 66.40625 30.609375 66.40625 
Q 23.96875 66.40625 20.09375 61.84375 
Q 16.21875 57.28125 16.21875 49.421875 
Q 16.21875 41.5 20.09375 36.953125 
Q 23.96875 32.421875 30.609375 32.421875 
z
" id="DejaVuSans-57"/>
      <path d="M 10.796875 72.90625 
L 49.515625 72.90625 
L 49.515625 64.59375 
L 19.828125 64.59375 
L 19.828125 46.734375 
Q 21.96875 47.46875 24.109375 47.828125 
Q 26.265625 48.1875 28.421875 48.1875 
Q 40.625 48.1875 47.75 41.5 
Q 54.890625 34.8125 54.890625 23.390625 
Q 54.890625 11.625 47.5625 5.09375 
Q 40.234375 -1.421875 26.90625 -1.421875 
Q 22.3125 -1.421875 17.546875 -0.640625 
Q 12.796875 0.140625 7.71875 1.703125 
L 7.71875 11.625 
Q 12.109375 9.234375 16.796875 8.0625 
Q 21.484375 6.890625 26.703125 6.890625 
Q 35.15625 6.890625 40.078125 11.328125 
Q 45.015625 15.765625 45.015625 23.390625 
Q 45.015625 31 40.078125 35.4375 
Q 35.15625 39.890625 26.703125 39.890625 
Q 22.75 39.890625 18.8125 39.015625 
Q 14.890625 38.140625 10.796875 36.28125 
z
" id="DejaVuSans-53"/>
      <path d="M 72.703125 32.078125 
Q 68.453125 32.078125 66.03125 28.46875 
Q 63.625 24.859375 63.625 18.40625 
Q 63.625 12.0625 66.03125 8.421875 
Q 68.453125 4.78125 72.703125 4.78125 
Q 76.859375 4.78125 79.265625 8.421875 
Q 81.6875 12.0625 81.6875 18.40625 
Q 81.6875 24.8125 79.265625 28.4375 
Q 76.859375 32.078125 72.703125 32.078125 
z
M 72.703125 38.28125 
Q 80.421875 38.28125 84.953125 32.90625 
Q 89.5 27.546875 89.5 18.40625 
Q 89.5 9.28125 84.9375 3.921875 
Q 80.375 -1.421875 72.703125 -1.421875 
Q 64.890625 -1.421875 60.34375 3.921875 
Q 55.8125 9.28125 55.8125 18.40625 
Q 55.8125 27.59375 60.375 32.9375 
Q 64.9375 38.28125 72.703125 38.28125 
z
M 22.3125 68.015625 
Q 18.109375 68.015625 15.6875 64.375 
Q 13.28125 60.75 13.28125 54.390625 
Q 13.28125 47.953125 15.671875 44.328125 
Q 18.0625 40.71875 22.3125 40.71875 
Q 26.5625 40.71875 28.96875 44.328125 
Q 31.390625 47.953125 31.390625 54.390625 
Q 31.390625 60.6875 28.953125 64.34375 
Q 26.515625 68.015625 22.3125 68.015625 
z
M 66.40625 74.21875 
L 74.21875 74.21875 
L 28.609375 -1.421875 
L 20.796875 -1.421875 
z
M 22.3125 74.21875 
Q 30.03125 74.21875 34.609375 68.875 
Q 39.203125 63.53125 39.203125 54.390625 
Q 39.203125 45.171875 34.640625 39.84375 
Q 30.078125 34.515625 22.3125 34.515625 
Q 14.546875 34.515625 10.03125 39.859375 
Q 5.515625 45.21875 5.515625 54.390625 
Q 5.515625 63.484375 10.046875 68.84375 
Q 14.59375 74.21875 22.3125 74.21875 
z
" id="DejaVuSans-37"/>
     </defs>
     <use xlink:href="#DejaVuSans-57"/>
     <use x="63.623047" xlink:href="#DejaVuSans-53"/>
     <use x="127.246094" xlink:href="#DejaVuSans-37"/>
    </g>
   </g>
   <g id="text_2">
    <!-- %Y-%m-%d -->
    <g style="fill:#262626;" transform="translate(366.982313 137.213494)scale(0.11 -0.11)">
     <defs>
      <path d="M -0.203125 72.90625 
L 10.40625 72.90625 
L 30.609375 42.921875 
L 50.6875 72.90625 
L 61.28125 72.90625 
L 35.5 34.71875 
L 35.5 0 
L 25.59375 0 
L 25.59375 34.71875 
z
" id="DejaVuSans-89"/>
      <path d="M 4.890625 31.390625 
L 31.203125 31.390625 
L 31.203125 23.390625 
L 4.890625 23.390625 
z
" id="DejaVuSans-45"/>
      <path d="M 52 44.1875 
Q 55.375 50.25 60.0625 53.125 
Q 64.75 56 71.09375 56 
Q 79.640625 56 84.28125 50.015625 
Q 88.921875 44.046875 88.921875 33.015625 
L 88.921875 0 
L 79.890625 0 
L 79.890625 32.71875 
Q 79.890625 40.578125 77.09375 44.375 
Q 74.3125 48.1875 68.609375 48.1875 
Q 61.625 48.1875 57.5625 43.546875 
Q 53.515625 38.921875 53.515625 30.90625 
L 53.515625 0 
L 44.484375 0 
L 44.484375 32.71875 
Q 44.484375 40.625 41.703125 44.40625 
Q 38.921875 48.1875 33.109375 48.1875 
Q 26.21875 48.1875 22.15625 43.53125 
Q 18.109375 38.875 18.109375 30.90625 
L 18.109375 0 
L 9.078125 0 
L 9.078125 54.6875 
L 18.109375 54.6875 
L 18.109375 46.1875 
Q 21.1875 51.21875 25.484375 53.609375 
Q 29.78125 56 35.6875 56 
Q 41.65625 56 45.828125 52.96875 
Q 50 49.953125 52 44.1875 
z
" id="DejaVuSans-109"/>
      <path d="M 45.40625 46.390625 
L 45.40625 75.984375 
L 54.390625 75.984375 
L 54.390625 0 
L 45.40625 0 
L 45.40625 8.203125 
Q 42.578125 3.328125 38.25 0.953125 
Q 33.9375 -1.421875 27.875 -1.421875 
Q 17.96875 -1.421875 11.734375 6.484375 
Q 5.515625 14.40625 5.515625 27.296875 
Q 5.515625 40.1875 11.734375 48.09375 
Q 17.96875 56 27.875 56 
Q 33.9375 56 38.25 53.625 
Q 42.578125 51.265625 45.40625 46.390625 
z
M 14.796875 27.296875 
Q 14.796875 17.390625 18.875 11.75 
Q 22.953125 6.109375 30.078125 6.109375 
Q 37.203125 6.109375 41.296875 11.75 
Q 45.40625 17.390625 45.40625 27.296875 
Q 45.40625 37.203125 41.296875 42.84375 
Q 37.203125 48.484375 30.078125 48.484375 
Q 22.953125 48.484375 18.875 42.84375 
Q 14.796875 37.203125 14.796875 27.296875 
z
" id="DejaVuSans-100"/>
     </defs>
     <use xlink:href="#DejaVuSans-37"/>
     <use x="95.019531" xlink:href="#DejaVuSans-89"/>
     <use x="144.228516" xlink:href="#DejaVuSans-45"/>
     <use x="180.3125" xlink:href="#DejaVuSans-37"/>
     <use x="275.332031" xlink:href="#DejaVuSans-109"/>
     <use x="372.744141" xlink:href="#DejaVuSans-45"/>
     <use x="408.828125" xlink:href="#DejaVuSans-37"/>
     <use x="503.847656" xlink:href="#DejaVuSans-100"/>
    </g>
   </g>
   <g id="text_3">
    <!-- 3% -->
    <g style="fill:#262626;" transform="translate(295.940311 154.886647)scale(0.12 -0.12)">
     <defs>
      <path d="M 40.578125 39.3125 
Q 47.65625 37.796875 51.625 33 
Q 55.609375 28.21875 55.609375 21.1875 
Q 55.609375 10.40625 48.1875 4.484375 
Q 40.765625 -1.421875 27.09375 -1.421875 
Q 22.515625 -1.421875 17.65625 -0.515625 
Q 12.796875 0.390625 7.625 2.203125 
L 7.625 11.71875 
Q 11.71875 9.328125 16.59375 8.109375 
Q 21.484375 6.890625 26.8125 6.890625 
Q 36.078125 6.890625 40.9375 10.546875 
Q 45.796875 14.203125 45.796875 21.1875 
Q 45.796875 27.640625 41.28125 31.265625 
Q 36.765625 34.90625 28.71875 34.90625 
L 20.21875 34.90625 
L 20.21875 43.015625 
L 29.109375 43.015625 
Q 36.375 43.015625 40.234375 45.921875 
Q 44.09375 48.828125 44.09375 54.296875 
Q 44.09375 59.90625 40.109375 62.90625 
Q 36.140625 65.921875 28.71875 65.921875 
Q 24.65625 65.921875 20.015625 65.03125 
Q 15.375 64.15625 9.8125 62.3125 
L 9.8125 71.09375 
Q 15.4375 72.65625 20.34375 73.4375 
Q 25.25 74.21875 29.59375 74.21875 
Q 40.828125 74.21875 47.359375 69.109375 
Q 53.90625 64.015625 53.90625 55.328125 
Q 53.90625 49.265625 50.4375 45.09375 
Q 46.96875 40.921875 40.578125 39.3125 
z
" id="DejaVuSans-51"/>
     </defs>
     <use xlink:href="#DejaVuSans-51"/>
     <use x="63.623047" xlink:href="#DejaVuSans-37"/>
    </g>
   </g>
   <g id="text_4">
    <!-- %Y-%b -->
    <g style="fill:#262626;" transform="translate(362.628094 124.239729)scale(0.11 -0.11)">
     <defs>
      <path d="M 48.6875 27.296875 
Q 48.6875 37.203125 44.609375 42.84375 
Q 40.53125 48.484375 33.40625 48.484375 
Q 26.265625 48.484375 22.1875 42.84375 
Q 18.109375 37.203125 18.109375 27.296875 
Q 18.109375 17.390625 22.1875 11.75 
Q 26.265625 6.109375 33.40625 6.109375 
Q 40.53125 6.109375 44.609375 11.75 
Q 48.6875 17.390625 48.6875 27.296875 
z
M 18.109375 46.390625 
Q 20.953125 51.265625 25.265625 53.625 
Q 29.59375 56 35.59375 56 
Q 45.5625 56 51.78125 48.09375 
Q 58.015625 40.1875 58.015625 27.296875 
Q 58.015625 14.40625 51.78125 6.484375 
Q 45.5625 -1.421875 35.59375 -1.421875 
Q 29.59375 -1.421875 25.265625 0.953125 
Q 20.953125 3.328125 18.109375 8.203125 
L 18.109375 0 
L 9.078125 0 
L 9.078125 75.984375 
L 18.109375 75.984375 
z
" id="DejaVuSans-98"/>
     </defs>
     <use xlink:href="#DejaVuSans-37"/>
     <use x="95.019531" xlink:href="#DejaVuSans-89"/>
     <use x="144.228516" xlink:href="#DejaVuSans-45"/>
     <use x="180.3125" xlink:href="#DejaVuSans-37"/>
     <use x="275.332031" xlink:href="#DejaVuSans-98"/>
    </g>
   </g>
   <g id="text_5">
    <!-- 0% -->
    <g style="fill:#262626;" transform="translate(293.547452 147.75692)scale(0.12 -0.12)">
     <defs>
      <path d="M 31.78125 66.40625 
Q 24.171875 66.40625 20.328125 58.90625 
Q 16.5 51.421875 16.5 36.375 
Q 16.5 21.390625 20.328125 13.890625 
Q 24.171875 6.390625 31.78125 6.390625 
Q 39.453125 6.390625 43.28125 13.890625 
Q 47.125 21.390625 47.125 36.375 
Q 47.125 51.421875 43.28125 58.90625 
Q 39.453125 66.40625 31.78125 66.40625 
z
M 31.78125 74.21875 
Q 44.046875 74.21875 50.515625 64.515625 
Q 56.984375 54.828125 56.984375 36.375 
Q 56.984375 17.96875 50.515625 8.265625 
Q 44.046875 -1.421875 31.78125 -1.421875 
Q 19.53125 -1.421875 13.0625 8.265625 
Q 6.59375 17.96875 6.59375 36.375 
Q 6.59375 54.828125 13.0625 64.515625 
Q 19.53125 74.21875 31.78125 74.21875 
z
" id="DejaVuSans-48"/>
     </defs>
     <use xlink:href="#DejaVuSans-48"/>
     <use x="63.623047" xlink:href="#DejaVuSans-37"/>
    </g>
   </g>
   <g id="text_6">
    <!-- %m/%d/%Y -->
    <g style="fill:#262626;" transform="translate(361.156206 120.615861)scale(0.11 -0.11)">
     <defs>
      <path d="M 25.390625 72.90625 
L 33.6875 72.90625 
L 8.296875 -9.28125 
L 0 -9.28125 
z
" id="DejaVuSans-47"/>
     </defs>
     <use xlink:href="#DejaVuSans-37"/>
     <use x="95.019531" xlink:href="#DejaVuSans-109"/>
     <use x="192.431641" xlink:href="#DejaVuSans-47"/>
     <use x="226.123047" xlink:href="#DejaVuSans-37"/>
     <use x="321.142578" xlink:href="#DejaVuSans-100"/>
     <use x="384.619141" xlink:href="#DejaVuSans-47"/>
     <use x="418.310547" xlink:href="#DejaVuSans-37"/>
     <use x="513.330078" xlink:href="#DejaVuSans-89"/>
    </g>
   </g>
   <g id="text_7">
    <!-- 0% -->
    <g style="fill:#262626;" transform="translate(292.738576 145.765425)scale(0.12 -0.12)">
     <use xlink:href="#DejaVuSans-48"/>
     <use x="63.623047" xlink:href="#DejaVuSans-37"/>
    </g>
   </g>
   <g id="text_8">
    <!-- %d-%b-%Y -->
    <g style="fill:#262626;" transform="translate(359.585023 117.033926)scale(0.11 -0.11)">
     <use xlink:href="#DejaVuSans-37"/>
     <use x="95.019531" xlink:href="#DejaVuSans-100"/>
     <use x="158.496094" xlink:href="#DejaVuSans-45"/>
     <use x="194.580078" xlink:href="#DejaVuSans-37"/>
     <use x="289.599609" xlink:href="#DejaVuSans-98"/>
     <use x="353.076172" xlink:href="#DejaVuSans-45"/>
     <use x="389.160156" xlink:href="#DejaVuSans-37"/>
     <use x="484.179688" xlink:href="#DejaVuSans-89"/>
    </g>
   </g>
   <g id="text_9">
    <!-- 0% -->
    <g style="fill:#262626;" transform="translate(291.875134 143.796975)scale(0.12 -0.12)">
     <use xlink:href="#DejaVuSans-48"/>
     <use x="63.623047" xlink:href="#DejaVuSans-37"/>
    </g>
   </g>
   <g id="text_10">
    <!-- %Y_%m -->
    <g style="fill:#262626;" transform="translate(357.915739 113.246566)scale(0.11 -0.11)">
     <defs>
      <path d="M 50.984375 -16.609375 
L 50.984375 -23.578125 
L -0.984375 -23.578125 
L -0.984375 -16.609375 
z
" id="DejaVuSans-95"/>
     </defs>
     <use xlink:href="#DejaVuSans-37"/>
     <use x="95.019531" xlink:href="#DejaVuSans-89"/>
     <use x="156.103516" xlink:href="#DejaVuSans-95"/>
     <use x="206.103516" xlink:href="#DejaVuSans-37"/>
     <use x="301.123047" xlink:href="#DejaVuSans-109"/>
    </g>
   </g>
   <g id="text_11">
    <!-- 0% -->
    <g style="fill:#262626;" transform="translate(290.957779 141.853063)scale(0.12 -0.12)">
     <use xlink:href="#DejaVuSans-48"/>
     <use x="63.623047" xlink:href="#DejaVuSans-37"/>
    </g>
   </g>
   <g id="text_12">
    <!-- %Y%m%d -->
    <g style="fill:#262626;" transform="translate(356.149621 110.006702)scale(0.11 -0.11)">
     <use xlink:href="#DejaVuSans-37"/>
     <use x="95.019531" xlink:href="#DejaVuSans-89"/>
     <use x="156.103516" xlink:href="#DejaVuSans-37"/>
     <use x="251.123047" xlink:href="#DejaVuSans-109"/>
     <use x="348.535156" xlink:href="#DejaVuSans-37"/>
     <use x="443.554688" xlink:href="#DejaVuSans-100"/>
    </g>
   </g>
   <g id="text_13">
    <!-- 0% -->
    <g style="fill:#262626;" transform="translate(289.98721 139.935167)scale(0.12 -0.12)">
     <use xlink:href="#DejaVuSans-48"/>
     <use x="63.623047" xlink:href="#DejaVuSans-37"/>
    </g>
   </g>
   <g id="text_14">
    <!-- %d %b %Y -->
    <g style="fill:#262626;" transform="translate(354.28801 106.566748)scale(0.11 -0.11)">
     <defs>
      <path id="DejaVuSans-32"/>
     </defs>
     <use xlink:href="#DejaVuSans-37"/>
     <use x="95.019531" xlink:href="#DejaVuSans-100"/>
     <use x="158.496094" xlink:href="#DejaVuSans-32"/>
     <use x="190.283203" xlink:href="#DejaVuSans-37"/>
     <use x="285.302734" xlink:href="#DejaVuSans-98"/>
     <use x="348.779297" xlink:href="#DejaVuSans-32"/>
     <use x="380.566406" xlink:href="#DejaVuSans-37"/>
     <use x="475.585938" xlink:href="#DejaVuSans-89"/>
    </g>
   </g>
   <g id="text_15">
    <!-- 0% -->
    <g style="fill:#262626;" transform="translate(288.964163 138.044742)scale(0.12 -0.12)">
     <use xlink:href="#DejaVuSans-48"/>
     <use x="63.623047" xlink:href="#DejaVuSans-37"/>
    </g>
   </g>
  </g>
 </g>
</svg>
