<?xml version="1.0" encoding="utf-8" standalone="no"?>
<!DOCTYPE svg PUBLIC "-//W3C//DTD SVG 1.1//EN"
  "http://www.w3.org/Graphics/SVG/1.1/DTD/svg11.dtd">
<svg xmlns:xlink="http://www.w3.org/1999/xlink" width="460.8pt" height="345.6pt" viewBox="0 0 460.8 345.6" xmlns="http://www.w3.org/2000/svg" version="1.1">
 <metadata>
  <rdf:RDF xmlns:dc="http://purl.org/dc/elements/1.1/" xmlns:cc="http://creativecommons.org/ns#" xmlns:rdf="http://www.w3.org/1999/02/22-rdf-syntax-ns#">
   <cc:Work>
    <dc:type rdf:resource="http://purl.org/dc/dcmitype/StillImage"/>
    <dc:date>2026-06-20T02:49:37.901509</dc:date>
    <dc:format>image/svg+xml</dc:format>
    <dc:creator>
     <cc:Agent>
      <dc:title>Matplotlib v3.11.0, https://matplotlib.org/</dc:title>
     </cc:Agent>
    </dc:creator>
   </cc:Work>
  </rdf:RDF>
 </metadata>
 <defs>
  <style type="text/css">*{stroke-linejoin: round; stroke-linecap: butt}</style>
 </defs>
 <g id="figure_1">
  <g id="patch_1">
   <path d="M 0 345.6 
L 460.8 345.6 
L 460.8 0 
L 0 0 
z
" style="fill: #ffffff"/>
  </g>
  <g id="axes_1">
   <g id="matplotlib.axis_1"/>
   <g id="matplotlib.axis_2"/>
   <g id="patch_2">
    <path d="M 331.303637 108.413989 
C 319.191719 87.435531 301.364362 70.3244 279.907158 59.082397 
C 258.449954 47.840394 234.233604 42.923702 210.091137 44.907518 
C 185.94867 46.891333 162.859751 55.695155 143.525512 70.28904 
C 124.191274 84.882924 109.396271 104.674674 100.871345 127.348886 
C 92.346418 150.023097 90.437498 174.659686 95.367905 198.376459 
C 100.298311 222.093232 111.867976 243.927799 128.723385 261.325772 
C 145.578793 278.723744 167.035978 290.979139 190.5847 296.658218 
C 214.133422 302.337296 238.818109 301.209611 261.750943 293.407088 
L 220.563237 172.349989 
z
" style="fill: #4c72b0; stroke: #ffffff; stroke-linejoin: miter"/>
   </g>
   <g id="patch_3">
    <path d="M 263.811606 294.800004 
C 280.563112 289.100577 295.950698 279.985672 308.998331 268.033446 
C 322.045963 256.08122 332.471814 241.549842 339.61457 225.361036 
L 222.6239 173.742905 
z
" style="fill: #dd8452; stroke: #ffffff; stroke-linejoin: miter"/>
   </g>
   <g id="patch_4">
    <path d="M 339.979264 224.773189 
C 342.288501 219.539384 344.243921 214.15651 345.832342 208.660857 
C 347.420763 203.165203 348.638607 197.569146 349.477664 191.910412 
L 222.988593 173.155058 
z
" style="fill: #55a868; stroke: #ffffff; stroke-linejoin: miter"/>
   </g>
   <g id="patch_5">
    <path d="M 349.527145 191.600616 
C 350.22628 186.885543 350.661225 182.135065 350.829945 177.371429 
C 350.998665 172.607793 350.900895 167.838447 350.537094 163.085728 
L 223.038074 172.845262 
z
" style="fill: #c44e52; stroke: #ffffff; stroke-linejoin: miter"/>
   </g>
   <g id="patch_6">
    <path d="M 350.526721 162.871788 
C 350.344856 160.495892 350.096615 158.125544 349.78229 155.76352 
C 349.467965 153.401496 349.087678 151.04872 348.641875 148.707947 
L 223.027702 172.631322 
z
" style="fill: #8172b3; stroke: #ffffff; stroke-linejoin: miter"/>
   </g>
   <g id="patch_7">
    <path d="M 348.615142 148.567583 
C 348.169339 146.226811 347.658194 143.898956 347.082306 141.586748 
C 346.506418 139.274539 345.866011 136.978879 345.161837 134.702458 
L 223.000969 172.490958 
z
" style="fill: #937860; stroke: #ffffff; stroke-linejoin: miter"/>
   </g>
   <g id="patch_8">
    <path d="M 345.129273 134.592862 
C 344.706786 133.227066 344.261424 131.868451 343.793374 130.517591 
C 343.325324 129.166731 342.834653 127.823815 342.321567 126.48941 
L 222.968405 172.381362 
z
" style="fill: #da8bc3; stroke: #ffffff; stroke-linejoin: miter"/>
   </g>
   <g id="patch_9">
    <path d="M 342.29629 126.422558 
C 341.954237 125.532966 341.602249 124.647226 341.240392 123.765504 
C 340.878534 122.883783 340.506831 122.006134 340.12535 121.132724 
L 222.943128 172.31451 
z
" style="fill: #8c8c8c; stroke: #ffffff; stroke-linejoin: miter"/>
   </g>
   <g id="patch_10">
    <path d="M 340.102464 121.080324 
C 339.720983 120.206913 339.32975 119.337795 338.928837 118.473131 
C 338.527924 117.608468 338.117356 116.748314 337.697211 115.892831 
L 222.920242 172.26211 
z
" style="fill: #ccb974; stroke: #ffffff; stroke-linejoin: miter"/>
   </g>
   <g id="patch_11">
    <path d="M 337.678521 115.854231 
C 337.46845 115.426493 337.25599 114.999932 337.04115 114.574569 
C 336.82631 114.149206 336.609094 113.725047 336.389513 113.302113 
L 222.901552 172.223511 
z
" style="fill: #64b5cd; stroke: #ffffff; stroke-linejoin: miter"/>
   </g>
   <g id="patch_12">
    <path d="M 336.376338 113.276737 
C 336.156756 112.853803 335.934812 112.432099 335.710515 112.011645 
C 335.486219 111.591192 335.259574 111.171996 335.030591 110.754077 
L 222.888377 172.198135 
z
" style="fill: #4c72b0; stroke: #ffffff; stroke-linejoin: miter"/>
   </g>
   <g id="patch_13">
    <path d="M 335.016852 110.729002 
C 334.787869 110.311083 334.556552 109.894446 334.322911 109.479113 
C 334.08927 109.06378 333.853309 108.649756 333.615039 108.237061 
L 222.874639 172.173061 
z
" style="fill: #dd8452; stroke: #ffffff; stroke-linejoin: miter"/>
   </g>
   <g id="text_1">
    <!-- date -->
    <g style="fill: #262626" transform="translate(64.097155 125.706627) scale(0.11 -0.11)">
     <defs>
      <path id="DejaVuSans-47" d="M 2906 2969 
L 2906 4863 
L 3481 4863 
L 3481 0 
L 2906 0 
L 2906 525 
Q 2725 213 2448 61 
Q 2172 -91 1784 -91 
Q 1150 -91 751 415 
Q 353 922 353 1747 
Q 353 2572 751 3078 
Q 1150 3584 1784 3584 
Q 2172 3584 2448 3432 
Q 2725 3281 2906 2969 
z
M 947 1747 
Q 947 1113 1208 752 
Q 1469 391 1925 391 
Q 2381 391 2643 752 
Q 2906 1113 2906 1747 
Q 2906 2381 2643 2742 
Q 2381 3103 1925 3103 
Q 1469 3103 1208 2742 
Q 947 2381 947 1747 
z
" transform="scale(0.015625)"/>
      <path id="DejaVuSans-44" d="M 2194 1759 
Q 1497 1759 1228 1600 
Q 959 1441 959 1056 
Q 959 750 1161 570 
Q 1363 391 1709 391 
Q 2188 391 2477 730 
Q 2766 1069 2766 1631 
L 2766 1759 
L 2194 1759 
z
M 3341 1997 
L 3341 0 
L 2766 0 
L 2766 531 
Q 2569 213 2275 61 
Q 1981 -91 1556 -91 
Q 1019 -91 701 211 
Q 384 513 384 1019 
Q 384 1609 779 1909 
Q 1175 2209 1959 2209 
L 2766 2209 
L 2766 2266 
Q 2766 2663 2505 2880 
Q 2244 3097 1772 3097 
Q 1472 3097 1187 3025 
Q 903 2953 641 2809 
L 641 3341 
Q 956 3463 1253 3523 
Q 1550 3584 1831 3584 
Q 2591 3584 2966 3190 
Q 3341 2797 3341 1997 
z
" transform="scale(0.015625)"/>
      <path id="DejaVuSans-57" d="M 1172 4494 
L 1172 3500 
L 2356 3500 
L 2356 3053 
L 1172 3053 
L 1172 1153 
Q 1172 725 1289 603 
Q 1406 481 1766 481 
L 2356 481 
L 2356 0 
L 1766 0 
Q 1100 0 847 248 
Q 594 497 594 1153 
L 594 3053 
L 172 3053 
L 172 3500 
L 594 3500 
L 594 4494 
L 1172 4494 
z
" transform="scale(0.015625)"/>
      <path id="DejaVuSans-48" d="M 3597 1894 
L 3597 1613 
L 953 1613 
Q 991 1019 1311 708 
Q 1631 397 2203 397 
Q 2534 397 2845 478 
Q 3156 559 3463 722 
L 3463 178 
Q 3153 47 2828 -22 
Q 2503 -91 2169 -91 
Q 1331 -91 842 396 
Q 353 884 353 1716 
Q 353 2575 817 3079 
Q 1281 3584 2069 3584 
Q 2775 3584 3186 3129 
Q 3597 2675 3597 1894 
z
M 3022 2063 
Q 3016 2534 2758 2815 
Q 2500 3097 2075 3097 
Q 1594 3097 1305 2825 
Q 1016 2553 972 2059 
L 3022 2063 
z
" transform="scale(0.015625)"/>
     </defs>
     <use xlink:href="#DejaVuSans-47"/>
     <use xlink:href="#DejaVuSans-44" transform="translate(63.484375 0)"/>
     <use xlink:href="#DejaVuSans-57" transform="translate(124.765625 0)"/>
     <use xlink:href="#DejaVuSans-48" transform="translate(163.96875 0)"/>
    </g>
   </g>
   <g id="text_2">
    <!-- semver -->
    <g style="fill: #262626" transform="translate(317.635774 280.319922) scale(0.11 -0.11)">
     <defs>
      <path id="DejaVuSans-56" d="M 2834 3397 
L 2834 2853 
Q 2591 2978 2328 3040 
Q 2066 3103 1784 3103 
Q 1356 3103 1142 2972 
Q 928 2841 928 2578 
Q 928 2378 1081 2264 
Q 1234 2150 1697 2047 
L 1894 2003 
Q 2506 1872 2764 1633 
Q 3022 1394 3022 966 
Q 3022 478 2636 193 
Q 2250 -91 1575 -91 
Q 1294 -91 989 -36 
Q 684 19 347 128 
L 347 722 
Q 666 556 975 473 
Q 1284 391 1588 391 
Q 1994 391 2212 530 
Q 2431 669 2431 922 
Q 2431 1156 2273 1281 
Q 2116 1406 1581 1522 
L 1381 1569 
Q 847 1681 609 1914 
Q 372 2147 372 2553 
Q 372 3047 722 3315 
Q 1072 3584 1716 3584 
Q 2034 3584 2315 3537 
Q 2597 3491 2834 3397 
z
" transform="scale(0.015625)"/>
      <path id="DejaVuSans-50" d="M 3328 2828 
Q 3544 3216 3844 3400 
Q 4144 3584 4550 3584 
Q 5097 3584 5394 3201 
Q 5691 2819 5691 2113 
L 5691 0 
L 5113 0 
L 5113 2094 
Q 5113 2597 4934 2840 
Q 4756 3084 4391 3084 
Q 3944 3084 3684 2787 
Q 3425 2491 3425 1978 
L 3425 0 
L 2847 0 
L 2847 2094 
Q 2847 2600 2669 2842 
Q 2491 3084 2119 3084 
Q 1678 3084 1418 2786 
Q 1159 2488 1159 1978 
L 1159 0 
L 581 0 
L 581 3500 
L 1159 3500 
L 1159 2956 
Q 1356 3278 1631 3431 
Q 1906 3584 2284 3584 
Q 2666 3584 2933 3390 
Q 3200 3197 3328 2828 
z
" transform="scale(0.015625)"/>
      <path id="DejaVuSans-59" d="M 191 3500 
L 800 3500 
L 1894 563 
L 2988 3500 
L 3597 3500 
L 2284 0 
L 1503 0 
L 191 3500 
z
" transform="scale(0.015625)"/>
      <path id="DejaVuSans-55" d="M 2631 2963 
Q 2534 3019 2420 3045 
Q 2306 3072 2169 3072 
Q 1681 3072 1420 2755 
Q 1159 2438 1159 1844 
L 1159 0 
L 581 0 
L 581 3500 
L 1159 3500 
L 1159 2956 
Q 1341 3275 1631 3429 
Q 1922 3584 2338 3584 
Q 2397 3584 2469 3576 
Q 2541 3569 2628 3553 
L 2631 2963 
z
" transform="scale(0.015625)"/>
     </defs>
     <use xlink:href="#DejaVuSans-56"/>
     <use xlink:href="#DejaVuSans-48" transform="translate(52.09375 0)"/>
     <use xlink:href="#DejaVuSans-50" transform="translate(113.625 0)"/>
     <use xlink:href="#DejaVuSans-59" transform="translate(211.03125 0)"/>
     <use xlink:href="#DejaVuSans-48" transform="translate(270.21875 0)"/>
     <use xlink:href="#DejaVuSans-55" transform="translate(331.75 0)"/>
    </g>
   </g>
   <g id="text_3">
    <!-- sequential -->
    <g style="fill: #262626" transform="translate(358.116717 215.069288) scale(0.11 -0.11)">
     <defs>
      <path id="DejaVuSans-54" d="M 947 1747 
Q 947 1113 1208 752 
Q 1469 391 1925 391 
Q 2381 391 2643 752 
Q 2906 1113 2906 1747 
Q 2906 2381 2643 2742 
Q 2381 3103 1925 3103 
Q 1469 3103 1208 2742 
Q 947 2381 947 1747 
z
M 2906 525 
Q 2725 213 2448 61 
Q 2172 -91 1784 -91 
Q 1150 -91 751 415 
Q 353 922 353 1747 
Q 353 2572 751 3078 
Q 1150 3584 1784 3584 
Q 2172 3584 2448 3432 
Q 2725 3281 2906 2969 
L 2906 3500 
L 3481 3500 
L 3481 -1331 
L 2906 -1331 
L 2906 525 
z
" transform="scale(0.015625)"/>
      <path id="DejaVuSans-58" d="M 544 1381 
L 544 3500 
L 1119 3500 
L 1119 1403 
Q 1119 906 1312 657 
Q 1506 409 1894 409 
Q 2359 409 2629 706 
Q 2900 1003 2900 1516 
L 2900 3500 
L 3475 3500 
L 3475 0 
L 2900 0 
L 2900 538 
Q 2691 219 2414 64 
Q 2138 -91 1772 -91 
Q 1169 -91 856 284 
Q 544 659 544 1381 
z
M 1991 3584 
L 1991 3584 
z
" transform="scale(0.015625)"/>
      <path id="DejaVuSans-51" d="M 3513 2113 
L 3513 0 
L 2938 0 
L 2938 2094 
Q 2938 2591 2744 2837 
Q 2550 3084 2163 3084 
Q 1697 3084 1428 2787 
Q 1159 2491 1159 1978 
L 1159 0 
L 581 0 
L 581 3500 
L 1159 3500 
L 1159 2956 
Q 1366 3272 1645 3428 
Q 1925 3584 2291 3584 
Q 2894 3584 3203 3211 
Q 3513 2838 3513 2113 
z
" transform="scale(0.015625)"/>
      <path id="DejaVuSans-4c" d="M 603 3500 
L 1178 3500 
L 1178 0 
L 603 0 
L 603 3500 
z
M 603 4863 
L 1178 4863 
L 1178 4134 
L 603 4134 
L 603 4863 
z
" transform="scale(0.015625)"/>
      <path id="DejaVuSans-4f" d="M 603 4863 
L 1178 4863 
L 1178 0 
L 603 0 
L 603 4863 
z
" transform="scale(0.015625)"/>
     </defs>
     <use xlink:href="#DejaVuSans-56"/>
     <use xlink:href="#DejaVuSans-48" transform="translate(52.09375 0)"/>
     <use xlink:href="#DejaVuSans-54" transform="translate(113.625 0)"/>
     <use xlink:href="#DejaVuSans-58" transform="translate(177.109375 0)"/>
     <use xlink:href="#DejaVuSans-48" transform="translate(240.484375 0)"/>
     <use xlink:href="#DejaVuSans-51" transform="translate(302.015625 0)"/>
     <use xlink:href="#DejaVuSans-57" transform="translate(365.390625 0)"/>
     <use xlink:href="#DejaVuSans-4c" transform="translate(404.59375 0)"/>
     <use xlink:href="#DejaVuSans-44" transform="translate(432.375 0)"/>
     <use xlink:href="#DejaVuSans-4f" transform="translate(493.65625 0)"/>
    </g>
   </g>
   <g id="text_4">
    <!-- semver_minor -->
    <g style="fill: #262626" transform="translate(363.609132 180.681898) scale(0.11 -0.11)">
     <defs>
      <path id="DejaVuSans-42" d="M 3263 -1063 
L 3263 -1509 
L -63 -1509 
L -63 -1063 
L 3263 -1063 
z
" transform="scale(0.015625)"/>
      <path id="DejaVuSans-52" d="M 1959 3097 
Q 1497 3097 1228 2736 
Q 959 2375 959 1747 
Q 959 1119 1226 758 
Q 1494 397 1959 397 
Q 2419 397 2687 759 
Q 2956 1122 2956 1747 
Q 2956 2369 2687 2733 
Q 2419 3097 1959 3097 
z
M 1959 3584 
Q 2709 3584 3137 3096 
Q 3566 2609 3566 1747 
Q 3566 888 3137 398 
Q 2709 -91 1959 -91 
Q 1206 -91 779 398 
Q 353 888 353 1747 
Q 353 2609 779 3096 
Q 1206 3584 1959 3584 
z
" transform="scale(0.015625)"/>
     </defs>
     <use xlink:href="#DejaVuSans-56"/>
     <use xlink:href="#DejaVuSans-48" transform="translate(52.09375 0)"/>
     <use xlink:href="#DejaVuSans-50" transform="translate(113.625 0)"/>
     <use xlink:href="#DejaVuSans-59" transform="translate(211.03125 0)"/>
     <use xlink:href="#DejaVuSans-48" transform="translate(270.21875 0)"/>
     <use xlink:href="#DejaVuSans-55" transform="translate(331.75 0)"/>
     <use xlink:href="#DejaVuSans-42" transform="translate(372.859375 0)"/>
     <use xlink:href="#DejaVuSans-50" transform="translate(422.859375 0)"/>
     <use xlink:href="#DejaVuSans-4c" transform="translate(520.265625 0)"/>
     <use xlink:href="#DejaVuSans-51" transform="translate(548.046875 0)"/>
     <use xlink:href="#DejaVuSans-52" transform="translate(611.421875 0)"/>
     <use xlink:href="#DejaVuSans-55" transform="translate(672.609375 0)"/>
    </g>
   </g>
   <g id="text_5">
    <!-- other -->
    <g style="fill: #262626" transform="translate(362.457749 156.934591) scale(0.11 -0.11)">
     <defs>
      <path id="DejaVuSans-4b" d="M 3513 2113 
L 3513 0 
L 2938 0 
L 2938 2094 
Q 2938 2591 2744 2837 
Q 2550 3084 2163 3084 
Q 1697 3084 1428 2787 
Q 1159 2491 1159 1978 
L 1159 0 
L 581 0 
L 581 4863 
L 1159 4863 
L 1159 2956 
Q 1366 3272 1645 3428 
Q 1925 3584 2291 3584 
Q 2894 3584 3203 3211 
Q 3513 2838 3513 2113 
z
" transform="scale(0.015625)"/>
     </defs>
     <use xlink:href="#DejaVuSans-52"/>
     <use xlink:href="#DejaVuSans-57" transform="translate(61.1875 0)"/>
     <use xlink:href="#DejaVuSans-4b" transform="translate(100.390625 0)"/>
     <use xlink:href="#DejaVuSans-48" transform="translate(163.765625 0)"/>
     <use xlink:href="#DejaVuSans-55" transform="translate(225.296875 0)"/>
    </g>
   </g>
   <g id="text_6">
    <!-- missing -->
    <g style="fill: #262626" transform="translate(359.49044 141.354178) scale(0.11 -0.11)">
     <defs>
      <path id="DejaVuSans-4a" d="M 2906 1791 
Q 2906 2416 2648 2759 
Q 2391 3103 1925 3103 
Q 1463 3103 1205 2759 
Q 947 2416 947 1791 
Q 947 1169 1205 825 
Q 1463 481 1925 481 
Q 2391 481 2648 825 
Q 2906 1169 2906 1791 
z
M 3481 434 
Q 3481 -459 3084 -895 
Q 2688 -1331 1869 -1331 
Q 1566 -1331 1297 -1286 
Q 1028 -1241 775 -1147 
L 775 -588 
Q 1028 -725 1275 -790 
Q 1522 -856 1778 -856 
Q 2344 -856 2625 -561 
Q 2906 -266 2906 331 
L 2906 616 
Q 2728 306 2450 153 
Q 2172 0 1784 0 
Q 1141 0 747 490 
Q 353 981 353 1791 
Q 353 2603 747 3093 
Q 1141 3584 1784 3584 
Q 2172 3584 2450 3431 
Q 2728 3278 2906 2969 
L 2906 3500 
L 3481 3500 
L 3481 434 
z
" transform="scale(0.015625)"/>
     </defs>
     <use xlink:href="#DejaVuSans-50"/>
     <use xlink:href="#DejaVuSans-4c" transform="translate(97.40625 0)"/>
     <use xlink:href="#DejaVuSans-56" transform="translate(125.1875 0)"/>
     <use xlink:href="#DejaVuSans-56" transform="translate(177.28125 0)"/>
     <use xlink:href="#DejaVuSans-4c" transform="translate(229.375 0)"/>
     <use xlink:href="#DejaVuSans-51" transform="translate(257.15625 0)"/>
     <use xlink:href="#DejaVuSans-4a" transform="translate(320.53125 0)"/>
    </g>
   </g>
   <g id="text_7">
    <!-- month -->
    <g style="fill: #262626" transform="translate(355.875871 129.189066) scale(0.11 -0.11)">
     <use xlink:href="#DejaVuSans-50"/>
     <use xlink:href="#DejaVuSans-52" transform="translate(97.40625 0)"/>
     <use xlink:href="#DejaVuSans-51" transform="translate(158.59375 0)"/>
     <use xlink:href="#DejaVuSans-57" transform="translate(221.96875 0)"/>
     <use xlink:href="#DejaVuSans-4b" transform="translate(261.171875 0)"/>
    </g>
   </g>
   <g id="text_8">
    <!-- year_minor -->
    <g style="fill: #262626" transform="translate(353.070118 121.768456) scale(0.11 -0.11)">
     <defs>
      <path id="DejaVuSans-5c" d="M 2059 -325 
Q 1816 -950 1584 -1140 
Q 1353 -1331 966 -1331 
L 506 -1331 
L 506 -850 
L 844 -850 
Q 1081 -850 1212 -737 
Q 1344 -625 1503 -206 
L 1606 56 
L 191 3500 
L 800 3500 
L 1894 763 
L 2988 3500 
L 3597 3500 
L 2059 -325 
z
" transform="scale(0.015625)"/>
     </defs>
     <use xlink:href="#DejaVuSans-5c"/>
     <use xlink:href="#DejaVuSans-48" transform="translate(59.1875 0)"/>
     <use xlink:href="#DejaVuSans-44" transform="translate(120.71875 0)"/>
     <use xlink:href="#DejaVuSans-55" transform="translate(182 0)"/>
     <use xlink:href="#DejaVuSans-42" transform="translate(223.109375 0)"/>
     <use xlink:href="#DejaVuSans-50" transform="translate(273.109375 0)"/>
     <use xlink:href="#DejaVuSans-4c" transform="translate(370.515625 0)"/>
     <use xlink:href="#DejaVuSans-51" transform="translate(398.296875 0)"/>
     <use xlink:href="#DejaVuSans-52" transform="translate(461.671875 0)"/>
     <use xlink:href="#DejaVuSans-55" transform="translate(522.859375 0)"/>
    </g>
   </g>
   <g id="text_9">
    <!-- garbage -->
    <g style="fill: #262626" transform="translate(350.529696 115.952085) scale(0.11 -0.11)">
     <defs>
      <path id="DejaVuSans-45" d="M 3116 1747 
Q 3116 2381 2855 2742 
Q 2594 3103 2138 3103 
Q 1681 3103 1420 2742 
Q 1159 2381 1159 1747 
Q 1159 1113 1420 752 
Q 1681 391 2138 391 
Q 2594 391 2855 752 
Q 3116 1113 3116 1747 
z
M 1159 2969 
Q 1341 3281 1617 3432 
Q 1894 3584 2278 3584 
Q 2916 3584 3314 3078 
Q 3713 2572 3713 1747 
Q 3713 922 3314 415 
Q 2916 -91 2278 -91 
Q 1894 -91 1617 61 
Q 1341 213 1159 525 
L 1159 0 
L 581 0 
L 581 4863 
L 1159 4863 
L 1159 2969 
z
" transform="scale(0.015625)"/>
     </defs>
     <use xlink:href="#DejaVuSans-4a"/>
     <use xlink:href="#DejaVuSans-44" transform="translate(63.484375 0)"/>
     <use xlink:href="#DejaVuSans-55" transform="translate(124.765625 0)"/>
     <use xlink:href="#DejaVuSans-45" transform="translate(165.875 0)"/>
     <use xlink:href="#DejaVuSans-44" transform="translate(229.359375 0)"/>
     <use xlink:href="#DejaVuSans-4a" transform="translate(290.640625 0)"/>
     <use xlink:href="#DejaVuSans-48" transform="translate(354.125 0)"/>
    </g>
   </g>
   <g id="text_10">
    <!-- year -->
    <g style="fill: #262626" transform="translate(348.45511 111.667097) scale(0.11 -0.11)">
     <use xlink:href="#DejaVuSans-5c"/>
     <use xlink:href="#DejaVuSans-48" transform="translate(59.1875 0)"/>
     <use xlink:href="#DejaVuSans-44" transform="translate(120.71875 0)"/>
     <use xlink:href="#DejaVuSans-55" transform="translate(182 0)"/>
    </g>
   </g>
   <g id="text_11">
    <!-- daily -->
    <g style="fill: #262626" transform="translate(346.992729 108.850848) scale(0.11 -0.11)">
     <use xlink:href="#DejaVuSans-47"/>
     <use xlink:href="#DejaVuSans-44" transform="translate(63.484375 0)"/>
     <use xlink:href="#DejaVuSans-4c" transform="translate(124.765625 0)"/>
     <use xlink:href="#DejaVuSans-4f" transform="translate(152.546875 0)"/>
     <use xlink:href="#DejaVuSans-5c" transform="translate(180.328125 0)"/>
    </g>
   </g>
   <g id="text_12">
    <!-- static -->
    <g style="fill: #262626" transform="translate(345.467738 106.06757) scale(0.11 -0.11)">
     <defs>
      <path id="DejaVuSans-46" d="M 3122 3366 
L 3122 2828 
Q 2878 2963 2633 3030 
Q 2388 3097 2138 3097 
Q 1578 3097 1268 2742 
Q 959 2388 959 1747 
Q 959 1106 1268 751 
Q 1578 397 2138 397 
Q 2388 397 2633 464 
Q 2878 531 3122 666 
L 3122 134 
Q 2881 22 2623 -34 
Q 2366 -91 2075 -91 
Q 1284 -91 818 406 
Q 353 903 353 1747 
Q 353 2603 823 3093 
Q 1294 3584 2113 3584 
Q 2378 3584 2631 3529 
Q 2884 3475 3122 3366 
z
" transform="scale(0.015625)"/>
     </defs>
     <use xlink:href="#DejaVuSans-56"/>
     <use xlink:href="#DejaVuSans-57" transform="translate(52.09375 0)"/>
     <use xlink:href="#DejaVuSans-44" transform="translate(91.296875 0)"/>
     <use xlink:href="#DejaVuSans-57" transform="translate(152.578125 0)"/>
     <use xlink:href="#DejaVuSans-4c" transform="translate(191.78125 0)"/>
     <use xlink:href="#DejaVuSans-46" transform="translate(219.5625 0)"/>
    </g>
   </g>
   <g id="text_13">
    <!-- 72% -->
    <g style="fill: #262626" transform="translate(135.412164 148.466514) scale(0.12 -0.12)">
     <defs>
      <path id="DejaVuSans-1a" d="M 525 4666 
L 3525 4666 
L 3525 4397 
L 1831 0 
L 1172 0 
L 2766 4134 
L 525 4134 
L 525 4666 
z
" transform="scale(0.015625)"/>
      <path id="DejaVuSans-15" d="M 1228 531 
L 3431 531 
L 3431 0 
L 469 0 
L 469 531 
Q 828 903 1448 1529 
Q 2069 2156 2228 2338 
Q 2531 2678 2651 2914 
Q 2772 3150 2772 3378 
Q 2772 3750 2511 3984 
Q 2250 4219 1831 4219 
Q 1534 4219 1204 4116 
Q 875 4013 500 3803 
L 500 4441 
Q 881 4594 1212 4672 
Q 1544 4750 1819 4750 
Q 2544 4750 2975 4387 
Q 3406 4025 3406 3419 
Q 3406 3131 3298 2873 
Q 3191 2616 2906 2266 
Q 2828 2175 2409 1742 
Q 1991 1309 1228 531 
z
" transform="scale(0.015625)"/>
      <path id="DejaVuSans-8" d="M 4653 2053 
Q 4381 2053 4226 1822 
Q 4072 1591 4072 1178 
Q 4072 772 4226 539 
Q 4381 306 4653 306 
Q 4919 306 5073 539 
Q 5228 772 5228 1178 
Q 5228 1588 5073 1820 
Q 4919 2053 4653 2053 
z
M 4653 2450 
Q 5147 2450 5437 2106 
Q 5728 1763 5728 1178 
Q 5728 594 5436 251 
Q 5144 -91 4653 -91 
Q 4153 -91 3862 251 
Q 3572 594 3572 1178 
Q 3572 1766 3864 2108 
Q 4156 2450 4653 2450 
z
M 1428 4353 
Q 1159 4353 1004 4120 
Q 850 3888 850 3481 
Q 850 3069 1003 2837 
Q 1156 2606 1428 2606 
Q 1700 2606 1854 2837 
Q 2009 3069 2009 3481 
Q 2009 3884 1853 4118 
Q 1697 4353 1428 4353 
z
M 4250 4750 
L 4750 4750 
L 1831 -91 
L 1331 -91 
L 4250 4750 
z
M 1428 4750 
Q 1922 4750 2215 4408 
Q 2509 4066 2509 3481 
Q 2509 2891 2217 2550 
Q 1925 2209 1428 2209 
Q 931 2209 642 2551 
Q 353 2894 353 3481 
Q 353 4063 643 4406 
Q 934 4750 1428 4750 
z
" transform="scale(0.015625)"/>
     </defs>
     <use xlink:href="#DejaVuSans-1a"/>
     <use xlink:href="#DejaVuSans-15" transform="translate(63.625 0)"/>
     <use xlink:href="#DejaVuSans-8" transform="translate(127.25 0)"/>
    </g>
   </g>
   <g id="text_14">
    <!-- 13% -->
    <g style="fill: #262626" transform="translate(261.112621 233.434417) scale(0.12 -0.12)">
     <defs>
      <path id="DejaVuSans-14" d="M 794 531 
L 1825 531 
L 1825 4091 
L 703 3866 
L 703 4441 
L 1819 4666 
L 2450 4666 
L 2450 531 
L 3481 531 
L 3481 0 
L 794 0 
L 794 531 
z
" transform="scale(0.015625)"/>
      <path id="DejaVuSans-16" d="M 2597 2516 
Q 3050 2419 3304 2112 
Q 3559 1806 3559 1356 
Q 3559 666 3084 287 
Q 2609 -91 1734 -91 
Q 1441 -91 1130 -33 
Q 819 25 488 141 
L 488 750 
Q 750 597 1062 519 
Q 1375 441 1716 441 
Q 2309 441 2620 675 
Q 2931 909 2931 1356 
Q 2931 1769 2642 2001 
Q 2353 2234 1838 2234 
L 1294 2234 
L 1294 2753 
L 1863 2753 
Q 2328 2753 2575 2939 
Q 2822 3125 2822 3475 
Q 2822 3834 2567 4026 
Q 2313 4219 1838 4219 
Q 1578 4219 1281 4162 
Q 984 4106 628 3988 
L 628 4550 
Q 988 4650 1302 4700 
Q 1616 4750 1894 4750 
Q 2613 4750 3031 4423 
Q 3450 4097 3450 3541 
Q 3450 3153 3228 2886 
Q 3006 2619 2597 2516 
z
" transform="scale(0.015625)"/>
     </defs>
     <use xlink:href="#DejaVuSans-14"/>
     <use xlink:href="#DejaVuSans-16" transform="translate(63.625 0)"/>
     <use xlink:href="#DejaVuSans-8" transform="translate(127.25 0)"/>
    </g>
   </g>
   <g id="text_15">
    <!-- 4% -->
    <g style="fill: #262626" transform="translate(287.176405 197.575725) scale(0.12 -0.12)">
     <defs>
      <path id="DejaVuSans-17" d="M 2419 4116 
L 825 1625 
L 2419 1625 
L 2419 4116 
z
M 2253 4666 
L 3047 4666 
L 3047 1625 
L 3713 1625 
L 3713 1100 
L 3047 1100 
L 3047 0 
L 2419 0 
L 2419 1100 
L 313 1100 
L 313 1709 
L 2253 4666 
z
" transform="scale(0.015625)"/>
     </defs>
     <use xlink:href="#DejaVuSans-17"/>
     <use xlink:href="#DejaVuSans-8" transform="translate(63.625 0)"/>
    </g>
   </g>
   <g id="text_16">
    <!-- 4% -->
    <g style="fill: #262626" transform="translate(290.194759 178.67815) scale(0.12 -0.12)">
     <use xlink:href="#DejaVuSans-17"/>
     <use xlink:href="#DejaVuSans-8" transform="translate(63.625 0)"/>
    </g>
   </g>
   <g id="text_17">
    <!-- 2% -->
    <g style="fill: #262626" transform="translate(289.562017 165.627828) scale(0.12 -0.12)">
     <use xlink:href="#DejaVuSans-15"/>
     <use xlink:href="#DejaVuSans-8" transform="translate(63.625 0)"/>
    </g>
   </g>
   <g id="text_18">
    <!-- 2% -->
    <g style="fill: #262626" transform="translate(287.931334 157.065619) scale(0.12 -0.12)">
     <use xlink:href="#DejaVuSans-15"/>
     <use xlink:href="#DejaVuSans-8" transform="translate(63.625 0)"/>
    </g>
   </g>
   <g id="text_19">
    <!-- 1% -->
    <g style="fill: #262626" transform="translate(285.944949 150.380287) scale(0.12 -0.12)">
     <use xlink:href="#DejaVuSans-14"/>
     <use xlink:href="#DejaVuSans-8" transform="translate(63.625 0)"/>
    </g>
   </g>
   <g id="text_20">
    <!-- 1% -->
    <g style="fill: #262626" transform="translate(284.403049 146.302294) scale(0.12 -0.12)">
     <use xlink:href="#DejaVuSans-14"/>
     <use xlink:href="#DejaVuSans-8" transform="translate(63.625 0)"/>
    </g>
   </g>
   <g id="text_21">
    <!-- 1% -->
    <g style="fill: #262626" transform="translate(283.006961 143.10591) scale(0.12 -0.12)">
     <use xlink:href="#DejaVuSans-14"/>
     <use xlink:href="#DejaVuSans-8" transform="translate(63.625 0)"/>
    </g>
   </g>
   <g id="text_22">
    <!-- 0% -->
    <g style="fill: #262626" transform="translate(281.866873 140.751333) scale(0.12 -0.12)">
     <defs>
      <path id="DejaVuSans-13" d="M 2034 4250 
Q 1547 4250 1301 3770 
Q 1056 3291 1056 2328 
Q 1056 1369 1301 889 
Q 1547 409 2034 409 
Q 2525 409 2770 889 
Q 3016 1369 3016 2328 
Q 3016 3291 2770 3770 
Q 2525 4250 2034 4250 
z
M 2034 4750 
Q 2819 4750 3233 4129 
Q 3647 3509 3647 2328 
Q 3647 1150 3233 529 
Q 2819 -91 2034 -91 
Q 1250 -91 836 529 
Q 422 1150 422 2328 
Q 422 3509 836 4129 
Q 1250 4750 2034 4750 
z
" transform="scale(0.015625)"/>
     </defs>
     <use xlink:href="#DejaVuSans-13"/>
     <use xlink:href="#DejaVuSans-8" transform="translate(63.625 0)"/>
    </g>
   </g>
   <g id="text_23">
    <!-- 0% -->
    <g style="fill: #262626" transform="translate(281.063223 139.203429) scale(0.12 -0.12)">
     <use xlink:href="#DejaVuSans-13"/>
     <use xlink:href="#DejaVuSans-8" transform="translate(63.625 0)"/>
    </g>
   </g>
   <g id="text_24">
    <!-- 0% -->
    <g style="fill: #262626" transform="translate(280.225164 137.67388) scale(0.12 -0.12)">
     <use xlink:href="#DejaVuSans-13"/>
     <use xlink:href="#DejaVuSans-8" transform="translate(63.625 0)"/>
    </g>
   </g>
  </g>
 </g>
</svg>
