<?xml version="1.0" encoding="utf-8" standalone="no"?>
<!DOCTYPE svg PUBLIC "-//W3C//DTD SVG 1.1//EN"
  "http://www.w3.org/Graphics/SVG/1.1/DTD/svg11.dtd">
<!-- Created with matplotlib (https://matplotlib.org/) -->
<svg height="345.6pt" version="1.1" viewBox="0 0 460.8 345.6" width="460.8pt" xmlns="http://www.w3.org/2000/svg" xmlns:xlink="http://www.w3.org/1999/xlink">
 <metadata>
  <rdf:RDF xmlns:cc="http://creativecommons.org/ns#" xmlns:dc="http://purl.org/dc/elements/1.1/" xmlns:rdf="http://www.w3.org/1999/02/22-rdf-syntax-ns#">
   <cc:Work>
    <dc:type rdf:resource="http://purl.org/dc/dcmitype/StillImage"/>
    <dc:date>2022-02-04T00:46:04.622080</dc:date>
    <dc:format>image/svg+xml</dc:format>
    <dc:creator>
     <cc:Agent>
      <dc:title>Matplotlib v3.3.4, https://matplotlib.org/</dc:title>
     </cc:Agent>
    </dc:creator>
   </cc:Work>
  </rdf:RDF>
 </metadata>
 <defs>
  <style type="text/css">*{stroke-linecap:butt;stroke-linejoin:round;}</style>
 </defs>
 <g id="figure_1">
  <g id="patch_1">
   <path d="M 0 345.6 
L 460.8 345.6 
L 460.8 0 
L 0 0 
z
" style="fill:#ffffff;"/>
  </g>
  <g id="axes_1">
   <g id="matplotlib.axis_1"/>
   <g id="matplotlib.axis_2"/>
   <g id="patch_2">
    <path d="M 339.930965 109.2792 
C 332.053495 95.635021 321.721812 83.563458 309.457458 73.67388 
C 297.193103 63.784302 283.205975 56.245965 268.202139 51.4394 
C 253.198304 46.632835 237.434544 44.640306 221.70661 45.562394 
C 205.978676 46.484482 190.555745 50.305407 176.21636 56.832289 
C 161.876975 63.35917 148.866549 72.480305 137.841843 83.735261 
C 126.817138 94.990216 117.966836 108.186369 111.737699 122.657581 
C 105.508562 137.128794 102.007197 152.627398 101.410353 168.37103 
C 100.813509 184.114661 103.131401 199.833874 108.247022 214.735169 
C 113.362642 229.636463 121.18844 243.46481 131.329372 255.522158 
C 141.470304 267.579507 153.752812 277.659501 167.556879 285.253306 
C 181.360947 292.847111 196.450323 297.824762 212.063301 299.93499 
C 227.676279 302.045217 243.54565 301.251906 258.870334 297.5951 
C 274.195017 293.938295 288.712738 287.480581 301.690646 278.547942 
C 314.668555 269.615302 325.884539 258.360615 334.772421 245.352014 
C 343.660303 232.343413 350.06797 217.803533 353.671964 202.466344 
C 357.275959 187.129155 358.014602 171.257145 355.850605 155.651529 
L 229.190565 173.2152 
L 339.930965 109.2792 
z
" style="fill:#4c72b0;stroke:#ffffff;stroke-linejoin:miter;"/>
   </g>
   <g id="patch_3">
    <path d="M 358.299632 154.922422 
C 357.654113 150.267276 356.752448 145.651256 355.598743 141.095376 
C 354.445038 136.539496 353.041045 132.050682 351.393158 127.64937 
L 231.639592 172.486093 
L 358.299632 154.922422 
z
" style="fill:#dd8452;stroke:#ffffff;stroke-linejoin:miter;"/>
   </g>
   <g id="patch_4">
    <path d="M 351.344811 127.498453 
C 351.138876 126.948426 350.929155 126.399824 350.715661 125.852687 
C 350.502167 125.30555 350.284907 124.75989 350.063895 124.215746 
L 231.591244 172.335175 
L 351.344811 127.498453 
z
" style="fill:#55a868;stroke:#ffffff;stroke-linejoin:miter;"/>
   </g>
   <g id="patch_5">
    <path d="M 350.050634 124.183099 
C 349.829622 123.638955 349.604864 123.09634 349.376376 122.555293 
C 349.147887 122.014247 348.915674 121.47478 348.679752 120.936933 
L 231.577984 172.302528 
L 350.050634 124.183099 
z
" style="fill:#c44e52;stroke:#ffffff;stroke-linejoin:miter;"/>
   </g>
   <g id="patch_6">
    <path d="M 348.665597 120.904663 
C 348.429676 120.366816 348.190051 119.830601 347.946741 119.296055 
C 347.703431 118.76151 347.456441 118.228647 347.205789 117.697504 
L 231.563829 172.270258 
L 348.665597 120.904663 
z
" style="fill:#8172b3;stroke:#ffffff;stroke-linejoin:miter;"/>
   </g>
   <g id="patch_7">
    <path d="M 347.190751 117.665637 
C 346.940099 117.134495 346.68579 116.605085 346.427844 116.077447 
C 346.169897 115.549809 345.908318 115.023954 345.643126 114.49992 
L 231.548791 172.238391 
L 347.190751 117.665637 
z
" style="fill:#937860;stroke:#ffffff;stroke-linejoin:miter;"/>
   </g>
   <g id="patch_8">
    <path d="M 345.627215 114.468479 
C 345.362023 113.944445 345.093223 113.422244 344.820836 112.901913 
C 344.548448 112.381583 344.272479 111.863135 343.992949 111.346607 
L 231.53288 172.20695 
L 345.627215 114.468479 
z
" style="fill:#da8bc3;stroke:#ffffff;stroke-linejoin:miter;"/>
   </g>
   <g id="patch_9">
    <path d="M 343.976177 111.315617 
C 343.696646 110.799089 343.41356 110.284493 343.126939 109.771865 
C 342.840317 109.259238 342.550168 108.748591 342.25651 108.239962 
L 231.516108 172.175959 
L 343.976177 111.315617 
z
" style="fill:#8c8c8c;stroke:#ffffff;stroke-linejoin:miter;"/>
   </g>
   <g id="text_1">
    <!-- 94% -->
    <g style="fill:#262626;" transform="translate(143.288501 201.438431)scale(0.12 -0.12)">
     <defs>
      <path d="M 10.984375 1.515625 
L 10.984375 10.5 
Q 14.703125 8.734375 18.5 7.8125 
Q 22.3125 6.890625 25.984375 6.890625 
Q 35.75 6.890625 40.890625 13.453125 
Q 46.046875 20.015625 46.78125 33.40625 
Q 43.953125 29.203125 39.59375 26.953125 
Q 35.25 24.703125 29.984375 24.703125 
Q 19.046875 24.703125 12.671875 31.3125 
Q 6.296875 37.9375 6.296875 49.421875 
Q 6.296875 60.640625 12.9375 67.421875 
Q 19.578125 74.21875 30.609375 74.21875 
Q 43.265625 74.21875 49.921875 64.515625 
Q 56.59375 54.828125 56.59375 36.375 
Q 56.59375 19.140625 48.40625 8.859375 
Q 40.234375 -1.421875 26.421875 -1.421875 
Q 22.703125 -1.421875 18.890625 -0.6875 
Q 15.09375 0.046875 10.984375 1.515625 
z
M 30.609375 32.421875 
Q 37.25 32.421875 41.125 36.953125 
Q 45.015625 41.5 45.015625 49.421875 
Q 45.015625 57.28125 41.125 61.84375 
Q 37.25 66.40625 30.609375 66.40625 
Q 23.96875 66.40625 20.09375 61.84375 
Q 16.21875 57.28125 16.21875 49.421875 
Q 16.21875 41.5 20.09375 36.953125 
Q 23.96875 32.421875 30.609375 32.421875 
z
" id="DejaVuSans-57"/>
      <path d="M 37.796875 64.3125 
L 12.890625 25.390625 
L 37.796875 25.390625 
z
M 35.203125 72.90625 
L 47.609375 72.90625 
L 47.609375 25.390625 
L 58.015625 25.390625 
L 58.015625 17.1875 
L 47.609375 17.1875 
L 47.609375 0 
L 37.796875 0 
L 37.796875 17.1875 
L 4.890625 17.1875 
L 4.890625 26.703125 
z
" id="DejaVuSans-52"/>
      <path d="M 72.703125 32.078125 
Q 68.453125 32.078125 66.03125 28.46875 
Q 63.625 24.859375 63.625 18.40625 
Q 63.625 12.0625 66.03125 8.421875 
Q 68.453125 4.78125 72.703125 4.78125 
Q 76.859375 4.78125 79.265625 8.421875 
Q 81.6875 12.0625 81.6875 18.40625 
Q 81.6875 24.8125 79.265625 28.4375 
Q 76.859375 32.078125 72.703125 32.078125 
z
M 72.703125 38.28125 
Q 80.421875 38.28125 84.953125 32.90625 
Q 89.5 27.546875 89.5 18.40625 
Q 89.5 9.28125 84.9375 3.921875 
Q 80.375 -1.421875 72.703125 -1.421875 
Q 64.890625 -1.421875 60.34375 3.921875 
Q 55.8125 9.28125 55.8125 18.40625 
Q 55.8125 27.59375 60.375 32.9375 
Q 64.9375 38.28125 72.703125 38.28125 
z
M 22.3125 68.015625 
Q 18.109375 68.015625 15.6875 64.375 
Q 13.28125 60.75 13.28125 54.390625 
Q 13.28125 47.953125 15.671875 44.328125 
Q 18.0625 40.71875 22.3125 40.71875 
Q 26.5625 40.71875 28.96875 44.328125 
Q 31.390625 47.953125 31.390625 54.390625 
Q 31.390625 60.6875 28.953125 64.34375 
Q 26.515625 68.015625 22.3125 68.015625 
z
M 66.40625 74.21875 
L 74.21875 74.21875 
L 28.609375 -1.421875 
L 20.796875 -1.421875 
z
M 22.3125 74.21875 
Q 30.03125 74.21875 34.609375 68.875 
Q 39.203125 63.53125 39.203125 54.390625 
Q 39.203125 45.171875 34.640625 39.84375 
Q 30.078125 34.515625 22.3125 34.515625 
Q 14.546875 34.515625 10.03125 39.859375 
Q 5.515625 45.21875 5.515625 54.390625 
Q 5.515625 63.484375 10.046875 68.84375 
Q 14.59375 74.21875 22.3125 74.21875 
z
" id="DejaVuSans-37"/>
     </defs>
     <use xlink:href="#DejaVuSans-57"/>
     <use x="63.623047" xlink:href="#DejaVuSans-52"/>
     <use x="127.246094" xlink:href="#DejaVuSans-37"/>
    </g>
   </g>
   <g id="text_2">
    <!-- %Y-%m-%d -->
    <g style="fill:#262626;" transform="translate(367.994658 140.991617)scale(0.11 -0.11)">
     <defs>
      <path d="M -0.203125 72.90625 
L 10.40625 72.90625 
L 30.609375 42.921875 
L 50.6875 72.90625 
L 61.28125 72.90625 
L 35.5 34.71875 
L 35.5 0 
L 25.59375 0 
L 25.59375 34.71875 
z
" id="DejaVuSans-89"/>
      <path d="M 4.890625 31.390625 
L 31.203125 31.390625 
L 31.203125 23.390625 
L 4.890625 23.390625 
z
" id="DejaVuSans-45"/>
      <path d="M 52 44.1875 
Q 55.375 50.25 60.0625 53.125 
Q 64.75 56 71.09375 56 
Q 79.640625 56 84.28125 50.015625 
Q 88.921875 44.046875 88.921875 33.015625 
L 88.921875 0 
L 79.890625 0 
L 79.890625 32.71875 
Q 79.890625 40.578125 77.09375 44.375 
Q 74.3125 48.1875 68.609375 48.1875 
Q 61.625 48.1875 57.5625 43.546875 
Q 53.515625 38.921875 53.515625 30.90625 
L 53.515625 0 
L 44.484375 0 
L 44.484375 32.71875 
Q 44.484375 40.625 41.703125 44.40625 
Q 38.921875 48.1875 33.109375 48.1875 
Q 26.21875 48.1875 22.15625 43.53125 
Q 18.109375 38.875 18.109375 30.90625 
L 18.109375 0 
L 9.078125 0 
L 9.078125 54.6875 
L 18.109375 54.6875 
L 18.109375 46.1875 
Q 21.1875 51.21875 25.484375 53.609375 
Q 29.78125 56 35.6875 56 
Q 41.65625 56 45.828125 52.96875 
Q 50 49.953125 52 44.1875 
z
" id="DejaVuSans-109"/>
      <path d="M 45.40625 46.390625 
L 45.40625 75.984375 
L 54.390625 75.984375 
L 54.390625 0 
L 45.40625 0 
L 45.40625 8.203125 
Q 42.578125 3.328125 38.25 0.953125 
Q 33.9375 -1.421875 27.875 -1.421875 
Q 17.96875 -1.421875 11.734375 6.484375 
Q 5.515625 14.40625 5.515625 27.296875 
Q 5.515625 40.1875 11.734375 48.09375 
Q 17.96875 56 27.875 56 
Q 33.9375 56 38.25 53.625 
Q 42.578125 51.265625 45.40625 46.390625 
z
M 14.796875 27.296875 
Q 14.796875 17.390625 18.875 11.75 
Q 22.953125 6.109375 30.078125 6.109375 
Q 37.203125 6.109375 41.296875 11.75 
Q 45.40625 17.390625 45.40625 27.296875 
Q 45.40625 37.203125 41.296875 42.84375 
Q 37.203125 48.484375 30.078125 48.484375 
Q 22.953125 48.484375 18.875 42.84375 
Q 14.796875 37.203125 14.796875 27.296875 
z
" id="DejaVuSans-100"/>
     </defs>
     <use xlink:href="#DejaVuSans-37"/>
     <use x="95.019531" xlink:href="#DejaVuSans-89"/>
     <use x="144.228516" xlink:href="#DejaVuSans-45"/>
     <use x="180.3125" xlink:href="#DejaVuSans-37"/>
     <use x="275.332031" xlink:href="#DejaVuSans-109"/>
     <use x="372.744141" xlink:href="#DejaVuSans-45"/>
     <use x="408.828125" xlink:href="#DejaVuSans-37"/>
     <use x="503.847656" xlink:href="#DejaVuSans-100"/>
    </g>
   </g>
   <g id="text_3">
    <!-- 4% -->
    <g style="fill:#262626;" transform="translate(296.496645 156.962913)scale(0.12 -0.12)">
     <use xlink:href="#DejaVuSans-52"/>
     <use x="63.623047" xlink:href="#DejaVuSans-37"/>
    </g>
   </g>
   <g id="text_4">
    <!-- %Y-%b -->
    <g style="fill:#262626;" transform="translate(362.628103 124.23975)scale(0.11 -0.11)">
     <defs>
      <path d="M 48.6875 27.296875 
Q 48.6875 37.203125 44.609375 42.84375 
Q 40.53125 48.484375 33.40625 48.484375 
Q 26.265625 48.484375 22.1875 42.84375 
Q 18.109375 37.203125 18.109375 27.296875 
Q 18.109375 17.390625 22.1875 11.75 
Q 26.265625 6.109375 33.40625 6.109375 
Q 40.53125 6.109375 44.609375 11.75 
Q 48.6875 17.390625 48.6875 27.296875 
z
M 18.109375 46.390625 
Q 20.953125 51.265625 25.265625 53.625 
Q 29.59375 56 35.59375 56 
Q 45.5625 56 51.78125 48.09375 
Q 58.015625 40.1875 58.015625 27.296875 
Q 58.015625 14.40625 51.78125 6.484375 
Q 45.5625 -1.421875 35.59375 -1.421875 
Q 29.59375 -1.421875 25.265625 0.953125 
Q 20.953125 3.328125 18.109375 8.203125 
L 18.109375 0 
L 9.078125 0 
L 9.078125 75.984375 
L 18.109375 75.984375 
z
" id="DejaVuSans-98"/>
     </defs>
     <use xlink:href="#DejaVuSans-37"/>
     <use x="95.019531" xlink:href="#DejaVuSans-89"/>
     <use x="144.228516" xlink:href="#DejaVuSans-45"/>
     <use x="180.3125" xlink:href="#DejaVuSans-37"/>
     <use x="275.332031" xlink:href="#DejaVuSans-98"/>
    </g>
   </g>
   <g id="text_5">
    <!-- 0% -->
    <g style="fill:#262626;" transform="translate(293.547457 147.756932)scale(0.12 -0.12)">
     <defs>
      <path d="M 31.78125 66.40625 
Q 24.171875 66.40625 20.328125 58.90625 
Q 16.5 51.421875 16.5 36.375 
Q 16.5 21.390625 20.328125 13.890625 
Q 24.171875 6.390625 31.78125 6.390625 
Q 39.453125 6.390625 43.28125 13.890625 
Q 47.125 21.390625 47.125 36.375 
Q 47.125 51.421875 43.28125 58.90625 
Q 39.453125 66.40625 31.78125 66.40625 
z
M 31.78125 74.21875 
Q 44.046875 74.21875 50.515625 64.515625 
Q 56.984375 54.828125 56.984375 36.375 
Q 56.984375 17.96875 50.515625 8.265625 
Q 44.046875 -1.421875 31.78125 -1.421875 
Q 19.53125 -1.421875 13.0625 8.265625 
Q 6.59375 17.96875 6.59375 36.375 
Q 6.59375 54.828125 13.0625 64.515625 
Q 19.53125 74.21875 31.78125 74.21875 
z
" id="DejaVuSans-48"/>
     </defs>
     <use xlink:href="#DejaVuSans-48"/>
     <use x="63.623047" xlink:href="#DejaVuSans-37"/>
    </g>
   </g>
   <g id="text_6">
    <!-- %Y_%m_%d -->
    <g style="fill:#262626;" transform="translate(361.156215 120.462914)scale(0.11 -0.11)">
     <defs>
      <path d="M 50.984375 -16.609375 
L 50.984375 -23.578125 
L -0.984375 -23.578125 
L -0.984375 -16.609375 
z
" id="DejaVuSans-95"/>
     </defs>
     <use xlink:href="#DejaVuSans-37"/>
     <use x="95.019531" xlink:href="#DejaVuSans-89"/>
     <use x="156.103516" xlink:href="#DejaVuSans-95"/>
     <use x="206.103516" xlink:href="#DejaVuSans-37"/>
     <use x="301.123047" xlink:href="#DejaVuSans-109"/>
     <use x="398.535156" xlink:href="#DejaVuSans-95"/>
     <use x="448.535156" xlink:href="#DejaVuSans-37"/>
     <use x="543.554688" xlink:href="#DejaVuSans-100"/>
    </g>
   </g>
   <g id="text_7">
    <!-- 0% -->
    <g style="fill:#262626;" transform="translate(292.738581 145.765437)scale(0.12 -0.12)">
     <use xlink:href="#DejaVuSans-48"/>
     <use x="63.623047" xlink:href="#DejaVuSans-37"/>
    </g>
   </g>
   <g id="text_8">
    <!-- %d-%b-%Y -->
    <g style="fill:#262626;" transform="translate(359.585032 117.033947)scale(0.11 -0.11)">
     <use xlink:href="#DejaVuSans-37"/>
     <use x="95.019531" xlink:href="#DejaVuSans-100"/>
     <use x="158.496094" xlink:href="#DejaVuSans-45"/>
     <use x="194.580078" xlink:href="#DejaVuSans-37"/>
     <use x="289.599609" xlink:href="#DejaVuSans-98"/>
     <use x="353.076172" xlink:href="#DejaVuSans-45"/>
     <use x="389.160156" xlink:href="#DejaVuSans-37"/>
     <use x="484.179688" xlink:href="#DejaVuSans-89"/>
    </g>
   </g>
   <g id="text_9">
    <!-- 0% -->
    <g style="fill:#262626;" transform="translate(291.875139 143.796986)scale(0.12 -0.12)">
     <use xlink:href="#DejaVuSans-48"/>
     <use x="63.623047" xlink:href="#DejaVuSans-37"/>
    </g>
   </g>
   <g id="text_10">
    <!-- %Y_%m -->
    <g style="fill:#262626;" transform="translate(357.915749 113.246587)scale(0.11 -0.11)">
     <use xlink:href="#DejaVuSans-37"/>
     <use x="95.019531" xlink:href="#DejaVuSans-89"/>
     <use x="156.103516" xlink:href="#DejaVuSans-95"/>
     <use x="206.103516" xlink:href="#DejaVuSans-37"/>
     <use x="301.123047" xlink:href="#DejaVuSans-109"/>
    </g>
   </g>
   <g id="text_11">
    <!-- 0% -->
    <g style="fill:#262626;" transform="translate(290.957785 141.853074)scale(0.12 -0.12)">
     <use xlink:href="#DejaVuSans-48"/>
     <use x="63.623047" xlink:href="#DejaVuSans-37"/>
    </g>
   </g>
   <g id="text_12">
    <!-- %Y%m%d -->
    <g style="fill:#262626;" transform="translate(356.149632 110.006722)scale(0.11 -0.11)">
     <use xlink:href="#DejaVuSans-37"/>
     <use x="95.019531" xlink:href="#DejaVuSans-89"/>
     <use x="156.103516" xlink:href="#DejaVuSans-37"/>
     <use x="251.123047" xlink:href="#DejaVuSans-109"/>
     <use x="348.535156" xlink:href="#DejaVuSans-37"/>
     <use x="443.554688" xlink:href="#DejaVuSans-100"/>
    </g>
   </g>
   <g id="text_13">
    <!-- 0% -->
    <g style="fill:#262626;" transform="translate(289.987216 139.935178)scale(0.12 -0.12)">
     <use xlink:href="#DejaVuSans-48"/>
     <use x="63.623047" xlink:href="#DejaVuSans-37"/>
    </g>
   </g>
   <g id="text_14">
    <!-- %d %b %Y -->
    <g style="fill:#262626;" transform="translate(354.288022 106.566768)scale(0.11 -0.11)">
     <defs>
      <path id="DejaVuSans-32"/>
     </defs>
     <use xlink:href="#DejaVuSans-37"/>
     <use x="95.019531" xlink:href="#DejaVuSans-100"/>
     <use x="158.496094" xlink:href="#DejaVuSans-32"/>
     <use x="190.283203" xlink:href="#DejaVuSans-37"/>
     <use x="285.302734" xlink:href="#DejaVuSans-98"/>
     <use x="348.779297" xlink:href="#DejaVuSans-32"/>
     <use x="380.566406" xlink:href="#DejaVuSans-37"/>
     <use x="475.585938" xlink:href="#DejaVuSans-89"/>
    </g>
   </g>
   <g id="text_15">
    <!-- 0% -->
    <g style="fill:#262626;" transform="translate(288.964169 138.044753)scale(0.12 -0.12)">
     <use xlink:href="#DejaVuSans-48"/>
     <use x="63.623047" xlink:href="#DejaVuSans-37"/>
    </g>
   </g>
  </g>
 </g>
</svg>
