<?xml version="1.0" encoding="utf-8" standalone="no"?>
<!DOCTYPE svg PUBLIC "-//W3C//DTD SVG 1.1//EN"
  "http://www.w3.org/Graphics/SVG/1.1/DTD/svg11.dtd">
<svg height="345.6pt" version="1.1" viewBox="0 0 460.8 345.6" width="460.8pt" xmlns="http://www.w3.org/2000/svg" xmlns:xlink="http://www.w3.org/1999/xlink">
 <metadata>
  <rdf:RDF xmlns:cc="http://creativecommons.org/ns#" xmlns:dc="http://purl.org/dc/elements/1.1/" xmlns:rdf="http://www.w3.org/1999/02/22-rdf-syntax-ns#">
   <cc:Work>
    <dc:type rdf:resource="http://purl.org/dc/dcmitype/StillImage"/>
    <dc:date>2021-07-27T13:16:59.074946</dc:date>
    <dc:format>image/svg+xml</dc:format>
    <dc:creator>
     <cc:Agent>
      <dc:title>Matplotlib v3.4.2, https://matplotlib.org/</dc:title>
     </cc:Agent>
    </dc:creator>
   </cc:Work>
  </rdf:RDF>
 </metadata>
 <defs>
  <style type="text/css">*{stroke-linecap:butt;stroke-linejoin:round;}</style>
 </defs>
 <g id="figure_1">
  <g id="patch_1">
   <path d="M 0 345.6 
L 460.8 345.6 
L 460.8 0 
L 0 0 
z
" style="fill:#ffffff;"/>
  </g>
  <g id="axes_1">
   <g id="matplotlib.axis_1"/>
   <g id="matplotlib.axis_2"/>
   <g id="patch_2">
    <path d="M 339.961038 109.358195 
C 331.905918 95.406319 321.286242 83.101553 308.662163 73.092935 
C 296.038083 63.084317 281.635533 55.55097 266.214199 50.890254 
C 250.792865 46.229538 234.628742 44.524864 218.574436 45.86615 
C 202.520129 47.207435 186.862961 51.570675 172.428796 58.725722 
C 157.994631 65.880769 145.041796 75.69957 134.253512 87.664215 
C 123.465228 99.62886 115.034571 113.525219 109.406231 128.620305 
C 103.777892 143.71539 101.052599 159.739046 101.374103 175.846077 
C 101.695608 191.953108 105.058156 207.855248 111.284384 222.71371 
C 117.510612 237.572172 126.489089 251.121036 137.746231 262.645644 
C 149.003373 274.170251 162.337711 283.464347 177.045901 290.037697 
C 191.754092 296.611048 207.572904 300.346011 223.667948 301.045579 
C 239.762991 301.745147 255.846213 299.3968 271.069277 294.124406 
C 286.292341 288.852011 300.3828 280.749929 312.597429 270.245518 
C 324.812058 259.741107 334.932252 247.022363 342.424204 232.760159 
C 349.916156 218.497955 354.645784 202.94754 356.363614 186.929148 
C 358.081444 170.910757 356.756733 154.711068 352.459354 139.184563 
L 229.220637 173.294195 
L 339.961038 109.358195 
z
" style="fill:#4c72b0;stroke:#ffffff;stroke-linejoin:miter;"/>
   </g>
   <g id="patch_3">
    <path d="M 354.849937 138.280403 
C 354.209186 135.965357 353.503329 133.668825 352.733208 131.393541 
C 351.963086 129.118258 351.129006 126.865127 350.231959 124.636829 
L 231.61122 172.390035 
L 354.849937 138.280403 
z
" style="fill:#dd8452;stroke:#ffffff;stroke-linejoin:miter;"/>
   </g>
   <g id="patch_4">
    <path d="M 350.200102 124.552599 
C 349.975854 123.995559 349.747685 123.440106 349.515612 122.886281 
C 349.28354 122.332455 349.047569 121.780271 348.807717 121.22977 
L 231.579362 172.305805 
L 350.200102 124.552599 
z
" style="fill:#55a868;stroke:#ffffff;stroke-linejoin:miter;"/>
   </g>
   <g id="patch_5">
    <path d="M 348.793326 121.196741 
C 348.553475 120.64624 348.309748 120.097435 348.062165 119.550368 
C 347.814582 119.0033 347.563149 118.457983 347.307884 117.914458 
L 231.564972 172.272776 
L 348.793326 121.196741 
z
" style="fill:#c44e52;stroke:#ffffff;stroke-linejoin:miter;"/>
   </g>
   <g id="patch_6">
    <path d="M 347.292568 117.881847 
C 347.037303 117.338322 346.778213 116.796601 346.515316 116.256725 
C 346.252419 115.71685 345.985723 115.178833 345.715247 114.642714 
L 231.549657 172.240166 
L 347.292568 117.881847 
z
" style="fill:#8172b3;stroke:#ffffff;stroke-linejoin:miter;"/>
   </g>
   <g id="patch_7">
    <path d="M 345.699019 114.610548 
C 345.428543 114.07443 345.154294 113.540223 344.876292 113.007968 
C 344.59829 112.475713 344.316543 111.945423 344.03107 111.417137 
L 231.533429 172.208 
L 345.699019 114.610548 
z
" style="fill:#937860;stroke:#ffffff;stroke-linejoin:miter;"/>
   </g>
   <g id="patch_8">
    <path d="M 344.013943 111.385441 
C 343.72847 110.857155 343.439281 110.330887 343.146394 109.806675 
C 342.853508 109.282463 342.556933 108.760321 342.256692 108.240287 
L 231.516301 172.176304 
L 344.013943 111.385441 
z
" style="fill:#da8bc3;stroke:#ffffff;stroke-linejoin:miter;"/>
   </g>
   <g id="text_1">
    <!-- 96% -->
    <g style="fill:#262626;" transform="translate(146.450448 206.048092)scale(0.12 -0.12)">
     <defs>
      <path d="M 350 1059 
L 891 1109 
Q 959 728 1153 556 
Q 1347 384 1650 384 
Q 1909 384 2104 503 
Q 2300 622 2425 820 
Q 2550 1019 2634 1356 
Q 2719 1694 2719 2044 
Q 2719 2081 2716 2156 
Q 2547 1888 2255 1720 
Q 1963 1553 1622 1553 
Q 1053 1553 659 1965 
Q 266 2378 266 3053 
Q 266 3750 677 4175 
Q 1088 4600 1706 4600 
Q 2153 4600 2523 4359 
Q 2894 4119 3086 3673 
Q 3278 3228 3278 2384 
Q 3278 1506 3087 986 
Q 2897 466 2520 194 
Q 2144 -78 1638 -78 
Q 1100 -78 759 220 
Q 419 519 350 1059 
z
M 2653 3081 
Q 2653 3566 2395 3850 
Q 2138 4134 1775 4134 
Q 1400 4134 1122 3828 
Q 844 3522 844 3034 
Q 844 2597 1108 2323 
Q 1372 2050 1759 2050 
Q 2150 2050 2401 2323 
Q 2653 2597 2653 3081 
z
" id="ArialMT-39" transform="scale(0.015625)"/>
      <path d="M 3184 3459 
L 2625 3416 
Q 2550 3747 2413 3897 
Q 2184 4138 1850 4138 
Q 1581 4138 1378 3988 
Q 1113 3794 959 3422 
Q 806 3050 800 2363 
Q 1003 2672 1297 2822 
Q 1591 2972 1913 2972 
Q 2475 2972 2870 2558 
Q 3266 2144 3266 1488 
Q 3266 1056 3080 686 
Q 2894 316 2569 119 
Q 2244 -78 1831 -78 
Q 1128 -78 684 439 
Q 241 956 241 2144 
Q 241 3472 731 4075 
Q 1159 4600 1884 4600 
Q 2425 4600 2770 4297 
Q 3116 3994 3184 3459 
z
M 888 1484 
Q 888 1194 1011 928 
Q 1134 663 1356 523 
Q 1578 384 1822 384 
Q 2178 384 2434 671 
Q 2691 959 2691 1453 
Q 2691 1928 2437 2201 
Q 2184 2475 1800 2475 
Q 1419 2475 1153 2201 
Q 888 1928 888 1484 
z
" id="ArialMT-36" transform="scale(0.015625)"/>
      <path d="M 372 3481 
Q 372 3972 619 4315 
Q 866 4659 1334 4659 
Q 1766 4659 2048 4351 
Q 2331 4044 2331 3447 
Q 2331 2866 2045 2552 
Q 1759 2238 1341 2238 
Q 925 2238 648 2547 
Q 372 2856 372 3481 
z
M 1350 4272 
Q 1141 4272 1002 4090 
Q 863 3909 863 3425 
Q 863 2984 1003 2804 
Q 1144 2625 1350 2625 
Q 1563 2625 1702 2806 
Q 1841 2988 1841 3469 
Q 1841 3913 1700 4092 
Q 1559 4272 1350 4272 
z
M 1353 -169 
L 3859 4659 
L 4316 4659 
L 1819 -169 
L 1353 -169 
z
M 3334 1075 
Q 3334 1569 3581 1911 
Q 3828 2253 4300 2253 
Q 4731 2253 5014 1945 
Q 5297 1638 5297 1041 
Q 5297 459 5011 145 
Q 4725 -169 4303 -169 
Q 3888 -169 3611 142 
Q 3334 453 3334 1075 
z
M 4316 1866 
Q 4103 1866 3964 1684 
Q 3825 1503 3825 1019 
Q 3825 581 3965 400 
Q 4106 219 4313 219 
Q 4528 219 4667 400 
Q 4806 581 4806 1063 
Q 4806 1506 4665 1686 
Q 4525 1866 4316 1866 
z
" id="ArialMT-25" transform="scale(0.015625)"/>
     </defs>
     <use xlink:href="#ArialMT-39"/>
     <use x="55.615234" xlink:href="#ArialMT-36"/>
     <use x="111.230469" xlink:href="#ArialMT-25"/>
    </g>
   </g>
   <g id="text_2">
    <!-- %Y-%m-%d -->
    <g style="fill:#262626;" transform="translate(364.845406 130.137564)scale(0.11 -0.11)">
     <defs>
      <path d="M 1784 0 
L 1784 1941 
L 19 4581 
L 756 4581 
L 1659 3200 
Q 1909 2813 2125 2425 
Q 2331 2784 2625 3234 
L 3513 4581 
L 4219 4581 
L 2391 1941 
L 2391 0 
L 1784 0 
z
" id="ArialMT-59" transform="scale(0.015625)"/>
      <path d="M 203 1375 
L 203 1941 
L 1931 1941 
L 1931 1375 
L 203 1375 
z
" id="ArialMT-2d" transform="scale(0.015625)"/>
      <path d="M 422 0 
L 422 3319 
L 925 3319 
L 925 2853 
Q 1081 3097 1340 3245 
Q 1600 3394 1931 3394 
Q 2300 3394 2536 3241 
Q 2772 3088 2869 2813 
Q 3263 3394 3894 3394 
Q 4388 3394 4653 3120 
Q 4919 2847 4919 2278 
L 4919 0 
L 4359 0 
L 4359 2091 
Q 4359 2428 4304 2576 
Q 4250 2725 4106 2815 
Q 3963 2906 3769 2906 
Q 3419 2906 3187 2673 
Q 2956 2441 2956 1928 
L 2956 0 
L 2394 0 
L 2394 2156 
Q 2394 2531 2256 2718 
Q 2119 2906 1806 2906 
Q 1569 2906 1367 2781 
Q 1166 2656 1075 2415 
Q 984 2175 984 1722 
L 984 0 
L 422 0 
z
" id="ArialMT-6d" transform="scale(0.015625)"/>
      <path d="M 2575 0 
L 2575 419 
Q 2259 -75 1647 -75 
Q 1250 -75 917 144 
Q 584 363 401 755 
Q 219 1147 219 1656 
Q 219 2153 384 2558 
Q 550 2963 881 3178 
Q 1213 3394 1622 3394 
Q 1922 3394 2156 3267 
Q 2391 3141 2538 2938 
L 2538 4581 
L 3097 4581 
L 3097 0 
L 2575 0 
z
M 797 1656 
Q 797 1019 1065 703 
Q 1334 388 1700 388 
Q 2069 388 2326 689 
Q 2584 991 2584 1609 
Q 2584 2291 2321 2609 
Q 2059 2928 1675 2928 
Q 1300 2928 1048 2622 
Q 797 2316 797 1656 
z
" id="ArialMT-64" transform="scale(0.015625)"/>
     </defs>
     <use xlink:href="#ArialMT-25"/>
     <use x="88.916016" xlink:href="#ArialMT-59"/>
     <use x="146.490234" xlink:href="#ArialMT-2d"/>
     <use x="179.791016" xlink:href="#ArialMT-25"/>
     <use x="268.707031" xlink:href="#ArialMT-6d"/>
     <use x="352.007812" xlink:href="#ArialMT-2d"/>
     <use x="385.308594" xlink:href="#ArialMT-25"/>
     <use x="474.224609" xlink:href="#ArialMT-64"/>
    </g>
   </g>
   <g id="text_3">
    <!-- 2% -->
    <g style="fill:#262626;" transform="translate(295.612537 150.894326)scale(0.12 -0.12)">
     <defs>
      <path d="M 3222 541 
L 3222 0 
L 194 0 
Q 188 203 259 391 
Q 375 700 629 1000 
Q 884 1300 1366 1694 
Q 2113 2306 2375 2664 
Q 2638 3022 2638 3341 
Q 2638 3675 2398 3904 
Q 2159 4134 1775 4134 
Q 1369 4134 1125 3890 
Q 881 3647 878 3216 
L 300 3275 
Q 359 3922 746 4261 
Q 1134 4600 1788 4600 
Q 2447 4600 2831 4234 
Q 3216 3869 3216 3328 
Q 3216 3053 3103 2787 
Q 2991 2522 2730 2228 
Q 2469 1934 1863 1422 
Q 1356 997 1212 845 
Q 1069 694 975 541 
L 3222 541 
z
" id="ArialMT-32" transform="scale(0.015625)"/>
     </defs>
     <use xlink:href="#ArialMT-32"/>
     <use x="55.615234" xlink:href="#ArialMT-25"/>
    </g>
   </g>
   <g id="text_4">
    <!-- %Y-%b -->
    <g style="fill:#262626;" transform="translate(361.309237 120.788)scale(0.11 -0.11)">
     <defs>
      <path d="M 941 0 
L 419 0 
L 419 4581 
L 981 4581 
L 981 2947 
Q 1338 3394 1891 3394 
Q 2197 3394 2470 3270 
Q 2744 3147 2920 2923 
Q 3097 2700 3197 2384 
Q 3297 2069 3297 1709 
Q 3297 856 2875 390 
Q 2453 -75 1863 -75 
Q 1275 -75 941 416 
L 941 0 
z
M 934 1684 
Q 934 1088 1097 822 
Q 1363 388 1816 388 
Q 2184 388 2453 708 
Q 2722 1028 2722 1663 
Q 2722 2313 2464 2622 
Q 2206 2931 1841 2931 
Q 1472 2931 1203 2611 
Q 934 2291 934 1684 
z
" id="ArialMT-62" transform="scale(0.015625)"/>
     </defs>
     <use xlink:href="#ArialMT-25"/>
     <use x="88.916016" xlink:href="#ArialMT-59"/>
     <use x="146.490234" xlink:href="#ArialMT-2d"/>
     <use x="179.791016" xlink:href="#ArialMT-25"/>
     <use x="268.707031" xlink:href="#ArialMT-62"/>
    </g>
   </g>
   <g id="text_5">
    <!-- 0% -->
    <g style="fill:#262626;" transform="translate(293.669237 145.756278)scale(0.12 -0.12)">
     <defs>
      <path d="M 266 2259 
Q 266 3072 433 3567 
Q 600 4063 929 4331 
Q 1259 4600 1759 4600 
Q 2128 4600 2406 4451 
Q 2684 4303 2865 4023 
Q 3047 3744 3150 3342 
Q 3253 2941 3253 2259 
Q 3253 1453 3087 958 
Q 2922 463 2592 192 
Q 2263 -78 1759 -78 
Q 1097 -78 719 397 
Q 266 969 266 2259 
z
M 844 2259 
Q 844 1131 1108 757 
Q 1372 384 1759 384 
Q 2147 384 2411 759 
Q 2675 1134 2675 2259 
Q 2675 3391 2411 3762 
Q 2147 4134 1753 4134 
Q 1366 4134 1134 3806 
Q 844 3388 844 2259 
z
" id="ArialMT-30" transform="scale(0.015625)"/>
     </defs>
     <use xlink:href="#ArialMT-30"/>
     <use x="55.615234" xlink:href="#ArialMT-25"/>
    </g>
   </g>
   <g id="text_6">
    <!-- %m/%d/%Y -->
    <g style="fill:#262626;" transform="translate(359.711885 117.121799)scale(0.11 -0.11)">
     <defs>
      <path d="M 0 -78 
L 1328 4659 
L 1778 4659 
L 453 -78 
L 0 -78 
z
" id="ArialMT-2f" transform="scale(0.015625)"/>
     </defs>
     <use xlink:href="#ArialMT-25"/>
     <use x="88.916016" xlink:href="#ArialMT-6d"/>
     <use x="172.216797" xlink:href="#ArialMT-2f"/>
     <use x="200" xlink:href="#ArialMT-25"/>
     <use x="288.916016" xlink:href="#ArialMT-64"/>
     <use x="344.53125" xlink:href="#ArialMT-2f"/>
     <use x="372.314453" xlink:href="#ArialMT-25"/>
     <use x="461.230469" xlink:href="#ArialMT-59"/>
    </g>
   </g>
   <g id="text_7">
    <!-- 0% -->
    <g style="fill:#262626;" transform="translate(292.791413 143.741519)scale(0.12 -0.12)">
     <use xlink:href="#ArialMT-30"/>
     <use x="55.615234" xlink:href="#ArialMT-25"/>
    </g>
   </g>
   <g id="text_8">
    <!-- %d-%b-%Y -->
    <g style="fill:#262626;" transform="translate(358.011882 113.502053)scale(0.11 -0.11)">
     <use xlink:href="#ArialMT-25"/>
     <use x="88.916016" xlink:href="#ArialMT-64"/>
     <use x="144.53125" xlink:href="#ArialMT-2d"/>
     <use x="177.832031" xlink:href="#ArialMT-25"/>
     <use x="266.748047" xlink:href="#ArialMT-62"/>
     <use x="322.363281" xlink:href="#ArialMT-2d"/>
     <use x="355.664062" xlink:href="#ArialMT-25"/>
     <use x="444.580078" xlink:href="#ArialMT-59"/>
    </g>
   </g>
   <g id="text_9">
    <!-- 0% -->
    <g style="fill:#262626;" transform="translate(291.857177 141.752289)scale(0.12 -0.12)">
     <use xlink:href="#ArialMT-30"/>
     <use x="55.615234" xlink:href="#ArialMT-25"/>
    </g>
   </g>
   <g id="text_10">
    <!-- %Y_%m -->
    <g style="fill:#262626;" transform="translate(356.210578 109.998668)scale(0.11 -0.11)">
     <defs>
      <path d="M -97 -1272 
L -97 -866 
L 3631 -866 
L 3631 -1272 
L -97 -1272 
z
" id="ArialMT-5f" transform="scale(0.015625)"/>
     </defs>
     <use xlink:href="#ArialMT-25"/>
     <use x="88.916016" xlink:href="#ArialMT-59"/>
     <use x="155.615234" xlink:href="#ArialMT-5f"/>
     <use x="211.230469" xlink:href="#ArialMT-25"/>
     <use x="300.146484" xlink:href="#ArialMT-6d"/>
    </g>
   </g>
   <g id="text_11">
    <!-- 0% -->
    <g style="fill:#262626;" transform="translate(290.867272 139.790168)scale(0.12 -0.12)">
     <use xlink:href="#ArialMT-30"/>
     <use x="55.615234" xlink:href="#ArialMT-25"/>
    </g>
   </g>
   <g id="text_12">
    <!-- %Y%m%d -->
    <g style="fill:#262626;" transform="translate(354.309404 106.413384)scale(0.11 -0.11)">
     <use xlink:href="#ArialMT-25"/>
     <use x="88.916016" xlink:href="#ArialMT-59"/>
     <use x="155.615234" xlink:href="#ArialMT-25"/>
     <use x="244.53125" xlink:href="#ArialMT-6d"/>
     <use x="327.832031" xlink:href="#ArialMT-25"/>
     <use x="416.748047" xlink:href="#ArialMT-64"/>
    </g>
   </g>
   <g id="text_13">
    <!-- 0% -->
    <g style="fill:#262626;" transform="translate(289.822482 137.856714)scale(0.12 -0.12)">
     <use xlink:href="#ArialMT-30"/>
     <use x="55.615234" xlink:href="#ArialMT-25"/>
    </g>
   </g>
  </g>
 </g>
</svg>
