<?xml version="1.0" encoding="utf-8" standalone="no"?>
<!DOCTYPE svg PUBLIC "-//W3C//DTD SVG 1.1//EN"
  "http://www.w3.org/Graphics/SVG/1.1/DTD/svg11.dtd">
<!-- Created with matplotlib (https://matplotlib.org/) -->
<svg height="345.6pt" version="1.1" viewBox="0 0 460.8 345.6" width="460.8pt" xmlns="http://www.w3.org/2000/svg" xmlns:xlink="http://www.w3.org/1999/xlink">
 <metadata>
  <rdf:RDF xmlns:cc="http://creativecommons.org/ns#" xmlns:dc="http://purl.org/dc/elements/1.1/" xmlns:rdf="http://www.w3.org/1999/02/22-rdf-syntax-ns#">
   <cc:Work>
    <dc:type rdf:resource="http://purl.org/dc/dcmitype/StillImage"/>
    <dc:date>2022-02-05T00:40:39.331106</dc:date>
    <dc:format>image/svg+xml</dc:format>
    <dc:creator>
     <cc:Agent>
      <dc:title>Matplotlib v3.3.4, https://matplotlib.org/</dc:title>
     </cc:Agent>
    </dc:creator>
   </cc:Work>
  </rdf:RDF>
 </metadata>
 <defs>
  <style type="text/css">*{stroke-linecap:butt;stroke-linejoin:round;}</style>
 </defs>
 <g id="figure_1">
  <g id="patch_1">
   <path d="M 0 345.6 
L 460.8 345.6 
L 460.8 0 
L 0 0 
z
" style="fill:#ffffff;"/>
  </g>
  <g id="axes_1">
   <g id="matplotlib.axis_1"/>
   <g id="matplotlib.axis_2"/>
   <g id="patch_2">
    <path d="M 339.930258 109.277134 
C 332.057374 95.640899 321.733095 83.575382 309.477991 73.688946 
C 297.222886 63.80251 283.246451 56.264161 268.253402 51.453996 
C 253.260354 46.64383 237.506991 44.644076 221.787628 45.555564 
C 206.068264 46.467052 190.651615 50.2742 176.315016 56.785047 
C 161.978417 63.295894 148.966945 72.399138 137.936663 83.635778 
C 126.906381 94.872417 118.045846 108.050367 111.801822 122.505172 
C 105.557798 136.959976 102.037025 152.444536 101.417025 168.178093 
C 100.797025 183.911649 103.088398 199.625244 108.175608 214.526569 
C 113.262819 229.427894 121.058903 243.262218 131.170768 255.33199 
C 141.282633 267.401761 153.537421 277.500653 167.317225 285.11946 
C 181.097028 292.738267 196.166287 297.74675 211.765181 299.892371 
C 227.364076 302.037993 243.22595 301.284074 258.55102 297.668631 
C 273.87609 294.053187 288.40238 287.638022 301.397448 278.746599 
C 314.392517 269.855177 325.634219 258.639493 334.555728 245.665061 
C 343.477237 232.690629 349.926044 218.179243 353.576987 202.862591 
C 357.227931 187.54594 358.0186 171.685855 355.909129 156.082031 
L 229.189858 173.213134 
L 339.930258 109.277134 
z
" style="fill:#4c72b0;stroke:#ffffff;stroke-linejoin:miter;"/>
   </g>
   <g id="patch_3">
    <path d="M 358.359625 155.358013 
C 357.724429 150.659454 356.828402 145.999858 355.675695 141.400815 
C 354.522987 136.801772 353.115383 132.270397 351.459405 127.827688 
L 231.640353 172.489117 
L 358.359625 155.358013 
z
" style="fill:#dd8452;stroke:#ffffff;stroke-linejoin:miter;"/>
   </g>
   <g id="patch_4">
    <path d="M 351.410918 127.675345 
C 351.203974 127.120147 350.993172 126.566394 350.77853 126.014126 
C 350.563888 125.461859 350.34541 124.91109 350.123111 124.361859 
L 231.591867 172.336774 
L 351.410918 127.675345 
z
" style="fill:#55a868;stroke:#ffffff;stroke-linejoin:miter;"/>
   </g>
   <g id="patch_5">
    <path d="M 350.109774 124.328906 
C 349.887476 123.779676 349.661363 123.231997 349.431451 122.685909 
C 349.20154 122.139822 348.967836 121.595339 348.730356 121.0525 
L 231.578529 172.303821 
L 350.109774 124.328906 
z
" style="fill:#c44e52;stroke:#ffffff;stroke-linejoin:miter;"/>
   </g>
   <g id="patch_6">
    <path d="M 348.716107 121.019931 
C 348.478628 120.477092 348.237377 119.93591 347.992375 119.396424 
C 347.747372 118.856939 347.498623 118.319163 347.246144 117.783135 
L 231.564281 172.271252 
L 348.716107 121.019931 
z
" style="fill:#8172b3;stroke:#ffffff;stroke-linejoin:miter;"/>
   </g>
   <g id="patch_7">
    <path d="M 347.230996 117.750975 
C 346.978518 117.214947 346.722318 116.680681 346.462413 116.148214 
C 346.202508 115.615748 345.938906 115.085095 345.671625 114.556293 
L 231.549133 172.239091 
L 347.230996 117.750975 
z
" style="fill:#937860;stroke:#ffffff;stroke-linejoin:miter;"/>
   </g>
   <g id="patch_8">
    <path d="M 345.655588 114.524566 
C 345.388307 113.995764 345.117354 113.468826 344.842748 112.94379 
C 344.568142 112.418754 344.28989 111.895633 344.008013 111.374466 
L 231.533097 172.207364 
L 345.655588 114.524566 
z
" style="fill:#da8bc3;stroke:#ffffff;stroke-linejoin:miter;"/>
   </g>
   <g id="patch_9">
    <path d="M 343.991101 111.343197 
C 343.709223 110.822029 343.423727 110.302826 343.134632 109.785627 
C 342.845537 109.268428 342.552851 108.753244 342.256595 108.240113 
L 231.516184 172.176095 
L 343.991101 111.343197 
z
" style="fill:#8c8c8c;stroke:#ffffff;stroke-linejoin:miter;"/>
   </g>
   <g id="text_1">
    <!-- 94% -->
    <g style="fill:#262626;" transform="translate(143.245371 201.312445)scale(0.12 -0.12)">
     <defs>
      <path d="M 10.984375 1.515625 
L 10.984375 10.5 
Q 14.703125 8.734375 18.5 7.8125 
Q 22.3125 6.890625 25.984375 6.890625 
Q 35.75 6.890625 40.890625 13.453125 
Q 46.046875 20.015625 46.78125 33.40625 
Q 43.953125 29.203125 39.59375 26.953125 
Q 35.25 24.703125 29.984375 24.703125 
Q 19.046875 24.703125 12.671875 31.3125 
Q 6.296875 37.9375 6.296875 49.421875 
Q 6.296875 60.640625 12.9375 67.421875 
Q 19.578125 74.21875 30.609375 74.21875 
Q 43.265625 74.21875 49.921875 64.515625 
Q 56.59375 54.828125 56.59375 36.375 
Q 56.59375 19.140625 48.40625 8.859375 
Q 40.234375 -1.421875 26.421875 -1.421875 
Q 22.703125 -1.421875 18.890625 -0.6875 
Q 15.09375 0.046875 10.984375 1.515625 
z
M 30.609375 32.421875 
Q 37.25 32.421875 41.125 36.953125 
Q 45.015625 41.5 45.015625 49.421875 
Q 45.015625 57.28125 41.125 61.84375 
Q 37.25 66.40625 30.609375 66.40625 
Q 23.96875 66.40625 20.09375 61.84375 
Q 16.21875 57.28125 16.21875 49.421875 
Q 16.21875 41.5 20.09375 36.953125 
Q 23.96875 32.421875 30.609375 32.421875 
z
" id="DejaVuSans-57"/>
      <path d="M 37.796875 64.3125 
L 12.890625 25.390625 
L 37.796875 25.390625 
z
M 35.203125 72.90625 
L 47.609375 72.90625 
L 47.609375 25.390625 
L 58.015625 25.390625 
L 58.015625 17.1875 
L 47.609375 17.1875 
L 47.609375 0 
L 37.796875 0 
L 37.796875 17.1875 
L 4.890625 17.1875 
L 4.890625 26.703125 
z
" id="DejaVuSans-52"/>
      <path d="M 72.703125 32.078125 
Q 68.453125 32.078125 66.03125 28.46875 
Q 63.625 24.859375 63.625 18.40625 
Q 63.625 12.0625 66.03125 8.421875 
Q 68.453125 4.78125 72.703125 4.78125 
Q 76.859375 4.78125 79.265625 8.421875 
Q 81.6875 12.0625 81.6875 18.40625 
Q 81.6875 24.8125 79.265625 28.4375 
Q 76.859375 32.078125 72.703125 32.078125 
z
M 72.703125 38.28125 
Q 80.421875 38.28125 84.953125 32.90625 
Q 89.5 27.546875 89.5 18.40625 
Q 89.5 9.28125 84.9375 3.921875 
Q 80.375 -1.421875 72.703125 -1.421875 
Q 64.890625 -1.421875 60.34375 3.921875 
Q 55.8125 9.28125 55.8125 18.40625 
Q 55.8125 27.59375 60.375 32.9375 
Q 64.9375 38.28125 72.703125 38.28125 
z
M 22.3125 68.015625 
Q 18.109375 68.015625 15.6875 64.375 
Q 13.28125 60.75 13.28125 54.390625 
Q 13.28125 47.953125 15.671875 44.328125 
Q 18.0625 40.71875 22.3125 40.71875 
Q 26.5625 40.71875 28.96875 44.328125 
Q 31.390625 47.953125 31.390625 54.390625 
Q 31.390625 60.6875 28.953125 64.34375 
Q 26.515625 68.015625 22.3125 68.015625 
z
M 66.40625 74.21875 
L 74.21875 74.21875 
L 28.609375 -1.421875 
L 20.796875 -1.421875 
z
M 22.3125 74.21875 
Q 30.03125 74.21875 34.609375 68.875 
Q 39.203125 63.53125 39.203125 54.390625 
Q 39.203125 45.171875 34.640625 39.84375 
Q 30.078125 34.515625 22.3125 34.515625 
Q 14.546875 34.515625 10.03125 39.859375 
Q 5.515625 45.21875 5.515625 54.390625 
Q 5.515625 63.484375 10.046875 68.84375 
Q 14.59375 74.21875 22.3125 74.21875 
z
" id="DejaVuSans-37"/>
     </defs>
     <use xlink:href="#DejaVuSans-57"/>
     <use x="63.623047" xlink:href="#DejaVuSans-52"/>
     <use x="127.246094" xlink:href="#DejaVuSans-37"/>
    </g>
   </g>
   <g id="text_2">
    <!-- %Y-%m-%d -->
    <g style="fill:#262626;" transform="translate(368.079229 141.327297)scale(0.11 -0.11)">
     <defs>
      <path d="M -0.203125 72.90625 
L 10.40625 72.90625 
L 30.609375 42.921875 
L 50.6875 72.90625 
L 61.28125 72.90625 
L 35.5 34.71875 
L 35.5 0 
L 25.59375 0 
L 25.59375 34.71875 
z
" id="DejaVuSans-89"/>
      <path d="M 4.890625 31.390625 
L 31.203125 31.390625 
L 31.203125 23.390625 
L 4.890625 23.390625 
z
" id="DejaVuSans-45"/>
      <path d="M 52 44.1875 
Q 55.375 50.25 60.0625 53.125 
Q 64.75 56 71.09375 56 
Q 79.640625 56 84.28125 50.015625 
Q 88.921875 44.046875 88.921875 33.015625 
L 88.921875 0 
L 79.890625 0 
L 79.890625 32.71875 
Q 79.890625 40.578125 77.09375 44.375 
Q 74.3125 48.1875 68.609375 48.1875 
Q 61.625 48.1875 57.5625 43.546875 
Q 53.515625 38.921875 53.515625 30.90625 
L 53.515625 0 
L 44.484375 0 
L 44.484375 32.71875 
Q 44.484375 40.625 41.703125 44.40625 
Q 38.921875 48.1875 33.109375 48.1875 
Q 26.21875 48.1875 22.15625 43.53125 
Q 18.109375 38.875 18.109375 30.90625 
L 18.109375 0 
L 9.078125 0 
L 9.078125 54.6875 
L 18.109375 54.6875 
L 18.109375 46.1875 
Q 21.1875 51.21875 25.484375 53.609375 
Q 29.78125 56 35.6875 56 
Q 41.65625 56 45.828125 52.96875 
Q 50 49.953125 52 44.1875 
z
" id="DejaVuSans-109"/>
      <path d="M 45.40625 46.390625 
L 45.40625 75.984375 
L 54.390625 75.984375 
L 54.390625 0 
L 45.40625 0 
L 45.40625 8.203125 
Q 42.578125 3.328125 38.25 0.953125 
Q 33.9375 -1.421875 27.875 -1.421875 
Q 17.96875 -1.421875 11.734375 6.484375 
Q 5.515625 14.40625 5.515625 27.296875 
Q 5.515625 40.1875 11.734375 48.09375 
Q 17.96875 56 27.875 56 
Q 33.9375 56 38.25 53.625 
Q 42.578125 51.265625 45.40625 46.390625 
z
M 14.796875 27.296875 
Q 14.796875 17.390625 18.875 11.75 
Q 22.953125 6.109375 30.078125 6.109375 
Q 37.203125 6.109375 41.296875 11.75 
Q 45.40625 17.390625 45.40625 27.296875 
Q 45.40625 37.203125 41.296875 42.84375 
Q 37.203125 48.484375 30.078125 48.484375 
Q 22.953125 48.484375 18.875 42.84375 
Q 14.796875 37.203125 14.796875 27.296875 
z
" id="DejaVuSans-100"/>
     </defs>
     <use xlink:href="#DejaVuSans-37"/>
     <use x="95.019531" xlink:href="#DejaVuSans-89"/>
     <use x="144.228516" xlink:href="#DejaVuSans-45"/>
     <use x="180.3125" xlink:href="#DejaVuSans-37"/>
     <use x="275.332031" xlink:href="#DejaVuSans-109"/>
     <use x="372.744141" xlink:href="#DejaVuSans-45"/>
     <use x="408.828125" xlink:href="#DejaVuSans-37"/>
     <use x="503.847656" xlink:href="#DejaVuSans-100"/>
    </g>
   </g>
   <g id="text_3">
    <!-- 4% -->
    <g style="fill:#262626;" transform="translate(296.543121 157.147386)scale(0.12 -0.12)">
     <use xlink:href="#DejaVuSans-52"/>
     <use x="63.623047" xlink:href="#DejaVuSans-37"/>
    </g>
   </g>
   <g id="text_4">
    <!-- %Y-%b -->
    <g style="fill:#262626;" transform="translate(362.697196 124.417174)scale(0.11 -0.11)">
     <defs>
      <path d="M 48.6875 27.296875 
Q 48.6875 37.203125 44.609375 42.84375 
Q 40.53125 48.484375 33.40625 48.484375 
Q 26.265625 48.484375 22.1875 42.84375 
Q 18.109375 37.203125 18.109375 27.296875 
Q 18.109375 17.390625 22.1875 11.75 
Q 26.265625 6.109375 33.40625 6.109375 
Q 40.53125 6.109375 44.609375 11.75 
Q 48.6875 17.390625 48.6875 27.296875 
z
M 18.109375 46.390625 
Q 20.953125 51.265625 25.265625 53.625 
Q 29.59375 56 35.59375 56 
Q 45.5625 56 51.78125 48.09375 
Q 58.015625 40.1875 58.015625 27.296875 
Q 58.015625 14.40625 51.78125 6.484375 
Q 45.5625 -1.421875 35.59375 -1.421875 
Q 29.59375 -1.421875 25.265625 0.953125 
Q 20.953125 3.328125 18.109375 8.203125 
L 18.109375 0 
L 9.078125 0 
L 9.078125 75.984375 
L 18.109375 75.984375 
z
" id="DejaVuSans-98"/>
     </defs>
     <use xlink:href="#DejaVuSans-37"/>
     <use x="95.019531" xlink:href="#DejaVuSans-89"/>
     <use x="144.228516" xlink:href="#DejaVuSans-45"/>
     <use x="180.3125" xlink:href="#DejaVuSans-37"/>
     <use x="275.332031" xlink:href="#DejaVuSans-98"/>
    </g>
   </g>
   <g id="text_5">
    <!-- 0% -->
    <g style="fill:#262626;" transform="translate(293.585427 147.854435)scale(0.12 -0.12)">
     <defs>
      <path d="M 31.78125 66.40625 
Q 24.171875 66.40625 20.328125 58.90625 
Q 16.5 51.421875 16.5 36.375 
Q 16.5 21.390625 20.328125 13.890625 
Q 24.171875 6.390625 31.78125 6.390625 
Q 39.453125 6.390625 43.28125 13.890625 
Q 47.125 21.390625 47.125 36.375 
Q 47.125 51.421875 43.28125 58.90625 
Q 39.453125 66.40625 31.78125 66.40625 
z
M 31.78125 74.21875 
Q 44.046875 74.21875 50.515625 64.515625 
Q 56.984375 54.828125 56.984375 36.375 
Q 56.984375 17.96875 50.515625 8.265625 
Q 44.046875 -1.421875 31.78125 -1.421875 
Q 19.53125 -1.421875 13.0625 8.265625 
Q 6.59375 17.96875 6.59375 36.375 
Q 6.59375 54.828125 13.0625 64.515625 
Q 19.53125 74.21875 31.78125 74.21875 
z
" id="DejaVuSans-48"/>
     </defs>
     <use xlink:href="#DejaVuSans-48"/>
     <use x="63.623047" xlink:href="#DejaVuSans-37"/>
    </g>
   </g>
   <g id="text_6">
    <!-- %Y_%m_%d -->
    <g style="fill:#262626;" transform="translate(361.216743 120.606462)scale(0.11 -0.11)">
     <defs>
      <path d="M 50.984375 -16.609375 
L 50.984375 -23.578125 
L -0.984375 -23.578125 
L -0.984375 -16.609375 
z
" id="DejaVuSans-95"/>
     </defs>
     <use xlink:href="#DejaVuSans-37"/>
     <use x="95.019531" xlink:href="#DejaVuSans-89"/>
     <use x="156.103516" xlink:href="#DejaVuSans-95"/>
     <use x="206.103516" xlink:href="#DejaVuSans-37"/>
     <use x="301.123047" xlink:href="#DejaVuSans-109"/>
     <use x="398.535156" xlink:href="#DejaVuSans-95"/>
     <use x="448.535156" xlink:href="#DejaVuSans-37"/>
     <use x="543.554688" xlink:href="#DejaVuSans-100"/>
    </g>
   </g>
   <g id="text_7">
    <!-- 0% -->
    <g style="fill:#262626;" transform="translate(292.771845 145.844324)scale(0.12 -0.12)">
     <use xlink:href="#DejaVuSans-48"/>
     <use x="63.623047" xlink:href="#DejaVuSans-37"/>
    </g>
   </g>
   <g id="text_8">
    <!-- %d-%b-%Y -->
    <g style="fill:#262626;" transform="translate(359.635184 117.144254)scale(0.11 -0.11)">
     <use xlink:href="#DejaVuSans-37"/>
     <use x="95.019531" xlink:href="#DejaVuSans-100"/>
     <use x="158.496094" xlink:href="#DejaVuSans-45"/>
     <use x="194.580078" xlink:href="#DejaVuSans-37"/>
     <use x="289.599609" xlink:href="#DejaVuSans-98"/>
     <use x="353.076172" xlink:href="#DejaVuSans-45"/>
     <use x="389.160156" xlink:href="#DejaVuSans-37"/>
     <use x="484.179688" xlink:href="#DejaVuSans-89"/>
    </g>
   </g>
   <g id="text_9">
    <!-- 0% -->
    <g style="fill:#262626;" transform="translate(291.9027 143.857605)scale(0.12 -0.12)">
     <use xlink:href="#DejaVuSans-48"/>
     <use x="63.623047" xlink:href="#DejaVuSans-37"/>
    </g>
   </g>
   <g id="text_10">
    <!-- %Y_%m -->
    <g style="fill:#262626;" transform="translate(357.953741 113.324361)scale(0.11 -0.11)">
     <use xlink:href="#DejaVuSans-37"/>
     <use x="95.019531" xlink:href="#DejaVuSans-89"/>
     <use x="156.103516" xlink:href="#DejaVuSans-95"/>
     <use x="206.103516" xlink:href="#DejaVuSans-37"/>
     <use x="301.123047" xlink:href="#DejaVuSans-109"/>
    </g>
   </g>
   <g id="text_11">
    <!-- 0% -->
    <g style="fill:#262626;" transform="translate(290.978663 141.895815)scale(0.12 -0.12)">
     <use xlink:href="#DejaVuSans-48"/>
     <use x="63.623047" xlink:href="#DejaVuSans-37"/>
    </g>
   </g>
   <g id="text_12">
    <!-- %Y%m%d -->
    <g style="fill:#262626;" transform="translate(356.173713 110.052745)scale(0.11 -0.11)">
     <use xlink:href="#DejaVuSans-37"/>
     <use x="95.019531" xlink:href="#DejaVuSans-89"/>
     <use x="156.103516" xlink:href="#DejaVuSans-37"/>
     <use x="251.123047" xlink:href="#DejaVuSans-109"/>
     <use x="348.535156" xlink:href="#DejaVuSans-37"/>
     <use x="443.554688" xlink:href="#DejaVuSans-100"/>
    </g>
   </g>
   <g id="text_13">
    <!-- 0% -->
    <g style="fill:#262626;" transform="translate(290.00045 139.96047)scale(0.12 -0.12)">
     <use xlink:href="#DejaVuSans-48"/>
     <use x="63.623047" xlink:href="#DejaVuSans-37"/>
    </g>
   </g>
   <g id="text_14">
    <!-- %d %b %Y -->
    <g style="fill:#262626;" transform="translate(354.296477 106.581893)scale(0.11 -0.11)">
     <defs>
      <path id="DejaVuSans-32"/>
     </defs>
     <use xlink:href="#DejaVuSans-37"/>
     <use x="95.019531" xlink:href="#DejaVuSans-100"/>
     <use x="158.496094" xlink:href="#DejaVuSans-32"/>
     <use x="190.283203" xlink:href="#DejaVuSans-37"/>
     <use x="285.302734" xlink:href="#DejaVuSans-98"/>
     <use x="348.779297" xlink:href="#DejaVuSans-32"/>
     <use x="380.566406" xlink:href="#DejaVuSans-37"/>
     <use x="475.585938" xlink:href="#DejaVuSans-89"/>
    </g>
   </g>
   <g id="text_15">
    <!-- 0% -->
    <g style="fill:#262626;" transform="translate(288.968816 138.053064)scale(0.12 -0.12)">
     <use xlink:href="#DejaVuSans-48"/>
     <use x="63.623047" xlink:href="#DejaVuSans-37"/>
    </g>
   </g>
  </g>
 </g>
</svg>
